<ttFont>
        <CharString name=".notdef">
          -419 endchar
        </CharString>
        <CharString name="A">
          72 21 -21 112 143.5 213.5 178 hstem
          -27 614 vstem
          587 hmoveto
          -97 647 rlineto
          -241 hlineto
          -276 -647 rlineto
          195 hlineto
          31 109 83 4 99 -2 rlineto
          -4 vlineto
          4 -107 rlineto
          -17 256 rmoveto
          -56 -1 -57 1 83 213 rlineto
          12 hlineto
          endchar
        </CharString>
        <CharString name="AE">
          284 0 153 341 153 -14 14 hstemhm
          371.5 191.5 -181 194 172 13.5 hintmask 11001100
          817 159 rmoveto
          hintmask 11010100
          -165 -6 rlineto
          -91 hlineto
          4 76 197 55 -1 138 -13 11 rlineto
          hintmask 11001100
          -175 -53 6 114 rlineto
          75 hlineto
          149 -6 rlineto
          hintmask 10101100
          30 145 rlineto
          hintmask 11010100
          -9 14 rlineto
          -518 hlineto
          -355 -647 rlineto
          195 hlineto
          48 119 1 3 178 52 -3 -67 -8 -107 rlineto
          435 hlineto
          30 145 rlineto
          hintmask 11001100
          -448 177 rmoveto
          -96 -28 90 175 rlineto
          12 hlineto
          endchar
        </CharString>
        <CharString name="AEacute">
          284 0 153 341 153 -14 14 hstemhm
          372.5 191.5 -181 194 171 13.5 hintmask 11001100
          463 716 rmoveto
          17 -4 77 20 75 22 86 27 rlinecurve
          6 16 -49 116 -17 4 -71 -42 -71 -39 -83 -41 rlinecurve
          385 -636 rmoveto
          hintmask 11010100
          -165 -6 rlineto
          -91 hlineto
          4 77 196 54 -1 138 -13 11 rlineto
          hintmask 11001100
          -174 -53 6 114 rlineto
          75 hlineto
          149 -6 rlineto
          hintmask 10101100
          30 145 rlineto
          hintmask 11010100
          -9 14 rlineto
          -518 hlineto
          -355 -647 rlineto
          195 hlineto
          48 119 2 3 177 52 -3 -67 -8 -107 rlineto
          435 hlineto
          30 145 rlineto
          hintmask 11001100
          -448 177 rmoveto
          -96 -28 90 175 rlineto
          12 hlineto
          endchar
        </CharString>
        <CharString name="Aacute">
          72 21 -21 112 143.5 213.5 178 hstem
          -26 614 vstem
          273 716 rmoveto
          17 -4 77 20 75 22 86 27 rlinecurve
          6 16 -49 116 -17 4 -71 -42 -71 -39 -83 -41 rlinecurve
          345 -795 rmoveto
          -97 647 rlineto
          -241 hlineto
          -276 -647 rlineto
          195 hlineto
          31 109 81 4 101 -2 rlineto
          -4 vlineto
          4 -107 rlineto
          -17 256 rmoveto
          -58 -1 -55 1 83 213 rlineto
          12 hlineto
          endchar
        </CharString>
        <CharString name="Abreve">
          72 21 -21 112 143.5 213.5 178 69 133 hstem
          -26 614 vstem
          379 716 rmoveto
          86 60 44 80 37 hvcurveto
          -32 59 rlineto
          -27 hlineto
          -32 -24 -41 -18 -49 hhcurveto
          -46 -42 16 34 -19 hvcurveto
          -27 hlineto
          -48 -59 rlineto
          -80 23 62 -44 87 hhcurveto
          209 -716 rmoveto
          -97 647 rlineto
          -241 hlineto
          -276 -647 rlineto
          195 hlineto
          31 109 81 4 101 -2 rlineto
          -4 vlineto
          4 -107 rlineto
          -17 256 rmoveto
          -58 -1 -55 1 83 213 rlineto
          12 hlineto
          endchar
        </CharString>
        <CharString name="Abreveacute">
          72 21 -21 112 143.5 213.5 178 49 133 hstem
          -26 614 vstem
          385 861 rmoveto
          15 4 44 38 43 40 41 41 rlinecurve
          -2 14 -89 57 -13 -4 -31 -50 -33 -48 -33 -48 rlinecurve
          56 -209 rmoveto
          86 60 44 80 37 hvcurveto
          -32 59 rlineto
          -27 hlineto
          -32 -24 -41 -18 -49 hhcurveto
          -46 -42 16 34 -19 hvcurveto
          -27 hlineto
          -48 -59 rlineto
          -80 23 62 -44 87 hhcurveto
          205 -696 rmoveto
          -97 647 rlineto
          -241 hlineto
          -276 -647 rlineto
          195 hlineto
          31 109 81 4 101 -2 rlineto
          -4 vlineto
          4 -107 rlineto
          -17 256 rmoveto
          -58 -1 -55 1 83 213 rlineto
          12 hlineto
          endchar
        </CharString>
        <CharString name="Abrevedotbelow">
          72 -233 198 56 -21 112 143.5 213.5 178 69 133 hstem
          179 194 vstem
          379 716 rmoveto
          86 60 44 80 37 hvcurveto
          -32 59 rlineto
          -27 hlineto
          -32 -24 -41 -18 -49 hhcurveto
          -46 -42 16 34 -19 hvcurveto
          -27 hlineto
          -48 -59 rlineto
          -80 23 62 -44 87 hhcurveto
          209 -716 rmoveto
          -97 647 rlineto
          -241 hlineto
          -276 -647 rlineto
          195 hlineto
          31 109 81 4 101 -2 rlineto
          -4 vlineto
          4 -107 rlineto
          -17 256 rmoveto
          -58 -1 -55 1 83 213 rlineto
          12 hlineto
          -71 -504 rmoveto
          -63 -38 -40 -64 -60 32 -34 61 62 39 39 64 60 -34 35 -59 hvcurveto
          endchar
        </CharString>
        <CharString name="Abrevegrave">
          72 21 -21 112 143.5 213.5 178 49 133 hstem
          -26 614 vstem
          397 861 rmoveto
          58 44 -33 48 -33 48 -31 50 rlinecurve
          -13 4 -89 -57 -3 -14 42 -41 43 -40 44 -38 rlinecurve
          1 -169 rmoveto
          86 60 44 80 37 hvcurveto
          -32 59 rlineto
          -27 hlineto
          -32 -24 -41 -18 -49 hhcurveto
          -46 -42 16 34 -19 hvcurveto
          -27 hlineto
          -48 -59 rlineto
          -80 23 62 -44 87 hhcurveto
          205 -696 rmoveto
          -97 647 rlineto
          -241 hlineto
          -276 -647 rlineto
          195 hlineto
          31 109 81 4 101 -2 rlineto
          -4 vlineto
          4 -107 rlineto
          -17 256 rmoveto
          -58 -1 -55 1 83 213 rlineto
          12 hlineto
          endchar
        </CharString>
        <CharString name="Abrevehookabove">
          72 21 -21 112 143.5 213.5 178 49 133 204 82 hstemhm
          383 98 hintmask 00000000
          hintmask 11111100
          353 1033 rmoveto
          17 13 -7 -17 -21 -20 -31 -34 -24 hvcurveto
          54 -79 64 38 -27 43 rlineto
          47 42 14 21 29 vvcurveto
          53 -44 35 -56 -46 -47 -24 -37 -34 vhcurveto
          29 -47 rlineto
          16 21 28 10 21 hhcurveto
          30 -337 rmoveto
          86 60 44 80 37 hvcurveto
          -32 59 rlineto
          -27 hlineto
          -32 -24 -41 -18 -49 hhcurveto
          -46 -42 16 34 -19 hvcurveto
          -27 hlineto
          -48 -59 rlineto
          -80 23 62 -44 87 hhcurveto
          205 -696 rmoveto
          -97 647 rlineto
          -241 hlineto
          -276 -647 rlineto
          195 hlineto
          31 109 81 4 101 -2 rlineto
          -4 vlineto
          4 -107 rlineto
          -17 256 rmoveto
          -58 -1 -55 1 83 213 rlineto
          12 hlineto
          endchar
        </CharString>
        <CharString name="Abrevetilde">
          72 21 -21 112 143.5 213.5 178 48 124 hstem
          -26 624 vstem
          598 1035 rmoveto
          -51 50 rlineto
          -15 hlineto
          -27 -21 -18 -26 -24 hhcurveto
          -23 -69 24 7 -47 hvcurveto
          -14 -6 -74 -102 rlineto
          -15 vlineto
          52 -49 rlineto
          14 hlineto
          26 21 18 27 24 hhcurveto
          24 68 -26 -6 47 hvcurveto
          15 5 73 103 rlineto
          -215 -325 rmoveto
          80 56 41 74 35 hvcurveto
          -30 55 rlineto
          -25 hlineto
          -30 -23 -38 -16 -45 hhcurveto
          -43 -39 15 31 -18 hvcurveto
          -25 hlineto
          -45 -55 rlineto
          -74 22 58 -41 80 hhcurveto
          108 -48 rmoveto
          -241 hlineto
          -276 -647 rlineto
          195 hlineto
          31 109 81 4 101 -2 rlineto
          -4 vlineto
          4 -107 rlineto
          202 hlineto
          -219 256 rmoveto
          -58 -1 -55 1 83 213 rlineto
          12 hlineto
          endchar
        </CharString>
        <CharString name="Acaron">
          72 21 -21 112 143.5 213.5 178 hstem
          -26 614 vstem
          397 712 rmoveto
          47 41 52 39 59 39 -25 75 rcurveline
          -18 hlineto
          -42 -20 -45 -20 -41 -20 -37 20 -35 20 -36 20 rrcurveto
          -18 hlineto
          -43 -75 55 -39 50 -39 43 -41 rlinecurve
          225 -712 rmoveto
          -97 647 rlineto
          -241 hlineto
          -276 -647 rlineto
          195 hlineto
          31 109 81 4 101 -2 rlineto
          -4 vlineto
          4 -107 rlineto
          -17 256 rmoveto
          -58 -1 -55 1 83 213 rlineto
          12 hlineto
          endchar
        </CharString>
        <CharString name="Acircumflex">
          72 21 -21 112 143.5 213.5 178 hstem
          -26 614 vstem
          241 720 rmoveto
          18 hlineto
          41 20 46 20 41 20 37 -20 34 -20 37 -20 rrcurveto
          18 hlineto
          43 76 -56 39 -49 38 -43 41 rlinecurve
          -34 hlineto
          -47 -41 -53 -38 -58 -39 rrcurveto
          372 -796 rmoveto
          -97 647 rlineto
          -241 hlineto
          -276 -647 rlineto
          195 hlineto
          31 109 81 4 101 -2 rlineto
          -4 vlineto
          4 -107 rlineto
          -17 256 rmoveto
          -58 -1 -55 1 83 213 rlineto
          12 hlineto
          endchar
        </CharString>
        <CharString name="Acircumflexacute">
          72 21 -21 112 143.5 213.5 178 hstem
          -26 664 vstem
          517 849 rmoveto
          11 hlineto
          110 148 -5 13 -97 41 -12 -7 -70 -149 rlineto
          -212 -194 rmoveto
          18 hlineto
          41 20 46 20 41 20 37 -20 34 -20 37 -20 rrcurveto
          18 hlineto
          42 76 -55 39 -49 38 -43 41 rlinecurve
          -34 hlineto
          -47 -41 -53 -38 -58 -39 rrcurveto
          274 -130 rmoveto
          -241 hlineto
          -276 -647 rlineto
          195 hlineto
          31 109 81 4 101 -2 rlineto
          -4 vlineto
          4 -107 rlineto
          202 hlineto
          -219 256 rmoveto
          -58 -1 -55 1 83 213 rlineto
          12 hlineto
          endchar
        </CharString>
        <CharString name="Acircumflexdotbelow">
          72 -233 198 56 -21 112 143.5 213.5 178 hstem
          179 194 vstem
          241 720 rmoveto
          18 hlineto
          41 20 46 20 41 20 37 -20 34 -20 37 -20 rrcurveto
          18 hlineto
          43 76 -56 39 -49 38 -43 41 rlinecurve
          -34 hlineto
          -47 -41 -53 -38 -58 -39 rrcurveto
          372 -796 rmoveto
          -97 647 rlineto
          -241 hlineto
          -276 -647 rlineto
          195 hlineto
          31 109 81 4 101 -2 rlineto
          -4 vlineto
          4 -107 rlineto
          -17 256 rmoveto
          -58 -1 -55 1 83 213 rlineto
          12 hlineto
          -71 -504 rmoveto
          -63 -38 -40 -64 -60 32 -34 61 62 39 39 64 60 -34 35 -59 hvcurveto
          endchar
        </CharString>
        <CharString name="Acircumflexgrave">
          72 21 -21 112 143.5 213.5 178 hstem
          -26 614 vstem
          496 849 rmoveto
          11 hlineto
          63 46 -70 149 -11 7 -98 -41 -5 -13 rlineto
          -151 -297 rmoveto
          18 hlineto
          41 20 46 20 41 20 37 -20 34 -20 37 -20 rrcurveto
          18 hlineto
          43 76 -56 39 -49 38 -43 41 rlinecurve
          -34 hlineto
          -47 -41 -53 -38 -58 -39 rrcurveto
          378 -776 rmoveto
          -97 647 rlineto
          -241 hlineto
          -276 -647 rlineto
          195 hlineto
          31 109 81 4 101 -2 rlineto
          -4 vlineto
          4 -107 rlineto
          -17 256 rmoveto
          -58 -1 -55 1 83 213 rlineto
          12 hlineto
          endchar
        </CharString>
        <CharString name="Acircumflexhookabove">
          72 21 -21 112 143.5 213.5 178 375 78 hstemhm
          490 94 hintmask 00000000
          hintmask 11111000
          462 1022 rmoveto
          16 12 -7 -16 -20 -19 -30 -32 -22 hvcurveto
          51 -76 61 37 -25 41 rlineto
          44 40 14 20 27 vvcurveto
          51 -42 33 -53 -44 -45 -23 -35 -32 vhcurveto
          27 -45 rlineto
          15 20 27 10 20 hhcurveto
          -226 -321 rmoveto
          18 hlineto
          41 20 46 20 41 20 37 -20 34 -20 37 -20 rrcurveto
          18 hlineto
          43 76 -56 39 -49 38 -43 41 rlinecurve
          -34 hlineto
          -47 -41 -53 -38 -58 -39 rrcurveto
          377 -777 rmoveto
          -97 647 rlineto
          -241 hlineto
          -276 -647 rlineto
          195 hlineto
          31 109 81 4 101 -2 rlineto
          -4 vlineto
          4 -107 rlineto
          -17 256 rmoveto
          -58 -1 -55 1 83 213 rlineto
          12 hlineto
          endchar
        </CharString>
        <CharString name="Acircumflextilde">
          72 21 -21 112 143.5 213.5 178 hstem
          -26 622 vstem
          596 1030 rmoveto
          -51 50 rlineto
          -15 hlineto
          -27 -21 -18 -26 -24 hhcurveto
          -23 -69 24 7 -47 hvcurveto
          -14 -6 -74 -102 rlineto
          -15 vlineto
          52 -49 rlineto
          14 hlineto
          26 21 18 27 24 hhcurveto
          24 68 -25 -6 47 hvcurveto
          15 5 73 102 rlineto
          -207 -253 rmoveto
          37 -20 34 -20 37 -20 rrcurveto
          18 hlineto
          42 76 -55 39 -49 38 -43 41 rlinecurve
          -34 hlineto
          -47 -41 -53 -38 -58 -39 25 -76 rcurveline
          18 hlineto
          41 20 46 20 41 20 rrcurveto
          102 -115 rmoveto
          -241 hlineto
          -276 -647 rlineto
          195 hlineto
          31 109 81 4 101 -2 rlineto
          -4 vlineto
          4 -107 rlineto
          202 hlineto
          -219 256 rmoveto
          -58 -1 -55 1 83 213 rlineto
          12 hlineto
          endchar
        </CharString>
        <CharString name="Adieresis">
          72 21 -21 112 143.5 213.5 178 71 172 hstemhm
          203 169 24 169 hintmask 11111000
          284 718 rmoveto
          54 34 35 56 52 -30 29 -51 -55 -33 -33 -56 -53 28 -30 53 hvcurveto
          hintmask 11111100
          194 hmoveto
          54 33 35 56 51 -29 30 -51 -55 -34 -33 -56 -53 29 -30 53 hvcurveto
          110 -718 rmoveto
          -97 647 rlineto
          -241 hlineto
          -276 -647 rlineto
          195 hlineto
          31 109 81 4 101 -2 rlineto
          -4 vlineto
          4 -107 rlineto
          -17 256 rmoveto
          -58 -1 -55 1 83 213 rlineto
          12 hlineto
          endchar
        </CharString>
        <CharString name="Adotbelow">
          72 -233 198 56 -21 112 143.5 213.5 178 hstem
          179 194 vstem
          588 hmoveto
          -97 647 rlineto
          -241 hlineto
          -276 -647 rlineto
          195 hlineto
          31 109 81 4 101 -2 rlineto
          -4 vlineto
          4 -107 rlineto
          -17 256 rmoveto
          -58 -1 -55 1 83 213 rlineto
          12 hlineto
          -71 -504 rmoveto
          -63 -38 -40 -64 -60 32 -34 61 62 39 39 64 60 -34 35 -59 hvcurveto
          endchar
        </CharString>
        <CharString name="Agrave">
          72 21 -21 112 143.5 213.5 178 hstem
          -26 614 vstem
          501 716 rmoveto
          30 79 -83 42 -71 38 -71 42 rlinecurve
          -17 -4 -49 -116 6 -16 86 -27 75 -22 77 -20 rlinecurve
          104 -712 rmoveto
          -97 647 rlineto
          -241 hlineto
          -276 -647 rlineto
          195 hlineto
          31 109 81 4 101 -2 rlineto
          -4 vlineto
          4 -107 rlineto
          -17 256 rmoveto
          -58 -1 -55 1 83 213 rlineto
          12 hlineto
          endchar
        </CharString>
        <CharString name="Ahookabove">
          72 21 -21 112 143.5 213.5 178 219 81 hstemhm
          358 98 hintmask 00000000
          hintmask 11111000
          328 866 rmoveto
          17 13 -7 -17 -21 -20 -31 -34 -24 hvcurveto
          54 -80 64 39 -27 43 rlineto
          47 42 14 21 29 vvcurveto
          53 -44 34 -56 -46 -47 -23 -37 -34 vhcurveto
          29 -47 rlineto
          16 21 28 10 21 hhcurveto
          260 -866 rmoveto
          -97 647 rlineto
          -241 hlineto
          -276 -647 rlineto
          195 hlineto
          31 109 81 4 101 -2 rlineto
          -4 vlineto
          4 -107 rlineto
          -17 256 rmoveto
          -58 -1 -55 1 83 213 rlineto
          12 hlineto
          endchar
        </CharString>
        <CharString name="Amacron">
          72 21 -21 112 143.5 213.5 178 99 119 hstem
          -26 614 vstem
          248 746 rmoveto
          276 hlineto
          9 107 -12 12 rlineto
          -276 hlineto
          -9 -106 rlineto
          352 -759 rmoveto
          -97 647 rlineto
          -241 hlineto
          -276 -647 rlineto
          195 hlineto
          31 109 81 4 101 -2 rlineto
          -4 vlineto
          4 -107 rlineto
          -17 256 rmoveto
          -58 -1 -55 1 83 213 rlineto
          12 hlineto
          endchar
        </CharString>
        <CharString name="Aogonek">
          72 -197 98 120 -21 112 143.5 213.5 178 hstemhm
          356 207.5 hintmask 00000000
          hintmask 11111000
          562 -79 rmoveto
          -10 hlineto
          -13 -23 -22 -7 -19 hhcurveto
          -21 -10 11 18 13 6 22 18 35 hvcurveto
          107 hlineto
          -97 647 rlineto
          -241 hlineto
          -276 -647 rlineto
          195 hlineto
          31 109 81 4 101 -2 rlineto
          -4 vlineto
          4 -107 rlineto
          -1 hlineto
          -21 -40 -8 -27 -30 vvcurveto
          -61 34 -39 60 36 34 14 32 45 vhcurveto
          -196 407 rmoveto
          -58 -1 -55 1 83 213 rlineto
          12 hlineto
          endchar
        </CharString>
        <CharString name="Aring">
          72 21 -21 112 143.5 213.5 178 66 76 64 77 hstem
          276 75 70 75 vstem
          382 713 rmoveto
          75 39 41 73 68 -35 35 -71 -75 -39 -38 -72 -71 36 -36 70 hvcurveto
          3 140 rmoveto
          26 10 -9 -24 -23 -9 -8 -25 -26 -10 9 25 22 9 8 25 hvcurveto
          203 -853 rmoveto
          -97 647 rlineto
          -241 hlineto
          -276 -647 rlineto
          195 hlineto
          31 109 81 4 101 -2 rlineto
          -4 vlineto
          4 -107 rlineto
          -17 256 rmoveto
          -58 -1 -55 1 83 213 rlineto
          12 hlineto
          endchar
        </CharString>
        <CharString name="Aringacute">
          103 21 -21 108 138.5 400.5 -20 84 78 hstem
          291 74 70 75 vstem
          301 806 rmoveto
          16 -6 79 9 77 11 89 15 rlinecurve
          8 15 -32 122 -16 6 -77 -32 -75 -29 -87 -30 rlinecurve
          335 -887 rmoveto
          -116 635 rlineto
          5 14 3 17 19 vvcurveto
          69 -35 35 -71 -74 -39 -38 -73 -15 2 -13 3 -12 vhcurveto
          -292 -638 rlineto
          195 hlineto
          30 105 82 4 100 -2 rlineto
          -4 vlineto
          5 -103 rlineto
          -17 711 rmoveto
          26 10 -9 -24 -23 -9 -8 -25 -26 -10 9 25 22 9 8 25 hvcurveto
          -2 -464 rmoveto
          -57 -1 -55 1 81 204 rlineto
          12 hlineto
          endchar
        </CharString>
        <CharString name="Atilde">
          72 21 -21 112 143.5 213.5 178 hstem
          -26 614 vstem
          246 702 rmoveto
          16 hlineto
          29 23 20 29 26 hhcurveto
          26 75 -27 -7 52 hvcurveto
          16 6 81 113 rlineto
          16 vlineto
          -57 54 rlineto
          -16 hlineto
          -29 -23 -20 -29 -26 hhcurveto
          -26 -75 27 7 -52 hvcurveto
          -16 -6 -81 -112 rlineto
          -16 vlineto
          399 -757 rmoveto
          -97 647 rlineto
          -241 hlineto
          -276 -647 rlineto
          195 hlineto
          31 109 81 4 101 -2 rlineto
          -4 vlineto
          4 -107 rlineto
          -17 256 rmoveto
          -58 -1 -55 1 83 213 rlineto
          12 hlineto
          endchar
        </CharString>
        <CharString name="B">
          76 -7 131 -103 -21 255 126.5 134.5 132 hstemhm
          399 202 -192 206 hintmask 10111000
          497 333 rmoveto
          hintmask 01110100
          80 35 38 63 66 vvcurveto
          102 -91 49 -134 vhcurveto
          -278 -1 -46 -457 -33 -190 rlineto
          hintmask 10111000
          -3 69 91 -4 58 hhcurveto
          248 102 71 132 69 -28 37 -76 31 hvcurveto
          -229 50 rmoveto
          20 133 rlineto
          17 hlineto
          hintmask 10110100
          83 21 -14 -42 -41 -21 -26 -45 -13 hvcurveto
          hintmask 10111000
          -44 -256 rmoveto
          -15 -23 2 2 -25 hvcurveto
          7 82 6 44 99 2 rlineto
          34 -12 17 -13 -31 vvcurveto
          -47 -38 -29 -62 vhcurveto
          endchar
        </CharString>
        <CharString name="C">
          -38 -11 165 342 162 hstem
          25 214 vstem
          396 658 rmoveto
          -240 -131 -149 -246 -176 104 -98 193 45 38 4 15 49 hvcurveto
          35 158 -14 9 rlineto
          -13 -38 -52 -8 -37 hhcurveto
          -74 -35 44 97 137 36 64 103 38 48 -12 -19 33 hvcurveto
          14 7 53 159 rlineto
          17 -46 -62 10 -60 hhcurveto
          endchar
        </CharString>
        <CharString name="C.ss01">
          -106 0 65 302 146 -65 65 hstemhm
          26 188 hintmask 00000000
          hintmask 11010000
          310 367 rmoveto
          28 39 -8 -13 25 hvcurveto
          hintmask 10110000
          13 7 31 95 rlineto
          128 hlineto
          7 65 rlineto
          -647 hlineto
          -7 -65 rlineto
          203 hlineto
          -67 -51 -37 -80 -105 vvcurveto
          -62 17 -50 33 -35 vhcurveto
          -197 hlineto
          -7 -65 rlineto
          647 hlineto
          7 65 rlineto
          -142 hlineto
          19 84 -13 9 rlineto
          -7 -28 -40 -4 -26 hhcurveto
          -56 -26 28 67 hvcurveto
          hintmask 11010000
          91 23 34 73 vhcurveto
          endchar
        </CharString>
        <CharString name="Cacute">
          -38 -11 165 342 162 hstem
          25 214 vstem
          464 913 rmoveto
          -17 4 -71 -42 -71 -39 -83 -41 rlinecurve
          30 -79 17 -4 77 20 75 22 86 27 rlinecurve
          6 16 rlineto
          -118 -139 rmoveto
          -239 -131 -149 -246 -176 104 -98 193 44 39 4 15 49 hvcurveto
          35 158 -14 9 rlineto
          -13 -39 -52 -8 -36 hhcurveto
          -74 -35 44 97 137 36 64 103 38 48 -12 -19 33 hvcurveto
          14 7 52 159 rlineto
          17 -46 -61 10 -61 hhcurveto
          endchar
        </CharString>
        <CharString name="Ccaron">
          -38 -11 165 342 162 hstem
          25 214 vstem
          509 906 rmoveto
          -18 hlineto
          -42 -20 -45 -20 -41 -20 -37 20 -35 20 -36 20 rrcurveto
          -18 hlineto
          -43 -75 55 -39 50 -39 43 -41 rlinecurve
          34 hlineto
          47 41 52 39 59 39 rrcurveto
          -139 -173 rmoveto
          -239 -131 -149 -246 -176 104 -98 193 44 39 4 15 49 hvcurveto
          35 158 -14 9 rlineto
          -13 -39 -52 -8 -36 hhcurveto
          -74 -35 44 97 137 36 64 103 38 48 -12 -19 33 hvcurveto
          14 7 52 159 rlineto
          17 -46 -61 10 -61 hhcurveto
          endchar
        </CharString>
        <CharString name="Ccedilla">
          -38 -208 74 -29 -21 173 165 -144 -21 24 -21 504 162 hstemhm
          25 214 72 107 hintmask 01001110
          395 658 rmoveto
          -239 -131 -149 -246 -157 83 -95 155 -19 hvcurveto
          hintmask 10001111
          -14 -70 50 -27 rlineto
          8 -4 4 -4 -7 vvcurveto
          -9 -5 -5 -11 -14 -25 10 18 -21 vhcurveto
          -8 -3 rlineto
          hintmask 01001110
          -11 -75 rlineto
          hintmask 10010111
          -15 27 30 -9 35 hhcurveto
          69 41 36 48 24 -10 21 -34 18 hvcurveto
          -34 19 6 31 35 2 33 5 40 12 rlinecurve
          hintmask 01100110
          35 158 -14 9 rlineto
          -13 -39 -52 -8 -36 hhcurveto
          -74 -35 44 97 137 36 64 103 38 48 -12 -19 33 hvcurveto
          14 7 52 159 rlineto
          hintmask 01001110
          17 -46 -61 10 -61 hhcurveto
          endchar
        </CharString>
        <CharString name="Ccircumflex">
          -38 -11 165 342 162 hstem
          25 214 vstem
          220 720 rmoveto
          18 hlineto
          41 20 46 20 41 20 37 -20 34 -20 37 -20 rrcurveto
          18 hlineto
          43 76 -56 39 -49 38 -43 41 rlinecurve
          -34 hlineto
          -47 -41 -53 -38 -58 -39 rrcurveto
          200 -138 rmoveto
          -239 -131 -149 -246 -176 104 -98 193 44 39 4 15 49 hvcurveto
          35 158 -14 9 rlineto
          -13 -39 -52 -8 -36 hhcurveto
          -74 -35 44 97 137 36 64 103 38 48 -12 -19 33 hvcurveto
          14 7 52 159 rlineto
          17 -46 -61 10 -61 hhcurveto
          endchar
        </CharString>
        <CharString name="Cdotaccent">
          -38 -11 165 342 162 49 198 hstemhm
          25 214 27 194 hintmask 00000000
          hintmask 11111000
          368 905 rmoveto
          -63 -39 -39 -64 -61 33 -34 61 62 38 40 64 60 -33 34 -59 hvcurveto
          27 -247 rmoveto
          hintmask 11110000
          -239 -131 -149 -246 -176 104 -98 193 44 39 4 15 49 hvcurveto
          35 158 -14 9 rlineto
          -13 -39 -52 -8 -36 hhcurveto
          -74 -35 44 97 137 36 64 103 38 48 -12 -19 33 hvcurveto
          14 7 52 159 rlineto
          hintmask 11111000
          17 -46 -61 10 -61 hhcurveto
          endchar
        </CharString>
        <CharString name="D">
          114 -9 148 -118 -21 496 155 hstemhm
          454 211 hintmask 10110000
          111 647 rmoveto
          -46 -457 rlineto
          hintmask 01110000
          -33 -190 rlineto
          hintmask 10110000
          -5 77 111 -4 65 hhcurveto
          248 132 154 252 163 -101 91 -170 hvcurveto
          -63 -512 rmoveto
          -21 -36 4 4 -30 hvcurveto
          5 63 42 282 rlineto
          3 29 28 1 19 hhcurveto
          60 27 -35 -93 -169 -49 -60 -74 hvcurveto
          endchar
        </CharString>
        <CharString name="D.ss01">
          22 0 65 -65 132 235 146 -65 65 hstemhm
          367 187 hintmask 10011000
          702 448 rmoveto
          7 65 rlineto
          -775 hlineto
          -7 -65 rlineto
          164 hlineto
          -29 -296 -16 -87 rlineto
          -167 hlineto
          -7 -65 rlineto
          775 hlineto
          7 65 rlineto
          -203 hlineto
          67 53 36 84 108 vvcurveto
          59 -16 46 -32 33 vhcurveto
          -281 -278 rmoveto
          hintmask 01101000
          31 195 rlineto
          2 20 16 0 16 hhcurveto
          40 19 -21 -64 -119 -34 -31 -47 -16 -25 4 4 -22 hvcurveto
          endchar
        </CharString>
        <CharString name="Dcaron">
          114 -9 148 -118 -21 496 155 hstemhm
          453 212 hintmask 10110000
          384 712 rmoveto
          47 41 52 39 59 39 -25 75 rcurveline
          -18 hlineto
          -42 -20 -45 -20 -41 -20 -37 20 -35 20 -36 20 rrcurveto
          -18 hlineto
          -43 -75 55 -39 50 -39 43 -41 rlinecurve
          -239 -65 rmoveto
          -46 -457 rlineto
          hintmask 01110000
          -33 -190 rlineto
          hintmask 10110000
          -5 77 111 -4 65 hhcurveto
          248 132 154 252 163 -101 91 -171 hvcurveto
          -63 -512 rmoveto
          -21 -35 4 4 -30 hvcurveto
          5 63 42 282 rlineto
          3 29 28 1 19 hhcurveto
          60 26 -35 -93 -169 -48 -60 -75 hvcurveto
          endchar
        </CharString>
        <CharString name="Dcroat">
          114 -9 148 -118 -21 496 155 95 119 hstemhm
          453 212 hintmask 10111000
          235 746 rmoveto
          276 hlineto
          9 107 -12 12 rlineto
          -276 hlineto
          -9 -106 rlineto
          -112 -112 rmoveto
          -46 -457 rlineto
          hintmask 01111000
          -33 -190 rlineto
          hintmask 10111000
          -5 77 111 -4 65 hhcurveto
          248 132 154 252 163 -101 91 -171 hvcurveto
          -63 -512 rmoveto
          -21 -35 4 4 -30 hvcurveto
          5 63 42 282 rlineto
          3 29 28 1 19 hhcurveto
          60 26 -35 -93 -169 -48 -60 -75 hvcurveto
          endchar
        </CharString>
        <CharString name="Delta">
          72 0 144 325 178 hstem
          -27 614 vstem
          587 hmoveto
          -98 647 rlineto
          -241 hlineto
          -275 -647 rlineto
          364 469 rmoveto
          12 hlineto
          28 -325 rlineto
          -165 hlineto
          endchar
        </CharString>
        <CharString name="E">
          -14 0 153 95 154 92 153 -14 14 hstemhm
          31 552 hintmask 11101000
          291 494 rmoveto
          103 hlineto
          158 -6 rlineto
          hintmask 11011000
          31 145 rlineto
          hintmask 11101000
          -9 14 rlineto
          -463 hlineto
          -47 -457 -33 -190 rlineto
          455 hlineto
          30 145 -9 14 -167 -6 rlineto
          -96 hlineto
          5 57 6 38 rlineto
          90 hlineto
          115 -3 30 146 -9 14 -105 -3 rlineto
          -98 hlineto
          endchar
        </CharString>
        <CharString name="Eacute">
          -14 0 153 95 154 92 153 hstem
          31 552 vstem
          245 716 rmoveto
          17 -4 77 20 75 22 86 27 rlinecurve
          6 16 -49 116 -17 4 -71 -42 -71 -39 -83 -41 rlinecurve
          76 -301 rmoveto
          104 hlineto
          158 -6 30 145 -8 14 rlineto
          -464 hlineto
          -47 -457 -33 -190 rlineto
          456 hlineto
          30 145 -9 14 -167 -6 rlineto
          -97 hlineto
          5 57 6 38 rlineto
          91 hlineto
          115 -3 30 146 -9 14 -105 -3 rlineto
          -99 hlineto
          endchar
        </CharString>
        <CharString name="Ebreve">
          -14 0 153 95 154 92 153 69 133 hstem
          31 552 vstem
          351 716 rmoveto
          86 60 44 80 37 hvcurveto
          -32 59 rlineto
          -27 hlineto
          -32 -24 -41 -18 -49 hhcurveto
          -46 -42 16 34 -19 hvcurveto
          -27 hlineto
          -48 -59 rlineto
          -80 23 62 -44 87 hhcurveto
          -60 -222 rmoveto
          104 hlineto
          158 -6 30 145 -8 14 rlineto
          -464 hlineto
          -47 -457 -33 -190 rlineto
          456 hlineto
          30 145 -9 14 -167 -6 rlineto
          -97 hlineto
          5 57 6 38 rlineto
          91 hlineto
          115 -3 30 146 -9 14 -105 -3 rlineto
          -99 hlineto
          endchar
        </CharString>
        <CharString name="Ecaron">
          -14 0 153 95 154 92 153 hstem
          31 552 vstem
          369 712 rmoveto
          47 41 52 39 59 39 -25 75 rcurveline
          -18 hlineto
          -42 -20 -45 -20 -41 -20 -37 20 -35 20 -36 20 rrcurveto
          -18 hlineto
          -43 -75 55 -39 50 -39 43 -41 rlinecurve
          -44 -218 rmoveto
          104 hlineto
          158 -6 30 145 -8 14 rlineto
          -464 hlineto
          -47 -457 -33 -190 rlineto
          456 hlineto
          30 145 -9 14 -167 -6 rlineto
          -97 hlineto
          5 57 6 38 rlineto
          91 hlineto
          115 -3 30 146 -9 14 -105 -3 rlineto
          -99 hlineto
          endchar
        </CharString>
        <CharString name="Ecircumflex">
          -14 0 153 95 154 92 153 hstem
          31 552 vstem
          213 720 rmoveto
          18 hlineto
          41 20 46 20 41 20 37 -20 34 -20 37 -20 rrcurveto
          18 hlineto
          43 76 -56 39 -49 38 -43 41 rlinecurve
          -34 hlineto
          -47 -41 -53 -38 -58 -39 rrcurveto
          103 -302 rmoveto
          104 hlineto
          158 -6 30 145 -8 14 rlineto
          -464 hlineto
          -47 -457 -33 -190 rlineto
          456 hlineto
          30 145 -9 14 -167 -6 rlineto
          -97 hlineto
          5 57 6 38 rlineto
          91 hlineto
          115 -3 30 146 -9 14 -105 -3 rlineto
          -99 hlineto
          endchar
        </CharString>
        <CharString name="Ecircumflexacute">
          -14 0 153 95 154 92 153 hstem
          31 579 vstem
          489 849 rmoveto
          11 hlineto
          110 148 -5 13 -97 41 -12 -7 -70 -149 rlineto
          -212 -194 rmoveto
          18 hlineto
          41 20 46 20 41 20 37 -20 34 -20 37 -20 rrcurveto
          18 hlineto
          42 76 -55 39 -49 38 -43 41 rlinecurve
          -34 hlineto
          -47 -41 -53 -38 -58 -39 rrcurveto
          386 -130 rmoveto
          -464 hlineto
          -47 -457 -33 -190 rlineto
          456 hlineto
          30 145 -9 14 -167 -6 rlineto
          -97 hlineto
          5 57 6 38 rlineto
          91 hlineto
          115 -3 30 146 -9 14 -105 -3 rlineto
          -99 hlineto
          13 92 rlineto
          104 hlineto
          158 -6 30 145 rlineto
          endchar
        </CharString>
        <CharString name="Ecircumflexdotbelow">
          -14 -233 198 35 153 95 154 92 153 hstem
          185 194 vstem
          213 720 rmoveto
          18 hlineto
          41 20 46 20 41 20 37 -20 34 -20 37 -20 rrcurveto
          18 hlineto
          43 76 -56 39 -49 38 -43 41 rlinecurve
          -34 hlineto
          -47 -41 -53 -38 -58 -39 rrcurveto
          103 -302 rmoveto
          104 hlineto
          158 -6 30 145 -8 14 rlineto
          -464 hlineto
          -47 -457 -33 -190 rlineto
          456 hlineto
          30 145 -9 14 -167 -6 rlineto
          -97 hlineto
          5 57 6 38 rlineto
          91 hlineto
          115 -3 30 146 -9 14 -105 -3 rlineto
          -99 hlineto
          8 -437 rmoveto
          -63 -38 -40 -64 -60 32 -34 61 62 39 39 64 60 -34 35 -59 hvcurveto
          endchar
        </CharString>
        <CharString name="Ecircumflexgrave">
          -14 0 153 95 154 92 153 hstem
          31 552 vstem
          468 849 rmoveto
          11 hlineto
          63 46 -70 149 -11 7 -98 -41 -5 -13 rlineto
          -151 -297 rmoveto
          18 hlineto
          41 20 46 20 41 20 37 -20 34 -20 37 -20 rrcurveto
          18 hlineto
          43 76 -56 39 -49 38 -43 41 rlinecurve
          -34 hlineto
          -47 -41 -53 -38 -58 -39 rrcurveto
          109 -282 rmoveto
          104 hlineto
          158 -6 30 145 -8 14 rlineto
          -464 hlineto
          -47 -457 -33 -190 rlineto
          456 hlineto
          30 145 -9 14 -167 -6 rlineto
          -97 hlineto
          5 57 6 38 rlineto
          91 hlineto
          115 -3 30 146 -9 14 -105 -3 rlineto
          -99 hlineto
          endchar
        </CharString>
        <CharString name="Ecircumflexhookabove">
          -14 0 153 95 154 92 153 375 78 hstemhm
          462 94 hintmask 00000000
          hintmask 11111000
          434 1022 rmoveto
          16 12 -7 -16 -20 -19 -30 -32 -22 hvcurveto
          51 -76 61 37 -25 41 rlineto
          44 40 14 20 27 vvcurveto
          51 -42 33 -53 -44 -45 -23 -35 -32 vhcurveto
          27 -45 rlineto
          15 20 27 10 20 hhcurveto
          -226 -321 rmoveto
          18 hlineto
          41 20 46 20 41 20 37 -20 34 -20 37 -20 rrcurveto
          18 hlineto
          43 76 -56 39 -49 38 -43 41 rlinecurve
          -34 hlineto
          -47 -41 -53 -38 -58 -39 rrcurveto
          108 -283 rmoveto
          104 hlineto
          158 -6 30 145 -8 14 rlineto
          -464 hlineto
          -47 -457 -33 -190 rlineto
          456 hlineto
          30 145 -9 14 -167 -6 rlineto
          -97 hlineto
          5 57 6 38 rlineto
          91 hlineto
          115 -3 30 146 -9 14 -105 -3 rlineto
          -99 hlineto
          endchar
        </CharString>
        <CharString name="Ecircumflextilde">
          -14 0 153 95 154 92 153 hstem
          31 552 vstem
          468 849 rmoveto
          11 hlineto
          63 46 -70 149 -11 7 -98 -41 -5 -13 rlineto
          -151 -297 rmoveto
          18 hlineto
          41 20 46 20 41 20 37 -20 34 -20 37 -20 rrcurveto
          18 hlineto
          43 76 -56 39 -49 38 -43 41 rlinecurve
          -34 hlineto
          -47 -41 -53 -38 -58 -39 rrcurveto
          109 -282 rmoveto
          104 hlineto
          158 -6 30 145 -8 14 rlineto
          -464 hlineto
          -47 -457 -33 -190 rlineto
          456 hlineto
          30 145 -9 14 -167 -6 rlineto
          -97 hlineto
          5 57 6 38 rlineto
          91 hlineto
          115 -3 30 146 -9 14 -105 -3 rlineto
          -99 hlineto
          endchar
        </CharString>
        <CharString name="Edieresis">
          -14 0 153 95 154 92 153 71 172 hstemhm
          175 169 24 169 hintmask 11111000
          256 718 rmoveto
          54 34 35 56 52 -30 29 -51 -55 -33 -33 -56 -53 28 -30 53 hvcurveto
          hintmask 11111100
          194 hmoveto
          54 33 35 56 51 -29 30 -51 -55 -34 -33 -56 -53 29 -30 53 hvcurveto
          -159 -224 rmoveto
          104 hlineto
          158 -6 30 145 -8 14 rlineto
          -464 hlineto
          -47 -457 -33 -190 rlineto
          456 hlineto
          30 145 -9 14 -167 -6 rlineto
          -97 hlineto
          5 57 6 38 rlineto
          91 hlineto
          115 -3 30 146 -9 14 -105 -3 rlineto
          -99 hlineto
          endchar
        </CharString>
        <CharString name="Edotaccent">
          -14 0 153 95 154 92 153 60 198 hstem
          259 194 vstem
          353 707 rmoveto
          62 38 40 64 60 -33 34 -59 -63 -39 -39 -64 -61 33 -34 61 hvcurveto
          -62 -213 rmoveto
          104 hlineto
          158 -6 30 145 -8 14 rlineto
          -464 hlineto
          -47 -457 -33 -190 rlineto
          456 hlineto
          30 145 -9 14 -167 -6 rlineto
          -97 hlineto
          5 57 6 38 rlineto
          91 hlineto
          115 -3 30 146 -9 14 -105 -3 rlineto
          -99 hlineto
          endchar
        </CharString>
        <CharString name="Edotbelow">
          -14 -233 198 35 153 95 154 92 153 hstem
          185 194 vstem
          291 494 rmoveto
          104 hlineto
          158 -6 30 145 -8 14 rlineto
          -464 hlineto
          -47 -457 -33 -190 rlineto
          456 hlineto
          30 145 -9 14 -167 -6 rlineto
          -97 hlineto
          5 57 6 38 rlineto
          91 hlineto
          115 -3 30 146 -9 14 -105 -3 rlineto
          -99 hlineto
          8 -437 rmoveto
          -63 -38 -40 -64 -60 32 -34 61 62 39 39 64 60 -34 35 -59 hvcurveto
          endchar
        </CharString>
        <CharString name="Egrave">
          -14 0 153 95 154 92 153 hstem
          31 552 vstem
          473 716 rmoveto
          30 79 -83 42 -71 38 -71 42 rlinecurve
          -17 -4 -49 -116 6 -16 86 -27 75 -22 77 -20 rlinecurve
          -165 -218 rmoveto
          104 hlineto
          158 -6 30 145 -8 14 rlineto
          -464 hlineto
          -47 -457 -33 -190 rlineto
          456 hlineto
          30 145 -9 14 -167 -6 rlineto
          -97 hlineto
          5 57 6 38 rlineto
          91 hlineto
          115 -3 30 146 -9 14 -105 -3 rlineto
          -99 hlineto
          endchar
        </CharString>
        <CharString name="Ehookabove">
          -14 0 153 95 154 92 153 219 81 hstemhm
          330 98 hintmask 00000000
          hintmask 11111000
          300 866 rmoveto
          17 13 -7 -17 -21 -20 -31 -34 -24 hvcurveto
          54 -80 64 39 -27 43 rlineto
          47 42 14 21 29 vvcurveto
          53 -44 34 -56 -46 -47 -23 -37 -34 vhcurveto
          29 -47 rlineto
          16 21 28 10 21 hhcurveto
          -9 -372 rmoveto
          104 hlineto
          158 -6 30 145 -8 14 rlineto
          -464 hlineto
          -47 -457 -33 -190 rlineto
          456 hlineto
          30 145 -9 14 -167 -6 rlineto
          -97 hlineto
          5 57 6 38 rlineto
          91 hlineto
          115 -3 30 146 -9 14 -105 -3 rlineto
          -99 hlineto
          endchar
        </CharString>
        <CharString name="Emacron">
          -14 0 153 95 154 92 153 99 119 hstem
          31 552 vstem
          220 746 rmoveto
          276 hlineto
          9 107 -12 12 rlineto
          -276 hlineto
          -9 -106 rlineto
          83 -265 rmoveto
          104 hlineto
          158 -6 30 145 -8 14 rlineto
          -464 hlineto
          -47 -457 -33 -190 rlineto
          456 hlineto
          30 145 -9 14 -167 -6 rlineto
          -97 hlineto
          5 57 6 38 rlineto
          91 hlineto
          115 -3 30 146 -9 14 -105 -3 rlineto
          -99 hlineto
          endchar
        </CharString>
        <CharString name="Eng">
          161 21 -21 647 -20 24 -20 hstemhm
          32 669 hintmask 10110000
          636 211 rmoveto
          65 440 -184 -11 -33 -321 rlineto
          -12 hlineto
          hintmask 11010000
          -143 328 rlineto
          -217 hlineto
          -46 -457 -34 -190 rlineto
          181 hlineto
          21 234 15 114 rlineto
          12 hlineto
          158 -348 -17 -25 -27 -19 -43 -19 rlinecurve
          -1 -16 39 -103 176 50 62 63 15 123 rlinecurve
          endchar
        </CharString>
        <CharString name="Eogonek">
          -14 -197 98 -77 -21 197 153 95 154 92 153 hstemhm
          31 552 -295 96 hintmask 01111100
          291 494 rmoveto
          104 hlineto
          158 -6 30 145 -8 14 rlineto
          -464 hlineto
          -47 -457 -33 -190 rlineto
          hintmask 01111010
          297 hlineto
          -7 -9 rlineto
          -23 -31 -10 -31 -29 vvcurveto
          -54 39 -43 65 37 32 14 32 42 vhcurveto
          hintmask 10111010
          -12 72 rlineto
          -10 hlineto
          -13 -21 -22 -7 -18 hhcurveto
          -25 -11 14 19 14 6 15 10 15 hvcurveto
          15 22 rlineto
          72 hlineto
          30 145 -9 14 -167 -6 rlineto
          -97 hlineto
          5 57 6 38 rlineto
          91 hlineto
          115 -3 30 146 -9 14 -105 -3 rlineto
          -99 hlineto
          endchar
        </CharString>
        <CharString name="Eth">
          144 -9 148 -118 -21 249 130 117 155 hstemhm
          99 178.5 207.5 211 hintmask 10111100
          142 647 rmoveto
          -27 -268 rlineto
          -79 hlineto
          -18 -117 8 -13 rlineto
          76 hlineto
          -6 -59 rlineto
          hintmask 01111100
          -33 -190 rlineto
          hintmask 10111100
          -5 77 111 -4 65 hhcurveto
          248 132 154 252 163 -101 91 -170 hvcurveto
          -64 -512 rmoveto
          -21 -35 4 4 -30 hvcurveto
          5 63 6 39 rlineto
          85 hlineto
          17 117 -7 13 rlineto
          -76 hlineto
          17 113 rlineto
          3 29 28 1 19 hhcurveto
          60 27 -35 -93 -169 -49 -60 -75 hvcurveto
          endchar
        </CharString>
        <CharString name="Etilde">
          -14 0 153 95 154 92 153 hstem
          31 552 vstem
          218 702 rmoveto
          16 hlineto
          29 23 20 29 26 hhcurveto
          26 75 -27 -7 52 hvcurveto
          16 6 81 113 rlineto
          16 vlineto
          -57 54 rlineto
          -16 hlineto
          -29 -23 -20 -29 -26 hhcurveto
          -26 -75 27 7 -52 hvcurveto
          -16 -6 -81 -112 rlineto
          -16 vlineto
          130 -263 rmoveto
          104 hlineto
          158 -6 30 145 -8 14 rlineto
          -464 hlineto
          -47 -457 -33 -190 rlineto
          456 hlineto
          30 145 -9 14 -167 -6 rlineto
          -97 hlineto
          5 57 6 38 rlineto
          91 hlineto
          115 -3 30 146 -9 14 -105 -3 rlineto
          -99 hlineto
          endchar
        </CharString>
        <CharString name="Euro">
          -103 -9 135 29 87 26 87 29 135 0 -20 hstemhm
          -8 491 hintmask 00000000
          hintmask 10110100
          357 519 rmoveto
          hintmask 10101100
          -129 -91 -59 -105 -46 hvcurveto
          -71 hlineto
          -14 -78 5 -9 rlineto
          353 hlineto
          14 80 -6 7 rlineto
          -102 hlineto
          hintmask 10110100
          20 16 22 9 29 hhcurveto
          29 37 -9 -15 24 hvcurveto
          12 7 rlineto
          hintmask 10101100
          44 133 rlineto
          hintmask 10110100
          12 -35 -45 7 -46 hhcurveto
          hintmask 10101100
          -42 -393 rmoveto
          hintmask 11101100
          -31 -21 9 20 -13 hvcurveto
          100 hlineto
          14 79 -6 8 rlineto
          -352 hlineto
          -14 -79 5 -8 rlineto
          63 hlineto
          hintmask 10101100
          -107 15 77 -57 140 hhcurveto
          32 33 2 10 38 hvcurveto
          28 132 -11 7 rlineto
          -9 -28 -43 -7 -26 hhcurveto
          endchar
        </CharString>
        <CharString name="F">
          -74 21 -21 224 153 117 153 -14 14 hstemhm
          31 520 hintmask 11101000
          291 494 rmoveto
          71 hlineto
          158 -6 rlineto
          hintmask 11011000
          31 145 rlineto
          hintmask 11101000
          -9 14 rlineto
          -431 hlineto
          -47 -457 -33 -190 rlineto
          200 hlineto
          18 210 2 14 rlineto
          59 hlineto
          127 -3 30 145 -9 14 -117 -3 rlineto
          -67 hlineto
          endchar
        </CharString>
        <CharString name="G">
          45 -12 150 361 159 hstem
          24 209 vstem
          426 658 rmoveto
          -261 -141 -144 -256 -170 103 -100 189 73 71 14 30 81 hvcurveto
          22 177 14 88 -184 -13 -10 -109 -4 -33 rlineto
          -2 -11 -9 -2 -16 hhcurveto
          -79 -31 29 93 203 57 36 89 60 42 -16 -31 58 hvcurveto
          16 hlineto
          64 176 rlineto
          19 -48 -76 11 -69 hhcurveto
          endchar
        </CharString>
        <CharString name="Gbreve">
          45 -12 150 361 159 58 133 hstem
          24 209 vstem
          541 899 rmoveto
          -27 hlineto
          -32 -24 -41 -18 -49 hhcurveto
          -46 -42 16 34 -19 hvcurveto
          -27 hlineto
          -48 -59 rlineto
          -80 23 62 -44 87 hhcurveto
          86 60 44 80 37 hvcurveto
          -148 -182 rmoveto
          -260 -141 -144 -256 -170 103 -100 189 73 70 14 30 82 hvcurveto
          22 177 14 88 -184 -13 -10 -109 -4 -33 rlineto
          -2 -11 -9 -2 -17 hhcurveto
          -78 -31 29 93 203 57 36 89 60 42 -16 -31 58 hvcurveto
          16 hlineto
          64 176 rlineto
          19 -48 -76 11 -70 hhcurveto
          endchar
        </CharString>
        <CharString name="Gcircumflex">
          45 -12 150 361 159 hstem
          24 209 vstem
          252 720 rmoveto
          18 hlineto
          41 20 46 20 41 20 37 -20 34 -20 37 -20 rrcurveto
          18 hlineto
          43 76 -56 39 -49 38 -43 41 rlinecurve
          -34 hlineto
          -47 -41 -53 -38 -58 -39 rrcurveto
          198 -138 rmoveto
          -260 -141 -144 -256 -170 103 -100 189 73 70 14 30 82 hvcurveto
          22 177 14 88 -184 -13 -10 -109 -4 -33 rlineto
          -2 -11 -9 -2 -17 hhcurveto
          -78 -31 29 93 203 57 36 89 60 42 -16 -31 58 hvcurveto
          16 hlineto
          64 176 rlineto
          19 -48 -76 11 -70 hhcurveto
          endchar
        </CharString>
        <CharString name="Gcommaaccent">
          45 -75 -21 84 150 361 159 hstemhm
          24 209 24 137 hintmask 11110000
          425 658 rmoveto
          -260 -141 -144 -256 -170 103 -100 189 73 70 14 30 82 hvcurveto
          22 177 14 88 -184 -13 -10 -109 -4 -33 rlineto
          -2 -11 -9 -2 -17 hhcurveto
          -78 -31 29 93 203 57 36 89 60 42 -16 -31 58 hvcurveto
          16 hlineto
          64 176 rlineto
          19 -48 -76 11 -70 hhcurveto
          hintmask 11111000
          -72 -691 rmoveto
          -44 -11 -41 -17 -38 -22 -1 -13 rcurveline
          20 -20 8 -20 -25 vvcurveto
          -36 -15 -29 -33 -28 vhcurveto
          2 -12 52 -45 rlineto
          90 61 41 59 67 vvcurveto
          36 -13 28 -28 27 vhcurveto
          endchar
        </CharString>
        <CharString name="Gdieresis">
          45 -12 150 361 159 60 172 hstemhm
          24 209 -19 169 24 169 hintmask 00000000
          hintmask 11101100
          302 890 rmoveto
          -55 -33 -33 -56 -53 28 -30 53 54 34 35 56 52 -30 29 -51 hvcurveto
          hintmask 11110100
          194 hmoveto
          -55 -34 -33 -56 -53 29 -30 53 54 33 35 56 51 -29 30 -51 hvcurveto
          -71 -232 rmoveto
          -260 -141 -144 -256 -170 103 -100 189 73 70 14 30 82 hvcurveto
          22 177 14 88 -184 -13 -10 -109 -4 -33 rlineto
          -2 -11 -9 -2 -17 hhcurveto
          -78 -31 29 93 203 57 36 89 60 42 -16 -31 58 hvcurveto
          16 hlineto
          64 176 rlineto
          19 -48 -76 11 -70 hhcurveto
          endchar
        </CharString>
        <CharString name="Gdotaccent">
          45 -12 150 361 159 49 198 hstem
          24 209 65 194 vstem
          400 905 rmoveto
          -63 -39 -39 -64 -61 33 -34 61 62 38 40 64 60 -33 34 -59 hvcurveto
          25 -247 rmoveto
          -260 -141 -144 -256 -170 103 -100 189 73 70 14 30 82 hvcurveto
          22 177 14 88 -184 -13 -10 -109 -4 -33 rlineto
          -2 -11 -9 -2 -17 hhcurveto
          -78 -31 29 93 203 57 36 89 60 42 -16 -31 58 hvcurveto
          16 hlineto
          64 176 rlineto
          19 -48 -76 11 -70 hhcurveto
          endchar
        </CharString>
        <CharString name="Germandbls">
          157 -12 148 -136 26 476 157 -73 -20 hstemhm
          497 202 hintmask 01101000
          413 659 rmoveto
          -206 -116 -101 -154 -16 hvcurveto
          -22 -214 -34 -190 rlineto
          200 hlineto
          18 210 29 194 rlineto
          68 8 28 30 72 hhcurveto
          27 19 -4 -8 22 hvcurveto
          -123 -158 2 -24 rlineto
          hintmask 10101000
          138 -82 38 -36 -25 vvcurveto
          -17 -12 -12 -25 -36 -52 27 48 -49 vhcurveto
          -22 -12 rlineto
          hintmask 01101000
          -49 -173 rlineto
          hintmask 10011000
          -24 52 64 -14 62 hhcurveto
          140 129 68 149 78 -48 35 -92 74 hvcurveto
          137 171 -5 23 rlineto
          hintmask 01101000
          48 -99 -77 25 -102 hhcurveto
          endchar
        </CharString>
        <CharString name="Gtilde">
          45 -12 150 361 159 hstem
          24 209 vstem
          592 861 rmoveto
          -57 54 rlineto
          -16 hlineto
          -29 -23 -20 -29 -26 hhcurveto
          -26 -75 27 7 -52 hvcurveto
          -16 -6 -81 -112 rlineto
          -16 vlineto
          57 -55 rlineto
          16 hlineto
          29 23 20 29 26 hhcurveto
          26 75 -27 -7 52 hvcurveto
          16 6 81 113 rlineto
          -167 -187 rmoveto
          -260 -141 -144 -256 -170 103 -100 189 73 70 14 30 82 hvcurveto
          22 177 14 88 -184 -13 -10 -109 -4 -33 rlineto
          -2 -11 -9 -2 -17 hhcurveto
          -78 -31 29 93 203 57 36 89 60 42 -16 -31 58 hvcurveto
          16 hlineto
          64 176 rlineto
          19 -48 -76 11 -70 hhcurveto
          endchar
        </CharString>
        <CharString name="H">
          157 21 -21 241 160 246 -20 hstem
          31 669 vstem
          700 647 rmoveto
          -203 hlineto
          -25 -245 -93 -2 -101 2 36 245 rlineto
          -203 hlineto
          -46 -457 -34 -190 rlineto
          200 hlineto
          18 210 4 29 95 3 108 -2 -5 -50 -34 -190 rlineto
          200 hlineto
          18 210 rlineto
          endchar
        </CharString>
        <CharString name="Hbar">
          191 21 -21 241 160 71 10 -10 101 -101 175 hstemhm
          46 723 hintmask 11001100
          764 472 rmoveto
          hintmask 11010100
          5 91 -8 10 rlineto
          -55 hlineto
          hintmask 11001100
          11 74 rlineto
          -203 hlineto
          hintmask 11010100
          -7 -74 rlineto
          -187 hlineto
          hintmask 11001100
          11 74 rlineto
          -203 hlineto
          hintmask 11010100
          -7 -74 rlineto
          -69 hlineto
          hintmask 11100100
          -6 -91 8 -10 rlineto
          hintmask 11001100
          56 hlineto
          -28 -282 -34 -190 rlineto
          200 hlineto
          18 210 4 29 95 3 108 -2 -5 -50 -34 -190 rlineto
          200 hlineto
          18 210 39 262 rlineto
          -195 hmoveto
          -7 -70 -93 -2 -101 2 10 70 rlineto
          endchar
        </CharString>
        <CharString name="Hcircumflex">
          157 21 -21 241 160 246 -20 hstem
          31 669 vstem
          282 720 rmoveto
          18 hlineto
          41 20 46 20 41 20 37 -20 34 -20 37 -20 rrcurveto
          18 hlineto
          43 76 -56 39 -49 38 -43 41 rlinecurve
          -34 hlineto
          -47 -41 -53 -38 -58 -39 rrcurveto
          443 -149 rmoveto
          -203 hlineto
          -25 -245 -94 -2 -100 2 36 245 rlineto
          -203 hlineto
          -46 -457 -34 -190 rlineto
          200 hlineto
          18 210 4 29 94 3 109 -2 -5 -50 -34 -190 rlineto
          200 hlineto
          18 210 rlineto
          endchar
        </CharString>
        <CharString name="I">
          -227 21 -21 647 -20 hstem
          31 283 vstem
          249 210 rmoveto
          65 437 rlineto
          -203 hlineto
          -46 -457 -34 -190 rlineto
          200 hlineto
          endchar
        </CharString>
        <CharString name="I.ss01">
          -251 0 65 383 65 hstem
          -128 564 vstem
          222 168 rmoveto
          43 280 rlineto
          164 hlineto
          7 65 rlineto
          -502 hlineto
          -7 -65 rlineto
          154 hlineto
          -29 -299 -15 -84 rlineto
          -158 hlineto
          -7 -65 rlineto
          502 hlineto
          7 65 rlineto
          -166 hlineto
          endchar
        </CharString>
        <CharString name="IJ">
          136 21 -21 505.5 141.5 -130 130 hstemhm
          31 644 -254 184 hintmask 11010000
          314 647 rmoveto
          -203 hlineto
          -46 -457 -34 -190 rlineto
          200 hlineto
          18 210 rlineto
          426 437 rmoveto
          hintmask 11001000
          -285 hlineto
          hintmask 10101000
          -24 -130 rlineto
          hintmask 11001000
          9 -13 83 3 -33 -314 -8 -63 -7 -58 -27 -32 -71 -34 rlinecurve
          -2 -15 40 -103 174 50 60 63 17 123 rlinecurve
          8 89 rlineto
          endchar
        </CharString>
        <CharString name="Iacute">
          -227 21 -21 647 -20 hstem
          31 349 vstem
          331 913 rmoveto
          -17 4 -71 -42 -71 -39 -83 -41 rlinecurve
          30 -79 17 -4 77 20 75 22 86 27 rlinecurve
          6 16 rlineto
          -131 -587 rmoveto
          65 437 rlineto
          -203 hlineto
          -46 -457 -34 -190 rlineto
          200 hlineto
          endchar
        </CharString>
        <CharString name="Iacute_J.loclNLD">
          136 21 -21 505.5 141.5 -130 130 hstemhm
          31 675 -285 184 hintmask 11010000
          119 716 rmoveto
          17 -4 77 20 75 22 86 27 rlinecurve
          6 16 -49 116 -17 4 -71 -42 -71 -39 -83 -41 rlinecurve
          617 2 rmoveto
          -49 116 -17 4 -71 -42 -71 -39 -83 -41 rlinecurve
          30 -79 17 -4 77 20 75 22 86 27 rlinecurve
          -386 -134 rmoveto
          -203 hlineto
          -46 -457 -34 -190 rlineto
          200 hlineto
          18 210 rlineto
          426 437 rmoveto
          hintmask 11001000
          -285 hlineto
          hintmask 10101000
          -24 -130 rlineto
          hintmask 11001000
          9 -13 83 3 -33 -314 -8 -63 -7 -58 -27 -32 -71 -34 rlinecurve
          -2 -15 40 -103 174 50 60 63 17 123 rlinecurve
          8 89 rlineto
          endchar
        </CharString>
        <CharString name="Ibreve">
          -227 21 -21 647 -20 89 133 hstem
          31 377 vstem
          376 899 rmoveto
          -27 hlineto
          -32 -24 -41 -18 -49 hhcurveto
          -46 -42 16 34 -19 hvcurveto
          -27 hlineto
          -48 -59 rlineto
          -80 23 62 -44 87 hhcurveto
          86 60 44 80 37 hvcurveto
          -159 -630 rmoveto
          65 437 rlineto
          -203 hlineto
          -46 -457 -34 -190 rlineto
          200 hlineto
          endchar
        </CharString>
        <CharString name="Icaron">
          -227 21 -21 647 -20 hstem
          31 370 vstem
          376 906 rmoveto
          -18 hlineto
          -42 -20 -45 -20 -41 -20 -37 20 -35 20 -36 20 rrcurveto
          -18 hlineto
          -43 -75 55 -39 50 -39 43 -41 rlinecurve
          34 hlineto
          47 41 52 39 59 39 rrcurveto
          -152 -621 rmoveto
          65 437 rlineto
          -203 hlineto
          -46 -457 -34 -190 rlineto
          200 hlineto
          endchar
        </CharString>
        <CharString name="Icircumflex">
          -227 21 -21 647 -20 hstem
          31 371 vstem
          87 720 rmoveto
          18 hlineto
          41 20 46 20 41 20 37 -20 34 -20 37 -20 rrcurveto
          18 hlineto
          43 76 -56 39 -49 38 -43 41 rlinecurve
          -34 hlineto
          -47 -41 -53 -38 -58 -39 rrcurveto
          187 -586 rmoveto
          65 437 rlineto
          -203 hlineto
          -46 -457 -34 -190 rlineto
          200 hlineto
          endchar
        </CharString>
        <CharString name="Idieresis">
          -227 21 -21 647 -20 91 172 hstemhm
          54 169 14 169 hintmask 11110000
          142 890 rmoveto
          -55 -33 -34 -56 -53 29 -29 52 54 34 35 55 52 -30 30 -51 hvcurveto
          hintmask 11111000
          184 hmoveto
          -55 -34 -34 -56 -53 29 -29 53 53 34 35 55 52 -30 30 -50 hvcurveto
          -77 -680 rmoveto
          65 437 rlineto
          -203 hlineto
          -46 -457 -34 -190 rlineto
          200 hlineto
          endchar
        </CharString>
        <CharString name="Idotaccent">
          -227 21 -21 647 -20 80 198 hstem
          133 194 vstem
          235 905 rmoveto
          -63 -39 -39 -64 -61 33 -34 61 62 38 40 64 60 -33 34 -59 hvcurveto
          14 -695 rmoveto
          65 437 rlineto
          -203 hlineto
          -46 -457 -34 -190 rlineto
          200 hlineto
          endchar
        </CharString>
        <CharString name="Idotbelow">
          -227 -233 198 56 -21 647 -20 hstem
          24 194 vstem
          249 210 rmoveto
          65 437 rlineto
          -203 hlineto
          -46 -457 -34 -190 rlineto
          200 hlineto
          -106 -35 rmoveto
          -63 -38 -40 -64 -60 32 -34 61 62 39 39 64 60 -34 35 -59 hvcurveto
          endchar
        </CharString>
        <CharString name="Igrave">
          -227 21 -21 647 -20 hstem
          31 346 vstem
          135 913 rmoveto
          -49 -116 6 -16 86 -27 75 -22 77 -20 rlinecurve
          17 4 30 79 -83 42 -71 38 -71 42 rlinecurve
          97 -707 rmoveto
          65 437 rlineto
          -203 hlineto
          -46 -457 -34 -190 rlineto
          200 hlineto
          endchar
        </CharString>
        <CharString name="Ihookabove">
          -227 21 -21 647 -20 239 81 hstemhm
          204 98 hintmask 00000000
          hintmask 11110000
          202 947 rmoveto
          -46 -47 -23 -37 -34 hvcurveto
          29 -47 rlineto
          16 21 28 10 21 hhcurveto
          17 13 -7 -17 -21 -20 -31 -34 -24 hvcurveto
          54 -80 64 39 -27 43 rlineto
          47 42 14 21 29 vvcurveto
          53 -44 34 -56 vhcurveto
          47 -737 rmoveto
          65 437 rlineto
          -203 hlineto
          -46 -457 -34 -190 rlineto
          200 hlineto
          endchar
        </CharString>
        <CharString name="Imacron">
          -227 21 -21 647 -20 119 119 hstem
          31 328 vstem
          359 853 rmoveto
          -12 12 rlineto
          -236 hlineto
          -9 -106 12 -13 rlineto
          236 hlineto
          -101 -536 rmoveto
          65 437 rlineto
          -203 hlineto
          -46 -457 -34 -190 rlineto
          200 hlineto
          endchar
        </CharString>
        <CharString name="Iogonek">
          -227 -197 98 -77 -21 218 -21 647 -20 hstemhm
          0 96 -96 314 hintmask 01110100
          314 647 rmoveto
          -203 hlineto
          hintmask 01111000
          -46 -457 -34 -190 rlineto
          1 hlineto
          -24 -38 -8 -29 -31 vvcurveto
          -56 39 -43 65 37 35 14 34 41 vhcurveto
          hintmask 10111000
          -12 73 rlineto
          -10 hlineto
          -16 -21 -25 -7 -18 hhcurveto
          -25 -10 14 17 16 6 21 20 31 hvcurveto
          109 hlineto
          18 210 rlineto
          endchar
        </CharString>
        <CharString name="Itilde">
          -227 21 -21 647 -20 hstem
          31 371 vstem
          402 858 rmoveto
          -56 54 rlineto
          -16 hlineto
          -28 -18 -17 -28 -25 hhcurveto
          -21 -57 25 7 -45 hvcurveto
          -15 -6 -72 -110 rlineto
          -16 vlineto
          56 -55 rlineto
          16 hlineto
          28 18 17 28 25 hhcurveto
          21 57 -25 -7 45 hvcurveto
          15 6 72 111 rlineto
          -153 -632 rmoveto
          65 437 rlineto
          -203 hlineto
          -46 -457 -34 -190 rlineto
          200 hlineto
          endchar
        </CharString>
        <CharString name="J">
          -192 505.5 11.5 -11.5 141.5 hstemhm
          -17 365 -254 184 hintmask 01100000
          348 647 rmoveto
          hintmask 01010000
          -285 hlineto
          hintmask 10010000
          -24 -130 rlineto
          hintmask 01010000
          9 -13 83 3 -33 -314 -8 -63 -7 -58 -27 -32 -71 -34 rlinecurve
          -2 -15 40 -103 174 50 60 63 17 123 rlinecurve
          8 89 rlineto
          endchar
        </CharString>
        <CharString name="Jcircumflex">
          -192 505.5 11.5 -11.5 141.5 hstemhm
          -17 418 -307 184 hintmask 01100000
          219 914 rmoveto
          -47 -41 -53 -38 -58 -39 25 -76 rcurveline
          18 hlineto
          41 20 46 20 41 20 37 -20 34 -20 37 -20 rrcurveto
          18 hlineto
          43 76 -56 39 -49 38 -43 41 rlinecurve
          95 -267 rmoveto
          hintmask 01010000
          -285 hlineto
          hintmask 10010000
          -24 -130 rlineto
          hintmask 01010000
          9 -13 83 3 -33 -314 -8 -63 -7 -58 -27 -32 -71 -34 rlinecurve
          -2 -15 40 -103 174 50 60 63 17 123 rlinecurve
          8 89 rlineto
          endchar
        </CharString>
        <CharString name="K">
          75 9 -21 33 -21 647 -20 hstemhm
          31 646 hintmask 01110000
          677 647 rmoveto
          -211 hlineto
          -43 -70 -149 -201 40 271 rlineto
          -203 hlineto
          -46 -457 -34 -190 rlineto
          200 hlineto
          18 210 13 88 rlineto
          hintmask 10110000
          42 -102 44 -98 45 -98 21 -12 rcurveline
          68 6 66 11 69 15 5 22 rcurveline
          -62 94 -59 95 -53 99 rrcurveto
          endchar
        </CharString>
        <CharString name="Kcommaaccent">
          75 -75 -21 105 -21 33 -21 647 -20 hstemhm
          31 645 -431 137 hintmask 10111000
          676 647 rmoveto
          -210 hlineto
          -43 -70 -149 -201 40 271 rlineto
          -203 hlineto
          -46 -457 -34 -190 rlineto
          200 hlineto
          18 210 13 87 rlineto
          hintmask 11011000
          41 -101 44 -98 46 -98 21 -12 rcurveline
          67 6 67 11 68 15 5 22 rcurveline
          -62 94 -58 95 -53 99 rrcurveto
          hintmask 10110100
          -107 -363 rmoveto
          -44 -11 -41 -17 -38 -22 -1 -13 rcurveline
          20 -20 8 -20 -25 vvcurveto
          -36 -15 -29 -33 -28 vhcurveto
          2 -12 52 -45 rlineto
          90 61 41 59 67 vvcurveto
          36 -13 28 -28 27 vhcurveto
          endchar
        </CharString>
        <CharString name="L">
          -102 0 163 -14 14 484 -20 hstemhm
          27 414 hintmask 00000000
          hintmask 01110000
          441 149 rmoveto
          hintmask 10110000
          -9 14 rlineto
          -191 hlineto
          4 47 64 437 rlineto
          -203 hlineto
          -46 -457 -33 -190 rlineto
          385 hlineto
          endchar
        </CharString>
        <CharString name="L.ss01">
          -151 0 65 383 65 hstem
          -128 663 vstem
          218 171 rmoveto
          42 277 rlineto
          269 hlineto
          6 65 rlineto
          -601 hlineto
          -7 -65 rlineto
          152 hlineto
          -29 -296 -16 -87 rlineto
          -155 hlineto
          -7 -65 rlineto
          601 hlineto
          7 65 rlineto
          -123 hlineto
          13 88 rlineto
          -154 hlineto
          endchar
        </CharString>
        <CharString name="Lacute">
          -102 0 163 -14 14 484 -20 hstemhm
          27 415 hintmask 10110000
          110 716 rmoveto
          17 -4 77 20 75 22 86 27 rlinecurve
          6 16 -49 116 -17 4 -71 -42 -71 -39 -83 -41 rlinecurve
          hintmask 01110000
          362 -646 rmoveto
          hintmask 10110000
          -9 14 rlineto
          -192 hlineto
          4 47 64 437 rlineto
          -203 hlineto
          -46 -457 -33 -190 rlineto
          385 hlineto
          endchar
        </CharString>
        <CharString name="Lcaron">
          -70 0 163 -14 14 427 -20 23 -20 74 -20 hstemhm
          27 509 hintmask 10011100
          433 163 rmoveto
          -192 hlineto
          4 47 64 437 rlineto
          -203 hlineto
          -46 -457 -33 -190 rlineto
          385 hlineto
          hintmask 01101100
          30 149 rlineto
          94 441 rmoveto
          -8 11 rlineto
          hintmask 10011100
          -139 -8 -19 -238 11 -9 83 12 rlineto
          endchar
        </CharString>
        <CharString name="Lcommaaccent">
          -102 -75 -21 96 163 -14 14 484 -20 hstemhm
          27 415 -299 137 hintmask 00000000
          hintmask 10111000
          442 149 rmoveto
          hintmask 11011000
          -9 14 rlineto
          -192 hlineto
          4 47 64 437 rlineto
          -203 hlineto
          -46 -457 -33 -190 rlineto
          385 hlineto
          hintmask 11010100
          -173 -33 rmoveto
          -44 -11 -41 -17 -38 -22 -1 -13 rcurveline
          20 -20 8 -20 -25 vvcurveto
          -36 -15 -29 -33 -28 vhcurveto
          2 -12 52 -45 rlineto
          90 61 41 59 67 vvcurveto
          36 -13 28 -28 27 vhcurveto
          endchar
        </CharString>
        <CharString name="Ldot">
          -50 0 163 -14 14 139 198 147 -20 hstemhm
          328 194 hintmask 10111000
          442 163 rmoveto
          -191 hlineto
          4 47 64 437 rlineto
          -203 hlineto
          -46 -457 -33 -190 rlineto
          384 hlineto
          hintmask 01111000
          30 149 rlineto
          -21 351 rmoveto
          -63 -39 -40 -63 -61 33 -34 61 62 38 40 64 59 -33 35 -59 hvcurveto
          endchar
        </CharString>
        <CharString name="Lslash">
          -95 0 163 -14 14 317 -20 187 -20 hstemhm
          -17 465 hintmask 00000000
          hintmask 01111000
          448 149 rmoveto
          hintmask 10111000
          -9 14 rlineto
          -191 hlineto
          4 47 12 85 132 63 -22 113 -15 9 -73 -35 30 202 rlineto
          -203 hlineto
          -30 -298 -100 -48 21 -114 15 -9 49 23 -1 -11 -33 -190 rlineto
          385 hlineto
          endchar
        </CharString>
        <CharString name="M">
          252 21 -21 361 286 0 -20 hstemhm
          594.5 165 hintmask 10110000
          746 hmoveto
          27 647 rlineto
          -227 hlineto
          -36 -99 -91 -229 rlineto
          -12 hlineto
          -29 236 -8 92 rlineto
          -231 hlineto
          -142 -647 rlineto
          167 hlineto
          35 215 rlineto
          hintmask 11010000
          33 146 rlineto
          12 hlineto
          50 -300 rlineto
          150 hlineto
          143 300 rlineto
          12 hlineto
          -9 -165 -20 -196 rlineto
          endchar
        </CharString>
        <CharString name="M.ss01">
          138 0 65 383 65 hstem
          479 142 vstem
          629 448 rmoveto
          189 hlineto
          7 65 rlineto
          -891 hlineto
          -7 -65 rlineto
          187 hlineto
          -86 -383 rlineto
          -149 hlineto
          -7 -65 rlineto
          891 hlineto
          7 65 rlineto
          -157 hlineto
          -198 383 rmoveto
          -8 -21 -48 -110 rlineto
          -10 hlineto
          -17 116 -1 15 rlineto
          132 -383 rmoveto
          -292 hlineto
          19 127 14 67 rlineto
          10 hlineto
          36 -166 rlineto
          131 hlineto
          92 166 rlineto
          9 hlineto
          -6 -81 rlineto
          endchar
        </CharString>
        <CharString name="N">
          156 21 -21 647 -20 24 -20 hstemhm
          32 669 hintmask 10110000
          636 211 rmoveto
          65 440 -184 -11 -36 -341 rlineto
          -12 hlineto
          hintmask 11010000
          -141 348 rlineto
          -217 hlineto
          -46 -457 -33 -190 rlineto
          181 hlineto
          21 234 15 114 rlineto
          12 hlineto
          140 -348 rlineto
          217 hlineto
          endchar
        </CharString>
        <CharString name="Nacute">
          156 21 -21 647 -20 24 -20 hstemhm
          32 669 hintmask 10110000
          526 913 rmoveto
          -17 4 -71 -42 -71 -39 -83 -41 rlinecurve
          30 -79 17 -4 77 20 75 22 86 27 rlinecurve
          6 16 rlineto
          61 -586 rmoveto
          65 440 -184 -11 -36 -341 rlineto
          -12 hlineto
          hintmask 11010000
          -141 348 rlineto
          -217 hlineto
          -46 -457 -33 -190 rlineto
          181 hlineto
          21 234 15 114 rlineto
          12 hlineto
          140 -348 rlineto
          217 hlineto
          endchar
        </CharString>
        <CharString name="Ncaron">
          156 21 -21 647 -20 24 -20 hstemhm
          32 669 hintmask 10110000
          571 906 rmoveto
          -18 hlineto
          -42 -20 -45 -20 -41 -20 -37 20 -35 20 -36 20 rrcurveto
          -18 hlineto
          -43 -75 55 -39 50 -39 43 -41 rlinecurve
          34 hlineto
          47 41 52 39 59 39 rrcurveto
          40 -620 rmoveto
          65 440 -184 -11 -36 -341 rlineto
          -12 hlineto
          hintmask 11010000
          -141 348 rlineto
          -217 hlineto
          -46 -457 -33 -190 rlineto
          181 hlineto
          21 234 15 114 rlineto
          12 hlineto
          140 -348 rlineto
          217 hlineto
          endchar
        </CharString>
        <CharString name="Ncommaaccent">
          156 -75 -21 117 -21 647 -20 24 -20 hstemhm
          32 669 -443 137 hintmask 11011000
          636 211 rmoveto
          65 440 -184 -11 -36 -341 rlineto
          -12 hlineto
          hintmask 11101000
          -141 348 rlineto
          -217 hlineto
          -46 -457 -33 -190 rlineto
          181 hlineto
          21 234 15 114 rlineto
          12 hlineto
          140 -348 rlineto
          217 hlineto
          hintmask 11010100
          -264 -33 rmoveto
          -44 -11 -41 -17 -38 -22 -1 -13 rcurveline
          20 -20 8 -20 -25 vvcurveto
          -36 -15 -29 -33 -28 vhcurveto
          2 -12 52 -45 rlineto
          90 61 41 59 67 vvcurveto
          36 -13 28 -28 27 vhcurveto
          endchar
        </CharString>
        <CharString name="Ntilde">
          156 21 -21 647 -20 24 -20 hstemhm
          32 669 hintmask 10110000
          622 861 rmoveto
          -57 54 rlineto
          -16 hlineto
          -29 -23 -20 -29 -26 hhcurveto
          -26 -75 27 7 -52 hvcurveto
          -16 -6 -81 -112 rlineto
          -16 vlineto
          57 -55 rlineto
          16 hlineto
          29 23 20 29 26 hhcurveto
          26 75 -27 -7 52 hvcurveto
          16 6 81 113 rlineto
          14 -634 rmoveto
          65 440 -184 -11 -36 -341 rlineto
          -12 hlineto
          hintmask 11010000
          -141 348 rlineto
          -217 hlineto
          -46 -457 -33 -190 rlineto
          181 hlineto
          21 234 15 114 rlineto
          12 hlineto
          140 -348 rlineto
          217 hlineto
          endchar
        </CharString>
        <CharString name="O">
          104 -12 147 365 159 hstem
          24 209 211 210 vstem
          380 659 rmoveto
          -230 -126 -161 -222 -198 105 -90 170 230 125 164 222 197 -104 88 -170 hvcurveto
          -23 -159 rmoveto
          71 16 -36 -102 -192 -54 -35 -70 -72 -15 36 102 192 53 35 71 hvcurveto
          endchar
        </CharString>
        <CharString name="OE">
          336 -12 147 -135 153 95 154 92 153 -147 159 -26 14 hstemhm
          24 210 hintmask 00000000
          hintmask 10101010
          402 659 rmoveto
          -231 -147 -150 -247 -174 96 -100 173 hvcurveto
          hintmask 01110010
          84 82 15 -3 64 hvcurveto
          313 hlineto
          30 145 -9 14 -167 -6 rlineto
          -96 hlineto
          5 57 4 38 rlineto
          91 hlineto
          116 -3 30 146 -9 14 -105 -3 rlineto
          -99 hlineto
          13 92 rlineto
          103 hlineto
          159 -6 rlineto
          hintmask 01100110
          31 145 rlineto
          hintmask 01110010
          -10 14 rlineto
          -321 hlineto
          hintmask 10101010
          -59 -62 12 -79 hhcurveto
          -37 -159 rmoveto
          39 20 -5 -11 9 hvcurveto
          6 -8 1 -15 -2 -26 -23 -231 rcurveline
          -2 -28 -7 -17 -10 -9 rrcurveto
          -10 -11 -21 -5 -36 hhcurveto
          -68 -26 37 92 195 47 41 84 hvcurveto
          endchar
        </CharString>
        <CharString name="Oacute">
          104 -12 147 365 159 hstem
          24 209 211 210 vstem
          499 913 rmoveto
          -17 4 -71 -42 -71 -39 -83 -41 rlinecurve
          30 -79 17 -4 77 20 75 22 86 27 rlinecurve
          6 16 rlineto
          -168 -138 rmoveto
          -230 -126 -161 -222 -198 105 -90 170 229 126 164 222 197 -105 88 -169 hvcurveto
          -23 -159 rmoveto
          71 16 -36 -102 -192 -54 -35 -70 -72 -15 36 102 192 53 35 71 hvcurveto
          endchar
        </CharString>
        <CharString name="Obreve">
          104 -12 147 365 159 57 133 hstem
          24 209 211 210 vstem
          544 899 rmoveto
          -27 hlineto
          -32 -24 -41 -18 -49 hhcurveto
          -46 -42 16 34 -19 hvcurveto
          -27 hlineto
          -48 -59 rlineto
          -80 23 62 -44 87 hhcurveto
          86 60 44 80 37 hvcurveto
          -196 -181 rmoveto
          -230 -126 -161 -222 -198 105 -90 170 229 126 164 222 197 -105 88 -169 hvcurveto
          -23 -159 rmoveto
          71 16 -36 -102 -192 -54 -35 -70 -72 -15 36 102 192 53 35 71 hvcurveto
          endchar
        </CharString>
        <CharString name="Ocaron">
          104 -12 147 365 159 hstem
          24 209 211 210 vstem
          544 906 rmoveto
          -18 hlineto
          -42 -20 -45 -20 -41 -20 -37 20 -35 20 -36 20 rrcurveto
          -18 hlineto
          -43 -75 55 -39 50 -39 43 -41 rlinecurve
          34 hlineto
          47 41 52 39 59 39 rrcurveto
          -189 -172 rmoveto
          -230 -126 -161 -222 -198 105 -90 170 229 126 164 222 197 -105 88 -169 hvcurveto
          -23 -159 rmoveto
          71 16 -36 -102 -192 -54 -35 -70 -72 -15 36 102 192 53 35 71 hvcurveto
          endchar
        </CharString>
        <CharString name="Ocircumflex">
          104 -12 147 365 159 hstem
          24 209 211 210 vstem
          255 720 rmoveto
          18 hlineto
          41 20 46 20 41 20 37 -20 34 -20 37 -20 rrcurveto
          18 hlineto
          43 76 -56 39 -49 38 -43 41 rlinecurve
          -34 hlineto
          -47 -41 -53 -38 -58 -39 rrcurveto
          150 -137 rmoveto
          -230 -126 -161 -222 -198 105 -90 170 229 126 164 222 197 -105 88 -169 hvcurveto
          -23 -159 rmoveto
          71 16 -36 -102 -192 -54 -35 -70 -72 -15 36 102 192 53 35 71 hvcurveto
          endchar
        </CharString>
        <CharString name="Ocircumflexacute">
          104 -12 147 365 159 hstem
          24 209 211 210 vstem
          647 1010 rmoveto
          -97 41 -12 -7 -70 -149 63 -46 rlineto
          11 hlineto
          110 148 rlineto
          -263 -102 rmoveto
          -47 -41 -53 -38 -58 -39 25 -76 rcurveline
          18 hlineto
          41 20 46 20 41 20 37 -20 34 -20 37 -20 rrcurveto
          18 hlineto
          42 76 -55 39 -49 38 -43 41 rlinecurve
          -43 -236 rmoveto
          -230 -126 -161 -222 -198 105 -90 170 229 126 164 222 197 -105 88 -169 hvcurveto
          -23 -159 rmoveto
          71 16 -36 -102 -192 -54 -35 -70 -72 -15 36 102 192 53 35 71 hvcurveto
          endchar
        </CharString>
        <CharString name="Ocircumflexdotbelow">
          104 -233 198 23 147 365 159 hstemhm
          24 209 -19 194 36 210 hintmask 01110100
          255 720 rmoveto
          18 hlineto
          41 20 46 20 41 20 37 -20 34 -20 37 -20 rrcurveto
          18 hlineto
          43 76 -56 39 -49 38 -43 41 rlinecurve
          -34 hlineto
          -47 -41 -53 -38 -58 -39 rrcurveto
          150 -137 rmoveto
          -230 -126 -161 -222 -198 105 -90 170 229 126 164 222 197 -105 88 -169 hvcurveto
          -23 -159 rmoveto
          71 16 -36 -102 -192 -54 -35 -70 -72 -15 36 102 192 53 35 71 hvcurveto
          hintmask 11101100
          -42 -535 rmoveto
          -63 -38 -40 -64 -60 32 -34 61 62 39 39 64 60 -34 35 -59 hvcurveto
          endchar
        </CharString>
        <CharString name="Ocircumflexgrave">
          104 -12 147 365 159 hstem
          24 209 211 210 vstem
          514 1044 rmoveto
          -11 7 -98 -41 -5 -13 110 -148 rlineto
          11 hlineto
          63 46 rlineto
          -202 -1 rmoveto
          -47 -41 -53 -38 -58 -39 25 -76 rcurveline
          18 hlineto
          41 20 46 20 41 20 37 -20 34 -20 37 -20 rrcurveto
          18 hlineto
          43 76 -56 39 -49 38 -43 41 rlinecurve
          -36 -235 rmoveto
          -230 -126 -161 -222 -198 105 -90 170 229 126 164 222 197 -105 88 -169 hvcurveto
          -23 -159 rmoveto
          71 16 -36 -102 -192 -54 -35 -70 -72 -15 36 102 192 53 35 71 hvcurveto
          endchar
        </CharString>
        <CharString name="Ocircumflexhookabove">
          104 -12 147 365 159 363 78 hstemhm
          24 209 211 210 -150 94 hintmask 00000000
          hintmask 11110100
          503 1100 rmoveto
          -44 -45 -23 -35 -32 hvcurveto
          27 -45 rlineto
          15 20 27 10 20 hhcurveto
          16 12 -7 -16 -20 -19 -30 -32 -22 hvcurveto
          51 -76 61 37 -25 41 rlineto
          44 40 14 20 27 vvcurveto
          51 -42 33 -53 vhcurveto
          -120 -205 rmoveto
          -47 -41 -53 -38 -58 -39 25 -76 rcurveline
          18 hlineto
          41 20 46 20 41 20 37 -20 34 -20 37 -20 rrcurveto
          18 hlineto
          43 76 -56 39 -49 38 -43 41 rlinecurve
          hintmask 11111000
          -37 -236 rmoveto
          -230 -126 -161 -222 -198 105 -90 170 229 126 164 222 197 -105 88 -169 hvcurveto
          -23 -159 rmoveto
          71 16 -36 -102 -192 -54 -35 -70 -72 -15 36 102 192 53 35 71 hvcurveto
          endchar
        </CharString>
        <CharString name="Ocircumflextilde">
          104 -12 147 365 159 hstem
          24 209 211 210 vstem
          610 1030 rmoveto
          -51 50 rlineto
          -15 hlineto
          -27 -21 -18 -26 -24 hhcurveto
          -23 -69 24 7 -47 hvcurveto
          -14 -6 -74 -102 rlineto
          -15 vlineto
          52 -49 rlineto
          14 hlineto
          26 21 18 27 24 hhcurveto
          24 68 -25 -6 47 hvcurveto
          15 5 73 102 rlineto
          -220 -119 rmoveto
          -47 -41 -53 -38 -58 -39 25 -76 rcurveline
          18 hlineto
          41 20 46 20 41 20 37 -20 34 -20 37 -20 rrcurveto
          18 hlineto
          42 76 -55 39 -49 38 -43 41 rlinecurve
          -44 -237 rmoveto
          -230 -126 -161 -222 -198 105 -90 170 229 126 164 222 197 -105 88 -169 hvcurveto
          -23 -159 rmoveto
          71 16 -36 -102 -192 -54 -35 -70 -72 -15 36 102 192 53 35 71 hvcurveto
          endchar
        </CharString>
        <CharString name="Odieresis">
          104 -12 147 365 159 59 172 hstemhm
          24 209 -16 169 24 169 -135 210 hintmask 00000000
          hintmask 11101010
          305 890 rmoveto
          -55 -33 -33 -56 -53 28 -30 53 54 34 35 56 52 -30 29 -51 hvcurveto
          hintmask 11110100
          194 hmoveto
          -55 -34 -33 -56 -53 29 -30 53 54 33 35 56 51 -29 30 -51 hvcurveto
          hintmask 11110010
          -119 -231 rmoveto
          -230 -126 -161 -222 -198 105 -90 170 229 126 164 222 197 -105 88 -169 hvcurveto
          -23 -159 rmoveto
          71 16 -36 -102 -192 -54 -35 -70 -72 -15 36 102 192 53 35 71 hvcurveto
          endchar
        </CharString>
        <CharString name="Odotbelow">
          104 -233 198 23 147 365 159 hstemhm
          24 209 -19 194 36 210 hintmask 01110100
          380 659 rmoveto
          -230 -126 -161 -222 -198 105 -90 170 229 126 164 222 197 -105 88 -169 hvcurveto
          -23 -159 rmoveto
          71 16 -36 -102 -192 -54 -35 -70 -72 -15 36 102 192 53 35 71 hvcurveto
          hintmask 11101100
          -42 -535 rmoveto
          -63 -38 -40 -64 -60 32 -34 61 62 39 39 64 60 -34 35 -59 hvcurveto
          endchar
        </CharString>
        <CharString name="Ograve">
          104 -12 147 365 159 hstem
          24 209 211 210 vstem
          303 913 rmoveto
          -49 -116 6 -16 86 -27 75 -22 77 -20 rlinecurve
          17 4 30 79 -83 42 -71 38 -71 42 rlinecurve
          60 -258 rmoveto
          -230 -126 -161 -222 -198 105 -90 170 229 126 164 222 197 -105 88 -169 hvcurveto
          -23 -159 rmoveto
          71 16 -36 -102 -192 -54 -35 -70 -72 -15 36 102 192 53 35 71 hvcurveto
          endchar
        </CharString>
        <CharString name="Ohm">
          211 0 147 -147 150 -137 -21 23 -21 24 -21 503 159 hstemhm
          88 205 207 213 hintmask 10000111
          428 659 rmoveto
          -217 -123 -129 -178 hvcurveto
          hintmask 01000111
          -68 18 -64 44 -68 vhcurveto
          -3 -5 rlineto
          hintmask 10000111
          -26 -1 rlineto
          hintmask 01000111
          -97 8 rlineto
          hintmask 00010111
          -41 -148 9 -12 rlineto
          hintmask 10000111
          111 6 rlineto
          185 hlineto
          hintmask 00001111
          35 -3 10 7 13 108 rlineto
          -36 56 -17 58 87 vvcurveto
          147 48 40 71 73 15 -44 -78 -86 -18 -83 -94 -97 vhcurveto
          -13 -108 8 -7 rlineto
          hintmask 10000111
          37 3 rlineto
          151 hlineto
          hintmask 00100111
          133 -8 rlineto
          hintmask 10000111
          41 153 -9 12 -88 -10 rlineto
          -51 hlineto
          -3 5 rlineto
          85 97 34 79 88 vvcurveto
          153 -103 90 -182 vhcurveto
          endchar
        </CharString>
        <CharString name="Ohookabove">
          104 -12 147 365 159 207 81 hstemhm
          24 209 139 98 -26 210 hintmask 00000000
          hintmask 11111000
          370 947 rmoveto
          -46 -47 -23 -37 -34 hvcurveto
          29 -47 rlineto
          16 21 28 10 21 hhcurveto
          17 13 -7 -17 -21 -20 -31 -34 -24 hvcurveto
          54 -80 64 39 -27 43 rlineto
          47 42 14 21 29 vvcurveto
          53 -44 34 -56 vhcurveto
          hintmask 11110100
          10 -288 rmoveto
          -230 -126 -161 -222 -198 105 -90 170 229 126 164 222 197 -105 88 -169 hvcurveto
          -23 -159 rmoveto
          71 16 -36 -102 -192 -54 -35 -70 -72 -15 36 102 192 53 35 71 hvcurveto
          endchar
        </CharString>
        <CharString name="Ohorn">
          110 -12 147 365 159 hstemhm
          24 209 212 208 -51 152 hintmask 00000000
          hintmask 11101000
          681 789 rmoveto
          -32 -37 -19 -18 -27 hvcurveto
          -5 -14 rlineto
          14 -14 8 -21 -21 vvcurveto
          -31 -17 -20 -35 vhcurveto
          -41 -49 28 -87 hhcurveto
          -200 -149 -149 -233 -190 100 -99 174 hvcurveto
          hintmask 11110000
          224 131 163 230 69 -12 50 -25 45 hvcurveto
          hintmask 11101000
          79 18 59 62 75 vvcurveto
          53 -29 36 -44 vhcurveto
          hintmask 11110000
          -325 -289 rmoveto
          76 13 -42 -94 -195 -54 -34 -68 -77 -13 41 96 192 52 36 71 hvcurveto
          endchar
        </CharString>
        <CharString name="Ohornacute">
          110 -12 147 365 159 hstemhm
          24 209 212 208 -51 152 hintmask 11110000
          499 913 rmoveto
          -17 4 -71 -42 -71 -39 -83 -41 rlinecurve
          30 -79 17 -4 77 20 75 22 86 27 rlinecurve
          6 16 rlineto
          hintmask 11101000
          133 -8 rmoveto
          -33 -36 -19 -18 -27 hvcurveto
          -5 -14 rlineto
          14 -14 8 -21 -21 vvcurveto
          -31 -17 -20 -35 vhcurveto
          -42 -48 28 -87 hhcurveto
          -200 -149 -149 -233 -190 100 -99 174 hvcurveto
          hintmask 11110000
          223 132 163 230 69 -12 50 -25 45 hvcurveto
          hintmask 11101000
          79 18 59 62 75 vvcurveto
          53 -29 36 -44 vhcurveto
          hintmask 11110000
          -325 -289 rmoveto
          76 13 -42 -94 -195 -54 -34 -68 -77 -13 41 96 192 52 36 71 hvcurveto
          endchar
        </CharString>
        <CharString name="Ohorndotbelow">
          110 -233 198 23 147 365 159 hstemhm
          24 209 -19 194 37 208 -51 152 hintmask 00000000
          hintmask 01110010
          681 789 rmoveto
          -33 -36 -19 -18 -27 hvcurveto
          -5 -14 rlineto
          14 -14 8 -21 -21 vvcurveto
          -31 -17 -20 -35 vhcurveto
          -42 -48 28 -87 hhcurveto
          -200 -149 -149 -233 -190 100 -99 174 hvcurveto
          hintmask 01110100
          223 132 163 230 69 -12 50 -25 45 hvcurveto
          hintmask 01110010
          79 18 59 62 75 vvcurveto
          53 -29 36 -44 vhcurveto
          hintmask 01110100
          -325 -289 rmoveto
          76 13 -42 -94 -195 -54 -34 -68 -77 -13 41 96 192 52 36 71 hvcurveto
          hintmask 11101100
          -41 -535 rmoveto
          -63 -38 -40 -64 -60 32 -34 61 62 39 39 64 60 -34 35 -59 hvcurveto
          endchar
        </CharString>
        <CharString name="Ohorngrave">
          110 -12 147 365 159 hstemhm
          24 209 212 208 -51 152 hintmask 11110000
          303 913 rmoveto
          -49 -116 6 -16 86 -27 75 -22 77 -20 rlinecurve
          17 4 30 79 -83 42 -71 38 -71 42 rlinecurve
          hintmask 11101000
          361 -128 rmoveto
          -33 -36 -19 -18 -27 hvcurveto
          -5 -14 rlineto
          14 -14 8 -21 -21 vvcurveto
          -31 -17 -20 -35 vhcurveto
          -42 -48 28 -87 hhcurveto
          -200 -149 -149 -233 -190 100 -99 174 hvcurveto
          hintmask 11110000
          223 132 163 230 69 -12 50 -25 45 hvcurveto
          hintmask 11101000
          79 18 59 62 75 vvcurveto
          53 -29 36 -44 vhcurveto
          hintmask 11110000
          -325 -289 rmoveto
          76 13 -42 -94 -195 -54 -34 -68 -77 -13 41 96 192 52 36 71 hvcurveto
          endchar
        </CharString>
        <CharString name="Ohornhookabove">
          110 -12 147 365 159 207 81 hstemhm
          24 209 139 98 -25 208 -51 152 hintmask 00000000
          hintmask 11111010
          370 947 rmoveto
          -46 -47 -23 -37 -34 hvcurveto
          29 -47 rlineto
          16 21 28 10 21 hhcurveto
          17 13 -7 -17 -21 -20 -31 -34 -24 hvcurveto
          54 -80 64 39 -27 43 rlineto
          47 42 14 21 29 vvcurveto
          53 -44 34 -56 vhcurveto
          311 -158 rmoveto
          -33 -36 -19 -18 -27 hvcurveto
          -5 -14 rlineto
          14 -14 8 -21 -21 vvcurveto
          -31 -17 -20 -35 vhcurveto
          -42 -48 28 -87 hhcurveto
          -200 -149 -149 -233 -190 100 -99 174 hvcurveto
          hintmask 11110100
          223 132 163 230 69 -12 50 -25 45 hvcurveto
          hintmask 11110010
          79 18 59 62 75 vvcurveto
          hintmask 11111010
          53 -29 36 -44 vhcurveto
          hintmask 11110100
          -325 -289 rmoveto
          76 13 -42 -94 -195 -54 -34 -68 -77 -13 41 96 192 52 36 71 hvcurveto
          endchar
        </CharString>
        <CharString name="Ohorntilde">
          110 -12 147 365 159 hstemhm
          24 209 212 208 -51 152 hintmask 11110000
          595 861 rmoveto
          -57 54 rlineto
          -16 hlineto
          -29 -23 -20 -29 -26 hhcurveto
          -26 -75 27 7 -52 hvcurveto
          -16 -6 -81 -112 rlineto
          -16 vlineto
          57 -55 rlineto
          16 hlineto
          29 23 20 29 26 hhcurveto
          26 75 -27 -7 52 hvcurveto
          16 6 81 113 rlineto
          hintmask 11101000
          86 -56 rmoveto
          -33 -36 -19 -18 -27 hvcurveto
          -5 -14 rlineto
          14 -14 8 -21 -21 vvcurveto
          -31 -17 -20 -35 vhcurveto
          -42 -48 28 -87 hhcurveto
          -200 -149 -149 -233 -190 100 -99 174 hvcurveto
          hintmask 11110000
          223 132 163 230 69 -12 50 -25 45 hvcurveto
          hintmask 11101000
          79 18 59 62 75 vvcurveto
          53 -29 36 -44 vhcurveto
          hintmask 11110000
          -325 -289 rmoveto
          76 13 -42 -94 -195 -54 -34 -68 -77 -13 41 96 192 52 36 71 hvcurveto
          endchar
        </CharString>
        <CharString name="Ohungarumlaut">
          104 -12 147 365 159 hstem
          24 209 211 210 vstem
          271 711 rmoveto
          16 5 45 39 44 41 42 42 rlinecurve
          -3 14 -90 57 -14 -3 -31 -51 -34 -49 -34 -49 rlinecurve
          228 -46 rmoveto
          15 5 45 39 44 41 43 42 rlinecurve
          -3 14 -91 57 -13 -3 -32 -51 -34 -49 -33 -49 rlinecurve
          -1 -98 rmoveto
          -230 -126 -161 -222 -198 105 -90 170 229 126 164 222 197 -105 88 -169 hvcurveto
          -23 -159 rmoveto
          71 16 -36 -102 -192 -54 -35 -70 -72 -15 36 102 192 53 35 71 hvcurveto
          endchar
        </CharString>
        <CharString name="Omacron">
          104 -12 147 365 159 87 119 hstem
          24 209 211 210 vstem
          547 853 rmoveto
          -12 12 rlineto
          -276 hlineto
          -9 -106 12 -13 rlineto
          276 hlineto
          -158 -87 rmoveto
          -230 -126 -161 -222 -198 105 -90 170 229 126 164 222 197 -105 88 -169 hvcurveto
          -23 -159 rmoveto
          71 16 -36 -102 -192 -54 -35 -70 -72 -15 36 102 192 53 35 71 hvcurveto
          endchar
        </CharString>
        <CharString name="Omega">
          211 0 147 -147 150 -137 -21 23 -21 24 -21 503 159 hstemhm
          87 205 208 212 hintmask 10000111
          428 659 rmoveto
          -218 -123 -129 -178 hvcurveto
          hintmask 01000111
          -68 18 -64 44 -68 vhcurveto
          -3 -5 rlineto
          hintmask 10000111
          -26 -1 rlineto
          hintmask 01000111
          -97 8 rlineto
          hintmask 00010111
          -41 -148 9 -12 rlineto
          hintmask 10000111
          111 6 rlineto
          186 hlineto
          hintmask 00001111
          35 -3 9 7 13 108 rlineto
          -36 56 -17 58 87 vvcurveto
          147 48 40 71 73 16 -44 -78 -86 -19 -83 -94 -97 vhcurveto
          -13 -108 8 -7 rlineto
          hintmask 10000111
          37 3 rlineto
          152 hlineto
          hintmask 00100111
          132 -8 rlineto
          hintmask 10000111
          41 153 -9 12 -88 -10 rlineto
          -51 hlineto
          -3 5 rlineto
          85 97 34 79 88 vvcurveto
          153 -102 90 -182 vhcurveto
          endchar
        </CharString>
        <CharString name="Oogonek">
          104 -197 98 -77 -21 185 147 365 159 hstemhm
          24 209 102 96 13 210 hintmask 00000000
          hintmask 10111010
          538 -79 rmoveto
          -10 hlineto
          hintmask 10111110
          -13 -21 -22 -7 -18 hhcurveto
          -25 -11 14 19 14 6 15 10 15 hvcurveto
          37 55 rlineto
          hintmask 01111010
          111 64 59 125 152 vvcurveto
          197 -105 88 -169 -230 -126 -161 -222 -198 105 -90 170 vhcurveto
          hintmask 01111110
          25 24 2 4 22 hvcurveto
          -2 -3 rlineto
          -23 -31 -10 -31 -29 vvcurveto
          -54 39 -43 65 37 32 14 32 42 vhcurveto
          -317 424 rmoveto
          192 53 35 71 vhcurveto
          hintmask 01111010
          71 16 -36 -102 -192 -54 -35 -70 hvcurveto
          hintmask 01111110
          -72 -15 36 102 hvcurveto
          endchar
        </CharString>
        <CharString name="Oslash">
          104 -12 147 -118 -21 504 159 -65 -20 75 -20 hstemhm
          24 209 211 210 hintmask 10100110
          633 687 rmoveto
          -9 19 -94 46 rlineto
          hintmask 10001110
          -62 -103 rlineto
          hintmask 01100110
          7 -27 -29 3 -32 hhcurveto
          -230 -126 -161 -222 -105 30 -75 53 -47 hvcurveto
          -73 -120 6 -17 97 -47 79 131 rlineto
          hintmask 10010110
          -5 26 27 -3 30 hhcurveto
          229 126 164 222 101 -28 72 -49 47 hvcurveto
          -257 -459 rmoveto
          -72 -15 36 102 hvcurveto
          hintmask 10100110
          192 53 35 71 71 16 -36 -102 vhcurveto
          hintmask 10010110
          -192 -54 -35 -70 vhcurveto
          endchar
        </CharString>
        <CharString name="Oslashacute">
          104 -12 147 -118 -21 504 159 -65 -20 75 -20 hstemhm
          24 209 211 210 hintmask 10100110
          273 719 rmoveto
          17 -4 77 20 75 22 86 27 rlinecurve
          6 16 -49 116 -17 4 -71 -42 -71 -39 -83 -41 rlinecurve
          390 -111 rmoveto
          -9 19 -94 46 rlineto
          hintmask 10001110
          -62 -103 rlineto
          hintmask 01100110
          7 -27 -29 3 -32 hhcurveto
          -230 -126 -161 -222 -105 30 -75 53 -47 hvcurveto
          -73 -120 6 -17 97 -47 79 131 rlineto
          hintmask 10010110
          -5 26 27 -3 30 hhcurveto
          229 126 164 222 101 -28 72 -49 47 hvcurveto
          -257 -459 rmoveto
          -72 -15 36 102 hvcurveto
          hintmask 10100110
          192 53 35 71 71 16 -36 -102 vhcurveto
          hintmask 10010110
          -192 -54 -35 -70 vhcurveto
          endchar
        </CharString>
        <CharString name="Otilde">
          104 -12 147 365 159 hstem
          24 209 211 210 vstem
          595 861 rmoveto
          -57 54 rlineto
          -16 hlineto
          -29 -23 -20 -29 -26 hhcurveto
          -26 -75 27 7 -52 hvcurveto
          -16 -6 -81 -112 rlineto
          -16 vlineto
          57 -55 rlineto
          16 hlineto
          29 23 20 29 26 hhcurveto
          26 75 -27 -7 52 hvcurveto
          16 6 81 113 rlineto
          -215 -186 rmoveto
          -230 -126 -161 -222 -198 105 -90 170 229 126 164 222 197 -105 88 -169 hvcurveto
          -23 -159 rmoveto
          71 16 -36 -102 -192 -54 -35 -70 -72 -15 36 102 192 53 35 71 hvcurveto
          endchar
        </CharString>
        <CharString name="P">
          39 21 -21 183 142 185 138 hstem
          408 212 vstem
          111 647 rmoveto
          -46 -457 -33 -190 rlineto
          200 hlineto
          16 183 rlineto
          58 hlineto
          189 125 118 170 113 -81 64 -132 hvcurveto
          -140 -321 rmoveto
          27 180 36 3 rlineto
          53 -3 25 -22 -47 vvcurveto
          -55 -18 -35 -49 -25 vhcurveto
          endchar
        </CharString>
        <CharString name="Q">
          108 -12 147 365 159 hstem
          24 209 211 210 vstem
          698 -61 rmoveto
          -74 26 -71 32 -67 38 rrcurveto
          109 65 59 123 151 vvcurveto
          197 -101 88 -170 -230 -129 -161 -222 -198 102 -90 170 vhcurveto
          3 hlineto
          82 -78 93 -66 105 -56 14 7 rcurveline
          45 36 35 42 31 48 rrcurveto
          -471 352 rmoveto
          192 53 35 71 71 16 -36 -102 -192 -54 -35 -70 -72 -15 36 102 vhcurveto
          endchar
        </CharString>
        <CharString name="R">
          76 9 -21 33 -21 193 144 173 138 hstemhm
          408 214 hintmask 01111000
          622 475 rmoveto
          111 -83 62 -132 vhcurveto
          -296 -1 -46 -457 -34 -190 rlineto
          200 hlineto
          17 193 rlineto
          68 hlineto
          hintmask 10111000
          20 -64 22 -63 21 -62 17 -16 rcurveline
          69 4 68 13 68 20 5 22 rcurveline
          -42 67 -38 68 -36 68 rrcurveto
          hintmask 01111000
          83 53 49 81 91 vvcurveto
          -214 -33 rmoveto
          -52 -17 -34 -50 -21 vhcurveto
          -73 4 25 168 37 3 rlineto
          54 -3 24 -20 -45 vvcurveto
          endchar
        </CharString>
        <CharString name="Racute">
          76 9 -21 33 -21 193 144 173 138 hstemhm
          408 213 hintmask 01111000
          287 697 rmoveto
          17 -1 72 33 70 35 81 41 rlinecurve
          3 17 -69 106 -17 1 -63 -54 -63 -51 -75 -55 rlinecurve
          378 -294 rmoveto
          111 -82 62 -132 vhcurveto
          -296 -1 -46 -457 -34 -190 rlineto
          200 hlineto
          17 193 rlineto
          68 hlineto
          hintmask 10111000
          20 -64 22 -63 21 -62 17 -16 rcurveline
          69 4 68 13 68 20 5 22 rcurveline
          -42 67 -38 68 -36 68 rrcurveto
          hintmask 01111000
          83 54 48 80 91 vvcurveto
          -213 -33 rmoveto
          -52 -18 -34 -49 -21 vhcurveto
          -73 4 25 168 36 3 rlineto
          55 -3 24 -20 -45 vvcurveto
          endchar
        </CharString>
        <CharString name="Rcaron">
          76 9 -21 33 -21 193 144 173 138 hstemhm
          408 213 hintmask 01111000
          388 701 rmoveto
          63 55 61 54 54 41 -38 71 rcurveline
          -18 hlineto
          -47 -28 -48 -28 -31 -22 -26 22 -37 28 -40 28 rrcurveto
          -18 hlineto
          -56 -71 51 -49 55 -54 41 -47 rlinecurve
          267 -226 rmoveto
          111 -82 62 -132 vhcurveto
          -296 -1 -46 -457 -34 -190 rlineto
          200 hlineto
          17 193 rlineto
          68 hlineto
          hintmask 10111000
          20 -64 22 -63 21 -62 17 -16 rcurveline
          69 4 68 13 68 20 5 22 rcurveline
          -42 67 -38 68 -36 68 rrcurveto
          hintmask 01111000
          83 54 48 80 91 vvcurveto
          -213 -33 rmoveto
          -52 -18 -34 -49 -21 vhcurveto
          -73 4 25 168 36 3 rlineto
          55 -3 24 -20 -45 vvcurveto
          endchar
        </CharString>
        <CharString name="Rcommaaccent">
          76 -75 -21 105 -21 33 -21 193 144 173 138 hstemhm
          218 137 53 213 hintmask 10111110
          621 475 rmoveto
          111 -82 62 -132 vhcurveto
          -296 -1 -46 -457 -34 -190 rlineto
          200 hlineto
          17 193 rlineto
          68 hlineto
          hintmask 11011110
          20 -64 22 -63 21 -62 17 -16 rcurveline
          69 4 68 13 68 20 5 22 rcurveline
          -42 67 -38 68 -36 68 rrcurveto
          hintmask 10111110
          83 54 48 80 91 vvcurveto
          -213 -33 rmoveto
          -52 -18 -34 -49 -21 vhcurveto
          -73 4 25 168 36 3 rlineto
          55 -3 24 -20 -45 vvcurveto
          -94 -475 rmoveto
          -44 -11 -41 -17 -38 -22 -1 -13 rcurveline
          20 -20 8 -20 -25 vvcurveto
          -36 -15 -29 -33 -28 vhcurveto
          2 -12 52 -45 rlineto
          90 61 41 59 67 vvcurveto
          36 -13 28 -28 27 vhcurveto
          endchar
        </CharString>
        <CharString name="S">
          -26 -12 147 371 153 hstem
          59 201 40 204 vstem
          350 659 rmoveto
          -168 -123 -105 -134 hvcurveto
          -176 241 3 -76 vvcurveto
          -17 -12 -19 -43 -44 -75 26 50 -60 vhcurveto
          -21 -12 -48 -173 rlineto
          -25 71 72 -13 68 hhcurveto
          177 119 107 127 hvcurveto
          174 -244 3 71 vvcurveto
          20 20 16 34 33 57 -21 -35 53 vhcurveto
          28 12 50 162 rlineto
          26 -66 -66 9 -53 hhcurveto
          endchar
        </CharString>
        <CharString name="Sacute">
          -26 -12 147 371 153 hstem
          60 201 40 204 vstem
          414 928 rmoveto
          -17 1 -63 -54 -63 -51 -75 -55 rlinecurve
          44 -72 17 -1 72 33 70 35 81 41 rlinecurve
          3 17 rlineto
          -132 -163 rmoveto
          -168 -123 -105 -134 hvcurveto
          -176 241 3 -76 vvcurveto
          -17 -12 -19 -44 -43 -76 26 50 -59 vhcurveto
          -21 -12 -48 -173 rlineto
          -25 71 72 -13 68 hhcurveto
          177 119 107 127 hvcurveto
          174 -244 3 71 vvcurveto
          20 20 16 34 33 57 -21 -35 52 vhcurveto
          29 12 50 162 rlineto
          26 -66 -66 9 -53 hhcurveto
          endchar
        </CharString>
        <CharString name="Scaron">
          -26 -12 147 371 153 hstem
          60 201 40 204 vstem
          481 922 rmoveto
          -18 hlineto
          -47 -28 -48 -28 -31 -22 -26 22 -37 28 -40 28 rrcurveto
          -18 hlineto
          -56 -71 51 -49 55 -54 41 -47 rlinecurve
          34 hlineto
          63 55 61 54 54 41 rrcurveto
          -168 -192 rmoveto
          -168 -123 -105 -134 hvcurveto
          -176 241 3 -76 vvcurveto
          -17 -12 -19 -44 -43 -76 26 50 -59 vhcurveto
          -21 -12 -48 -173 rlineto
          -25 71 72 -13 68 hhcurveto
          177 119 107 127 hvcurveto
          174 -244 3 71 vvcurveto
          20 20 16 34 33 57 -21 -35 52 vhcurveto
          29 12 50 162 rlineto
          26 -66 -66 9 -53 hhcurveto
          endchar
        </CharString>
        <CharString name="Scedilla">
          -26 -208 74 -29 -21 194 -21 22 -21 516 153 hstemhm
          60 201 -41 107 -26 204 hintmask 01011101
          261 470 rmoveto
          20 20 16 34 33 57 -21 -35 52 vhcurveto
          29 12 50 162 rlineto
          26 -66 -66 9 -53 hhcurveto
          -168 -123 -105 -134 hvcurveto
          -176 241 3 -76 vvcurveto
          -17 -12 -19 -44 -43 -76 26 50 -59 vhcurveto
          -21 -12 rlineto
          hintmask 10101010
          -48 -173 58 -20 59 -13 56 -4 rlinecurve
          -13 -67 50 -27 rlineto
          8 -4 4 -4 -7 vvcurveto
          -9 -5 -5 -11 -14 -25 10 18 -21 vhcurveto
          -8 -3 rlineto
          hintmask 01011101
          -11 -75 rlineto
          hintmask 10011010
          -15 27 30 -9 35 hhcurveto
          69 41 36 48 24 -10 21 -34 18 hvcurveto
          -34 19 6 32 rlineto
          hintmask 01011101
          151 17 99 99 116 174 -244 3 71 vvcurveto
          endchar
        </CharString>
        <CharString name="Scircumflex">
          -26 -12 147 371 153 hstem
          60 201 40 204 vstem
          198 705 rmoveto
          18 hlineto
          47 28 46 28 31 22 26 -22 39 -28 40 -28 rrcurveto
          18 hlineto
          56 72 -51 48 -55 54 -41 47 rlinecurve
          -34 hlineto
          -63 -55 -61 -53 -54 -41 rrcurveto
          191 -118 rmoveto
          -168 -123 -105 -134 hvcurveto
          -176 241 3 -76 vvcurveto
          -17 -12 -19 -44 -43 -76 26 50 -59 vhcurveto
          -21 -12 -48 -173 rlineto
          -25 71 72 -13 68 hhcurveto
          177 119 107 127 hvcurveto
          174 -244 3 71 vvcurveto
          20 20 16 34 33 57 -21 -35 52 vhcurveto
          29 12 50 162 rlineto
          26 -66 -66 9 -53 hhcurveto
          endchar
        </CharString>
        <CharString name="Scommaaccent">
          -26 -75 -21 84 147 371 153 hstemhm
          60 201 -94 137 -3 204 hintmask 11110100
          351 659 rmoveto
          -168 -123 -105 -134 hvcurveto
          -176 241 3 -76 vvcurveto
          -17 -12 -19 -44 -43 -76 26 50 -59 vhcurveto
          -21 -12 -48 -173 rlineto
          -25 71 72 -13 68 hhcurveto
          177 119 107 127 hvcurveto
          174 -244 3 71 vvcurveto
          20 20 16 34 33 57 -21 -35 52 vhcurveto
          29 12 50 162 rlineto
          26 -66 -66 9 -53 hhcurveto
          hintmask 11101000
          -88 -692 rmoveto
          -44 -11 -41 -17 -38 -22 -1 -13 rcurveline
          20 -20 8 -20 -25 vvcurveto
          -36 -15 -29 -33 -28 vhcurveto
          2 -12 52 -45 rlineto
          90 61 41 59 67 vvcurveto
          36 -13 28 -28 27 vhcurveto
          endchar
        </CharString>
        <CharString name="T">
          -36 21 -21 494 153 -14 14 hstemhm
          40 520 hintmask 00000000
          hintmask 10110000
          560 633 rmoveto
          hintmask 11010000
          -9 14 rlineto
          -482 hlineto
          -29 -145 10 -14 134 6 rlineto
          13 hlineto
          -32 -304 -34 -190 rlineto
          199 hlineto
          18 210 40 284 rlineto
          13 hlineto
          131 -6 rlineto
          endchar
        </CharString>
        <CharString name="Tbar">
          -36 21 -21 235 100 159 153 -14 14 hstemhm
          40 520 hintmask 11101000
          388 494 rmoveto
          13 hlineto
          130 -6 rlineto
          hintmask 11011000
          29 145 rlineto
          hintmask 11101000
          -9 14 rlineto
          -482 hlineto
          -29 -145 10 -14 134 6 rlineto
          13 hlineto
          -17 -159 rlineto
          -93 hlineto
          -7 -87 12 -13 rlineto
          78 hlineto
          -5 -45 -34 -190 rlineto
          199 hlineto
          18 210 4 25 rlineto
          100 hlineto
          7 87 -12 13 rlineto
          -81 hlineto
          endchar
        </CharString>
        <CharString name="Tcaron">
          -36 21 -21 494 153 -14 14 hstemhm
          40 520 hintmask 11010000
          331 701 rmoveto
          63 55 61 54 54 41 -38 71 rcurveline
          -18 hlineto
          -47 -28 -48 -28 -31 -22 -26 22 -37 28 -40 28 rrcurveto
          -18 hlineto
          -56 -71 51 -49 55 -54 41 -47 rlinecurve
          hintmask 10110000
          263 -68 rmoveto
          hintmask 11010000
          -9 14 rlineto
          -482 hlineto
          -29 -145 10 -14 134 6 rlineto
          13 hlineto
          -32 -304 -34 -190 rlineto
          199 hlineto
          18 210 40 284 rlineto
          13 hlineto
          130 -6 rlineto
          endchar
        </CharString>
        <CharString name="Tcedilla">
          -36 -202 72 151 -21 494 153 -14 14 hstemhm
          40 520 -325 103 hintmask 00000000
          hintmask 11011000
          560 633 rmoveto
          hintmask 11101000
          -9 14 rlineto
          -482 hlineto
          -29 -145 10 -14 134 6 rlineto
          13 hlineto
          -32 -304 -34 -190 rlineto
          hintmask 11100100
          59 hlineto
          -15 -76 49 -26 rlineto
          7 -4 4 -4 -7 vvcurveto
          -8 -5 -5 -10 -14 -24 10 17 -21 vhcurveto
          -7 -3 -11 -73 rlineto
          -14 26 29 -9 34 hhcurveto
          67 39 35 47 23 -10 20 -32 18 hvcurveto
          -33 18 8 41 rlineto
          59 hlineto
          18 210 40 284 rlineto
          13 hlineto
          130 -6 rlineto
          endchar
        </CharString>
        <CharString name="Tcommaaccent">
          -36 -75 -21 117 -21 494 153 -14 14 hstemhm
          40 520 -399 137 hintmask 00000000
          hintmask 11011000
          560 633 rmoveto
          hintmask 11101000
          -9 14 rlineto
          -482 hlineto
          -29 -145 10 -14 134 6 rlineto
          13 hlineto
          -32 -304 -34 -190 rlineto
          199 hlineto
          18 210 40 284 rlineto
          13 hlineto
          130 -6 rlineto
          hintmask 11100100
          -274 -521 rmoveto
          -44 -11 -41 -17 -38 -22 -1 -13 rcurveline
          20 -20 8 -20 -25 vvcurveto
          -36 -15 -29 -33 -28 vhcurveto
          2 -12 52 -45 rlineto
          90 61 41 59 67 vvcurveto
          36 -13 28 -28 27 vhcurveto
          endchar
        </CharString>
        <CharString name="Thorn">
          49 21 -21 101 138.5 178.5 138 91 -20 hstem
          408 208 vstem
          302 556 rmoveto
          14 91 rlineto
          -205 hlineto
          -46 -457 -34 -190 rlineto
          202 hlineto
          9 101 rlineto
          66 hlineto
          185 123 115 167 111 -79 62 -130 hvcurveto
          -151 -314 rmoveto
          26 174 50 4 rlineto
          52 -3 24 -20 -46 vvcurveto
          -54 -17 -36 -49 -24 vhcurveto
          endchar
        </CharString>
        <CharString name="U">
          99 -12 157 502 -20 hstem
          45 192 vstem
          610 319 rmoveto
          47 328 rlineto
          -203 hlineto
          -40 -404 rlineto
          -69 -7 -30 -29 -63 hhcurveto
          -54 -23 21 50 8 1 9 1 10 hvcurveto
          58 404 rlineto
          -200 hlineto
          -34 -328 -15 -103 rlineto
          -2 -15 -1 -15 -13 vvcurveto
          -120 95 -65 157 180 101 81 147 19 vhcurveto
          endchar
        </CharString>
        <CharString name="Uacute">
          99 -12 157 502 -20 hstem
          45 192 vstem
          497 913 rmoveto
          -17 4 -71 -42 -71 -39 -83 -41 rlinecurve
          30 -79 17 -4 77 20 75 22 86 27 rlinecurve
          6 16 rlineto
          64 -478 rmoveto
          47 328 rlineto
          -203 hlineto
          -40 -404 rlineto
          -69 -7 -30 -29 -64 hhcurveto
          -53 -23 21 50 8 1 9 1 10 hvcurveto
          58 404 rlineto
          -200 hlineto
          -34 -328 -15 -103 rlineto
          -2 -15 -1 -15 -13 vvcurveto
          -120 95 -65 157 180 101 81 147 19 vhcurveto
          endchar
        </CharString>
        <CharString name="Ubreve">
          99 -12 157 502 -20 83 134 hstem
          45 192 vstem
          542 907 rmoveto
          -27 hlineto
          -40 -24 -45 -23 -49 hhcurveto
          -48 -40 23 40 -16 hvcurveto
          -27 hlineto
          -47 -61 rlineto
          -64 12 45 -72 109 hhcurveto
          99 62 68 68 27 hvcurveto
          37 -527 rmoveto
          47 328 rlineto
          -203 hlineto
          -40 -404 rlineto
          -69 -7 -30 -29 -64 hhcurveto
          -53 -23 21 50 8 1 9 1 10 hvcurveto
          58 404 rlineto
          -200 hlineto
          -34 -328 -15 -103 rlineto
          -2 -15 -1 -15 -13 vvcurveto
          -120 95 -65 157 180 101 81 147 19 vhcurveto
          endchar
        </CharString>
        <CharString name="Ucaron">
          99 -12 157 502 -20 hstem
          45 192 vstem
          539 922 rmoveto
          -18 hlineto
          -47 -28 -48 -28 -31 -22 -26 22 -37 28 -40 28 rrcurveto
          -18 hlineto
          -56 -71 51 -49 55 -54 41 -47 rlinecurve
          34 hlineto
          63 55 61 54 54 41 rrcurveto
          33 -532 rmoveto
          47 328 rlineto
          -203 hlineto
          -40 -404 rlineto
          -69 -7 -30 -29 -64 hhcurveto
          -53 -23 21 50 8 1 9 1 10 hvcurveto
          58 404 rlineto
          -200 hlineto
          -34 -328 -15 -103 rlineto
          -2 -15 -1 -15 -13 vvcurveto
          -120 95 -65 157 180 101 81 147 19 vhcurveto
          endchar
        </CharString>
        <CharString name="Ucircumflex">
          99 -12 157 502 -20 hstem
          45 192 vstem
          253 720 rmoveto
          18 hlineto
          41 20 46 20 41 20 37 -20 34 -20 37 -20 rrcurveto
          18 hlineto
          43 76 -56 39 -49 38 -43 41 rlinecurve
          -34 hlineto
          -47 -41 -53 -38 -58 -39 rrcurveto
          382 -477 rmoveto
          47 328 rlineto
          -203 hlineto
          -40 -404 rlineto
          -69 -7 -30 -29 -64 hhcurveto
          -53 -23 21 50 8 1 9 1 10 hvcurveto
          58 404 rlineto
          -200 hlineto
          -34 -328 -15 -103 rlineto
          -2 -15 -1 -15 -13 vvcurveto
          -120 95 -65 157 180 101 81 147 19 vhcurveto
          endchar
        </CharString>
        <CharString name="Udieresis">
          99 -12 157 502 -20 91 172 hstemhm
          45 192 -22 169 24 169 hintmask 11101000
          303 890 rmoveto
          -55 -33 -33 -56 -53 28 -30 53 54 34 35 56 52 -30 29 -51 hvcurveto
          hintmask 11110100
          194 hmoveto
          -55 -34 -33 -56 -53 29 -30 53 54 33 35 56 51 -29 30 -51 hvcurveto
          113 -571 rmoveto
          47 328 rlineto
          -203 hlineto
          -40 -404 rlineto
          -69 -7 -30 -29 -64 hhcurveto
          -53 -23 21 50 8 1 9 1 10 hvcurveto
          58 404 rlineto
          -200 hlineto
          -34 -328 -15 -103 rlineto
          -2 -15 -1 -15 -13 vvcurveto
          -120 95 -65 157 180 101 81 147 19 vhcurveto
          endchar
        </CharString>
        <CharString name="Udieresisacute">
          99 -12 157 502 -20 72 172 hstemhm
          45 192 -20 168 24 168 hintmask 11101000
          520 1075 rmoveto
          -16 7 -77 -29 -77 -26 -89 -27 rlinecurve
          16 -83 16 -7 79 7 78 9 89 11 rlinecurve
          9 15 rlineto
          -243 -81 rmoveto
          -55 -33 -34 -55 -53 28 -30 53 54 33 35 56 51 -29 30 -51 hvcurveto
          hintmask 11110100
          193 hmoveto
          -55 -34 -34 -55 -53 29 -30 53 54 32 35 56 51 -28 30 -51 hvcurveto
          112 -552 rmoveto
          47 328 rlineto
          -203 hlineto
          -40 -404 rlineto
          -69 -7 -30 -29 -64 hhcurveto
          -53 -23 21 50 8 1 9 1 10 hvcurveto
          58 404 rlineto
          -200 hlineto
          -34 -328 -15 -103 rlineto
          -2 -15 -1 -15 -13 vvcurveto
          -120 95 -65 157 180 101 81 147 19 vhcurveto
          endchar
        </CharString>
        <CharString name="Udieresiscaron">
          99 -12 157 502 -20 72 172 hstemhm
          45 192 -14 168 24 168 hintmask 11101000
          552 1069 rmoveto
          -18 hlineto
          -42 -20 -45 -20 -41 -20 -37 20 -35 20 -36 20 rrcurveto
          -18 hlineto
          -43 -76 55 -39 50 -39 43 -40 rlinecurve
          34 hlineto
          47 40 52 39 59 39 rrcurveto
          -266 -122 rmoveto
          -55 -33 -34 -55 -53 28 -30 53 54 33 35 56 51 -29 30 -51 hvcurveto
          hintmask 11110100
          193 hmoveto
          -55 -34 -34 -55 -53 29 -30 53 54 32 35 56 51 -29 30 -50 hvcurveto
          106 -552 rmoveto
          47 328 rlineto
          -203 hlineto
          -40 -404 rlineto
          -69 -7 -30 -29 -64 hhcurveto
          -53 -23 21 50 8 1 9 1 10 hvcurveto
          58 404 rlineto
          -200 hlineto
          -34 -328 -15 -103 rlineto
          -2 -15 -1 -15 -13 vvcurveto
          -120 95 -65 157 180 101 81 147 19 vhcurveto
          endchar
        </CharString>
        <CharString name="Udieresisgrave">
          99 -12 157 502 -20 72 172 hstemhm
          45 192 -27 168 24 168 hintmask 11101000
          309 1075 rmoveto
          -44 -123 8 -15 87 -11 77 -9 78 -7 rlinecurve
          17 7 26 83 -85 27 -74 26 -74 29 rlinecurve
          -27 -211 rmoveto
          -55 -33 -35 -54 -53 28 -30 53 54 33 35 56 52 -29 29 -51 hvcurveto
          hintmask 11110100
          193 hmoveto
          -55 -34 -35 -54 -53 29 -30 53 54 32 35 56 52 -28 29 -51 hvcurveto
          119 -552 rmoveto
          47 328 rlineto
          -203 hlineto
          -40 -404 rlineto
          -69 -7 -30 -29 -64 hhcurveto
          -53 -23 21 50 8 1 9 1 10 hvcurveto
          58 404 rlineto
          -200 hlineto
          -34 -328 -15 -103 rlineto
          -2 -15 -1 -15 -13 vvcurveto
          -120 95 -65 157 180 101 81 147 19 vhcurveto
          endchar
        </CharString>
        <CharString name="Udieresismacron">
          99 -12 157 502 -20 72 172 48 119 hstemhm
          45 192 -20 168 24 169 hintmask 11110100
          571 1025 rmoveto
          -13 13 rlineto
          -303 hlineto
          -10 -107 13 -12 rlineto
          303 hlineto
          -256 -48 rmoveto
          -54 -34 -34 -55 -53 29 -30 52 54 33 35 56 51 -29 30 -51 hvcurveto
          hintmask 11111010
          193 hmoveto
          -55 -34 -34 -55 -53 29 -30 53 54 33 35 56 51 -29 30 -51 hvcurveto
          112 -552 rmoveto
          47 328 rlineto
          -203 hlineto
          -40 -404 rlineto
          -69 -7 -30 -29 -64 hhcurveto
          -53 -23 21 50 8 1 9 1 10 hvcurveto
          58 404 rlineto
          -200 hlineto
          -34 -328 -15 -103 rlineto
          -2 -15 -1 -15 -13 vvcurveto
          -120 95 -65 157 180 101 81 147 19 vhcurveto
          endchar
        </CharString>
        <CharString name="Udotbelow">
          99 -233 198 23 157 502 -20 hstemhm
          45 192 -50 194 hintmask 01101000
          610 319 rmoveto
          47 328 rlineto
          -203 hlineto
          -40 -404 rlineto
          hintmask 01110000
          -69 -7 -30 -29 -64 hhcurveto
          -53 -23 21 50 8 1 9 1 10 hvcurveto
          58 404 rlineto
          -200 hlineto
          -34 -328 -15 -103 rlineto
          -2 -15 -1 -15 -13 vvcurveto
          -120 95 -65 157 180 101 81 147 19 vhcurveto
          hintmask 11101000
          -309 -251 rmoveto
          -63 -38 -40 -64 -60 32 -34 61 62 39 39 64 60 -34 35 -59 hvcurveto
          endchar
        </CharString>
        <CharString name="Ugrave">
          99 -12 157 502 -20 hstem
          45 192 vstem
          301 913 rmoveto
          -49 -116 6 -16 86 -27 75 -22 77 -20 rlinecurve
          17 4 30 79 -83 42 -71 38 -71 42 rlinecurve
          292 -598 rmoveto
          47 328 rlineto
          -203 hlineto
          -40 -404 rlineto
          -69 -7 -30 -29 -64 hhcurveto
          -53 -23 21 50 8 1 9 1 10 hvcurveto
          58 404 rlineto
          -200 hlineto
          -34 -328 -15 -103 rlineto
          -2 -15 -1 -15 -13 vvcurveto
          -120 95 -65 157 180 101 81 147 19 vhcurveto
          endchar
        </CharString>
        <CharString name="Uhookabove">
          99 -12 157 502 -20 239 81 hstem
          45 192 133 98 vstem
          368 947 rmoveto
          -46 -47 -23 -37 -34 hvcurveto
          29 -47 rlineto
          16 21 28 10 21 hhcurveto
          17 13 -7 -17 -21 -20 -31 -34 -24 hvcurveto
          54 -80 64 39 -27 43 rlineto
          47 42 14 21 29 vvcurveto
          53 -44 34 -56 vhcurveto
          242 -628 rmoveto
          47 328 rlineto
          -203 hlineto
          -40 -404 rlineto
          -69 -7 -30 -29 -64 hhcurveto
          -53 -23 21 50 8 1 9 1 10 hvcurveto
          58 404 rlineto
          -200 hlineto
          -34 -328 -15 -103 rlineto
          -2 -15 -1 -15 -13 vvcurveto
          -120 95 -65 157 180 101 81 147 19 vhcurveto
          endchar
        </CharString>
        <CharString name="Uhorn">
          115 -12 157 502 -20 hstem
          45 192 349 150 vstem
          736 713 rmoveto
          54 -35 38 -48 -32 -33 -17 -20 -28 vhcurveto
          -3 -14 rlineto
          18 -15 11 -20 -24 vvcurveto
          -34 -16 -14 -41 vhcurveto
          -75 hlineto
          -40 -404 rlineto
          -69 -7 -30 -29 -64 hhcurveto
          -53 -23 21 50 8 1 9 1 10 hvcurveto
          58 404 rlineto
          -200 hlineto
          -34 -328 -15 -103 rlineto
          -2 -15 -1 -15 -13 vvcurveto
          -120 95 -65 157 180 101 81 147 19 vhcurveto
          13 103 38 265 rlineto
          55 30 33 47 52 vvcurveto
          endchar
        </CharString>
        <CharString name="Uhornacute">
          115 -12 157 502 -20 hstem
          45 192 vstem
          265 716 rmoveto
          17 -4 77 20 75 22 86 27 rlinecurve
          6 16 -49 116 -17 4 -71 -42 -71 -39 -83 -41 rlinecurve
          501 -82 rmoveto
          54 -35 38 -48 -32 -33 -17 -20 -28 vhcurveto
          -3 -14 rlineto
          18 -15 11 -20 -24 vvcurveto
          -34 -16 -14 -41 vhcurveto
          -75 hlineto
          -40 -404 rlineto
          -69 -7 -30 -29 -64 hhcurveto
          -53 -23 21 50 8 1 9 1 10 hvcurveto
          58 404 rlineto
          -200 hlineto
          -34 -328 -15 -103 rlineto
          -2 -15 -1 -15 -13 vvcurveto
          -120 95 -65 157 180 101 81 147 19 vhcurveto
          13 103 38 265 rlineto
          55 30 33 47 52 vvcurveto
          endchar
        </CharString>
        <CharString name="Uhorndotbelow">
          115 -233 198 23 157 502 -20 hstemhm
          45 192 -35 194 190 150 hintmask 01101100
          736 713 rmoveto
          54 -35 38 -48 -32 -33 -17 -20 -28 vhcurveto
          -3 -14 rlineto
          18 -15 11 -20 -24 vvcurveto
          -34 -16 -14 -41 vhcurveto
          -75 hlineto
          -40 -404 rlineto
          hintmask 01110100
          -69 -7 -30 -29 -64 hhcurveto
          -53 -23 21 50 8 1 9 1 10 hvcurveto
          58 404 rlineto
          -200 hlineto
          -34 -328 -15 -103 rlineto
          -2 -15 -1 -15 -13 vvcurveto
          -120 95 -65 157 180 101 81 147 19 vhcurveto
          13 103 38 265 rlineto
          hintmask 01101100
          55 30 33 47 52 vvcurveto
          hintmask 11101100
          -433 -748 rmoveto
          -63 -38 -40 -64 -60 32 -34 61 62 39 39 64 60 -34 35 -59 hvcurveto
          endchar
        </CharString>
        <CharString name="Uhorngrave">
          115 -12 157 502 -20 hstem
          45 192 vstem
          493 716 rmoveto
          30 79 -83 42 -71 38 -71 42 rlinecurve
          -17 -4 -49 -116 6 -16 86 -27 75 -22 77 -20 rlinecurve
          260 1 rmoveto
          54 -35 38 -48 -32 -33 -17 -20 -28 vhcurveto
          -3 -14 rlineto
          18 -15 11 -20 -24 vvcurveto
          -34 -16 -14 -41 vhcurveto
          -75 hlineto
          -40 -404 rlineto
          -69 -7 -30 -29 -64 hhcurveto
          -53 -23 21 50 8 1 9 1 10 hvcurveto
          58 404 rlineto
          -200 hlineto
          -34 -328 -15 -103 rlineto
          -2 -15 -1 -15 -13 vvcurveto
          -120 95 -65 157 180 101 81 147 19 vhcurveto
          13 103 38 265 rlineto
          55 30 33 47 52 vvcurveto
          endchar
        </CharString>
        <CharString name="Uhornhookabove">
          115 -12 157 502 -20 239 81 hstem
          45 192 113 98 vstem
          320 866 rmoveto
          17 13 -7 -17 -21 -20 -31 -34 -24 hvcurveto
          54 -80 64 39 -27 43 rlineto
          47 42 14 21 29 vvcurveto
          53 -44 34 -56 -46 -47 -23 -37 -34 vhcurveto
          29 -47 rlineto
          16 21 28 10 21 hhcurveto
          416 -153 rmoveto
          54 -35 38 -48 -32 -33 -17 -20 -28 vhcurveto
          -3 -14 rlineto
          18 -15 11 -20 -24 vvcurveto
          -34 -16 -14 -41 vhcurveto
          -75 hlineto
          -40 -404 rlineto
          -69 -7 -30 -29 -64 hhcurveto
          -53 -23 21 50 8 1 9 1 10 hvcurveto
          58 404 rlineto
          -200 hlineto
          -34 -328 -15 -103 rlineto
          -2 -15 -1 -15 -13 vvcurveto
          -120 95 -65 157 180 101 81 147 19 vhcurveto
          13 103 38 265 rlineto
          55 30 33 47 52 vvcurveto
          endchar
        </CharString>
        <CharString name="Uhorntilde">
          115 -12 157 502 -20 hstem
          45 192 vstem
          238 702 rmoveto
          16 hlineto
          29 23 20 29 26 hhcurveto
          26 75 -27 -7 52 hvcurveto
          16 6 81 113 rlineto
          16 vlineto
          -57 54 rlineto
          -16 hlineto
          -29 -23 -20 -29 -26 hhcurveto
          -26 -75 27 7 -52 hvcurveto
          -16 -6 -81 -112 rlineto
          -16 vlineto
          555 -44 rmoveto
          54 -35 38 -48 -32 -33 -17 -20 -28 vhcurveto
          -3 -14 rlineto
          18 -15 11 -20 -24 vvcurveto
          -34 -16 -14 -41 vhcurveto
          -75 hlineto
          -40 -404 rlineto
          -69 -7 -30 -29 -64 hhcurveto
          -53 -23 21 50 8 1 9 1 10 hvcurveto
          58 404 rlineto
          -200 hlineto
          -34 -328 -15 -103 rlineto
          -2 -15 -1 -15 -13 vvcurveto
          -120 95 -65 157 180 101 81 147 19 vhcurveto
          13 103 38 265 rlineto
          55 30 33 47 52 vvcurveto
          endchar
        </CharString>
        <CharString name="Uhungarumlaut">
          99 -12 157 502 -20 hstem
          45 192 vstem
          269 711 rmoveto
          16 5 45 39 44 41 42 42 rlinecurve
          -3 14 -90 57 -14 -3 -31 -51 -34 -49 -34 -49 rlinecurve
          228 -46 rmoveto
          15 5 45 39 44 41 43 42 rlinecurve
          -3 14 -91 57 -13 -3 -32 -51 -34 -49 -33 -49 rlinecurve
          231 -438 rmoveto
          47 328 rlineto
          -203 hlineto
          -40 -404 rlineto
          -69 -7 -30 -29 -64 hhcurveto
          -53 -23 21 50 8 1 9 1 10 hvcurveto
          58 404 rlineto
          -200 hlineto
          -34 -328 -15 -103 rlineto
          -2 -15 -1 -15 -13 vvcurveto
          -120 95 -65 157 180 101 81 147 19 vhcurveto
          endchar
        </CharString>
        <CharString name="Umacron">
          99 -12 157 502 -20 119 119 hstem
          45 192 vstem
          545 853 rmoveto
          -12 12 rlineto
          -276 hlineto
          -9 -106 12 -13 rlineto
          276 hlineto
          74 -427 rmoveto
          47 328 rlineto
          -203 hlineto
          -40 -404 rlineto
          -69 -7 -30 -29 -64 hhcurveto
          -53 -23 21 50 8 1 9 1 10 hvcurveto
          58 404 rlineto
          -200 hlineto
          -34 -328 -15 -103 rlineto
          -2 -15 -1 -15 -13 vvcurveto
          -120 95 -65 157 180 101 81 147 19 vhcurveto
          endchar
        </CharString>
        <CharString name="Uogonek">
          99 -197 98 -77 -21 185 157 502 -20 hstemhm
          45 192 111 96 hintmask 01111100
          657 647 rmoveto
          -203 hlineto
          -40 -404 rlineto
          -69 -7 -30 -29 -64 hhcurveto
          -53 -23 21 50 8 1 9 1 10 hvcurveto
          58 404 rlineto
          -200 hlineto
          -34 -328 -15 -103 rlineto
          -2 -15 -1 -15 -13 vvcurveto
          -120 95 -65 157 31 30 2 5 26 vhcurveto
          -3 -4 rlineto
          -22 -31 -11 -31 -29 vvcurveto
          -54 39 -43 65 37 32 14 32 42 vhcurveto
          hintmask 10111100
          -12 72 rlineto
          -10 hlineto
          -13 -21 -22 -7 -18 hhcurveto
          -25 -11 14 19 14 6 15 10 15 hvcurveto
          41 64 54 39 32 59 10 76 rlinecurve
          13 103 rlineto
          endchar
        </CharString>
        <CharString name="Uring">
          99 -12 157 502 -20 86 76 64 77 hstem
          45 192 51 75 70 75 vstem
          402 930 rmoveto
          -75 -39 -38 -72 -71 36 -36 70 75 39 41 73 68 -35 35 -71 hvcurveto
          -5 -77 rmoveto
          26 10 -9 -24 -23 -9 -8 -25 -26 -10 9 25 22 9 8 25 hvcurveto
          213 -534 rmoveto
          47 328 rlineto
          -203 hlineto
          -40 -404 rlineto
          -69 -7 -30 -29 -64 hhcurveto
          -53 -23 21 50 8 1 9 1 10 hvcurveto
          58 404 rlineto
          -200 hlineto
          -34 -328 -15 -103 rlineto
          -2 -15 -1 -15 -13 vvcurveto
          -120 95 -65 157 180 101 81 147 19 vhcurveto
          endchar
        </CharString>
        <CharString name="Utilde">
          99 -12 157 502 -20 hstem
          45 192 vstem
          593 861 rmoveto
          -57 54 rlineto
          -16 hlineto
          -29 -23 -20 -29 -26 hhcurveto
          -26 -75 27 7 -52 hvcurveto
          -16 -6 -81 -112 rlineto
          -16 vlineto
          57 -55 rlineto
          16 hlineto
          29 23 20 29 26 hhcurveto
          26 75 -27 -7 52 hvcurveto
          16 6 81 113 rlineto
          17 -526 rmoveto
          47 328 rlineto
          -203 hlineto
          -40 -404 rlineto
          -69 -7 -30 -29 -64 hhcurveto
          -53 -23 21 50 8 1 9 1 10 hvcurveto
          58 404 rlineto
          -200 hlineto
          -34 -328 -15 -103 rlineto
          -2 -15 -1 -15 -13 vvcurveto
          -120 95 -65 157 180 101 81 147 19 vhcurveto
          endchar
        </CharString>
        <CharString name="V">
          61 0 178 469 -20 hstem
          55 614 vstem
          394 hmoveto
          275 647 rlineto
          -195 hlineto
          -34 -119 -135 -350 rlineto
          -11 hlineto
          -32 362 -5 107 rlineto
          -202 hlineto
          98 -647 rlineto
          endchar
        </CharString>
        <CharString name="V.ss01">
          -14 0 65 -65 166 282 65 hstemhm
          -128 801 hintmask 10110000
          534 448 rmoveto
          132 hlineto
          7 65 rlineto
          -739 hlineto
          -7 -65 rlineto
          138 hlineto
          60 -383 rlineto
          -246 hlineto
          -7 -65 rlineto
          739 hlineto
          7 65 rlineto
          -250 hlineto
          3 383 rmoveto
          -14 -49 rlineto
          hintmask 01110000
          -89 -233 rlineto
          -11 hlineto
          -19 244 -2 38 rlineto
          endchar
        </CharString>
        <CharString name="W">
          360 0 201 446 -20 hstem
          68 896 vstem
          694 hmoveto
          270 647 rlineto
          -184 hlineto
          -32 -112 -120 -334 rlineto
          -11 hlineto
          -28 325 1 121 rlineto
          -203 hlineto
          16 -150 -111 -296 rlineto
          -11 hlineto
          -21 346 2 100 rlineto
          -194 hlineto
          72 -647 rlineto
          213 hlineto
          86 234 rlineto
          11 hlineto
          32 -234 rlineto
          endchar
        </CharString>
        <CharString name="Wacute">
          360 0 201 446 -20 hstem
          68 896 vstem
          607 913 rmoveto
          -17 4 -71 -42 -71 -39 -83 -41 rlinecurve
          30 -79 17 -4 77 20 75 22 86 27 rlinecurve
          6 16 rlineto
          38 -797 rmoveto
          270 647 rlineto
          -184 hlineto
          -32 -112 -120 -334 rlineto
          -11 hlineto
          -28 325 1 121 rlineto
          -203 hlineto
          16 -150 -111 -296 rlineto
          -11 hlineto
          -21 346 2 100 rlineto
          -194 hlineto
          72 -647 rlineto
          213 hlineto
          86 234 rlineto
          11 hlineto
          32 -234 rlineto
          endchar
        </CharString>
        <CharString name="Wcircumflex">
          360 0 201 446 -20 hstem
          68 896 vstem
          363 720 rmoveto
          18 hlineto
          41 20 46 20 41 20 37 -20 34 -20 37 -20 rrcurveto
          18 hlineto
          43 76 -56 39 -49 38 -43 41 rlinecurve
          -34 hlineto
          -47 -41 -53 -38 -58 -39 rrcurveto
          356 -796 rmoveto
          270 647 rlineto
          -184 hlineto
          -32 -112 -120 -334 rlineto
          -11 hlineto
          -28 325 1 121 rlineto
          -203 hlineto
          16 -150 -111 -296 rlineto
          -11 hlineto
          -21 346 2 100 rlineto
          -194 hlineto
          72 -647 rlineto
          213 hlineto
          86 234 rlineto
          11 hlineto
          32 -234 rlineto
          endchar
        </CharString>
        <CharString name="Wdieresis">
          360 0 201 446 -20 91 172 hstemhm
          325 169 24 169 hintmask 11110000
          413 890 rmoveto
          -55 -33 -33 -56 -53 28 -30 53 54 34 35 56 52 -30 29 -51 hvcurveto
          hintmask 11111000
          194 hmoveto
          -55 -34 -33 -56 -53 29 -30 53 54 33 35 56 51 -29 30 -51 hvcurveto
          87 -890 rmoveto
          270 647 rlineto
          -184 hlineto
          -32 -112 -120 -334 rlineto
          -11 hlineto
          -28 325 1 121 rlineto
          -203 hlineto
          16 -150 -111 -296 rlineto
          -11 hlineto
          -21 346 2 100 rlineto
          -194 hlineto
          72 -647 rlineto
          213 hlineto
          86 234 rlineto
          11 hlineto
          32 -234 rlineto
          endchar
        </CharString>
        <CharString name="Wgrave">
          360 0 201 446 -20 hstem
          68 896 vstem
          411 913 rmoveto
          -49 -116 6 -16 86 -27 75 -22 77 -20 rlinecurve
          17 4 30 79 -83 42 -71 38 -71 42 rlinecurve
          266 -917 rmoveto
          270 647 rlineto
          -184 hlineto
          -32 -112 -120 -334 rlineto
          -11 hlineto
          -28 325 1 121 rlineto
          -203 hlineto
          16 -150 -111 -296 rlineto
          -11 hlineto
          -21 346 2 100 rlineto
          -194 hlineto
          72 -647 rlineto
          213 hlineto
          86 234 rlineto
          11 hlineto
          32 -234 rlineto
          endchar
        </CharString>
        <CharString name="X">
          80 21 -21 647 -20 hstem
          -27 709 vstem
          459 332 rmoveto
          223 315 rlineto
          -208 hlineto
          -39 -70 -80 -114 -44 103 -25 81 rlineto
          -236 hlineto
          153 -326 -230 -321 rlineto
          202 hlineto
          41 69 89 116 45 -106 24 -79 rlineto
          235 hlineto
          endchar
        </CharString>
        <CharString name="X.ss01">
          1 0 65 383 65 hstem
          -128 816 vstem
          391 269 rmoveto
          134 179 rlineto
          156 hlineto
          7 65 rlineto
          -754 hlineto
          -7 -65 rlineto
          155 hlineto
          101 -198 -144 -185 rlineto
          -160 hlineto
          -7 -65 rlineto
          754 hlineto
          7 65 rlineto
          -144 hlineto
          -219 383 rmoveto
          92 hlineto
          -11 -20 -44 -60 -27 51 rlineto
          21 -354 rmoveto
          -101 hlineto
          14 24 52 59 25 -51 rlineto
          endchar
        </CharString>
        <CharString name="Y">
          40 21 -21 647 -20 hstem
          43 621 vstem
          379 204 rmoveto
          285 443 rlineto
          -204 hlineto
          -30 -61 -109 -189 rlineto
          -12 hlineto
          -49 196 -9 54 rlineto
          -208 hlineto
          152 -440 -3 -37 -30 -170 rlineto
          199 hlineto
          12 170 rlineto
          endchar
        </CharString>
        <CharString name="Yacute">
          40 21 -21 647 -20 hstem
          43 621 vstem
          256 716 rmoveto
          17 -4 77 20 75 22 86 27 rlinecurve
          6 16 -49 116 -17 4 -71 -42 -71 -39 -83 -41 rlinecurve
          153 -591 rmoveto
          285 443 rlineto
          -204 hlineto
          -30 -61 -109 -189 rlineto
          -12 hlineto
          -49 196 -9 54 rlineto
          -208 hlineto
          152 -440 -3 -37 -30 -170 rlineto
          199 hlineto
          12 170 rlineto
          endchar
        </CharString>
        <CharString name="Ycircumflex">
          40 21 -21 647 -20 hstem
          43 621 vstem
          224 720 rmoveto
          18 hlineto
          41 20 46 20 41 20 37 -20 34 -20 37 -20 rrcurveto
          18 hlineto
          43 76 -56 39 -49 38 -43 41 rlinecurve
          -34 hlineto
          -47 -41 -53 -38 -58 -39 rrcurveto
          180 -592 rmoveto
          285 443 rlineto
          -204 hlineto
          -30 -61 -109 -189 rlineto
          -12 hlineto
          -49 196 -9 54 rlineto
          -208 hlineto
          152 -440 -3 -37 -30 -170 rlineto
          199 hlineto
          12 170 rlineto
          endchar
        </CharString>
        <CharString name="Ydieresis">
          40 21 -21 647 -20 91 172 hstemhm
          186 169 24 169 hintmask 11110000
          267 718 rmoveto
          54 34 35 56 52 -30 29 -51 -55 -33 -33 -56 -53 28 -30 53 hvcurveto
          hintmask 11111000
          194 hmoveto
          54 33 35 56 51 -29 30 -51 -55 -34 -33 -56 -53 29 -30 53 hvcurveto
          -82 -514 rmoveto
          285 443 rlineto
          -204 hlineto
          -30 -61 -109 -189 rlineto
          -12 hlineto
          -49 196 -9 54 rlineto
          -208 hlineto
          152 -440 -3 -37 -30 -170 rlineto
          199 hlineto
          12 170 rlineto
          endchar
        </CharString>
        <CharString name="Ydotbelow">
          40 -233 198 56 -21 647 -20 hstem
          153 194 vstem
          379 204 rmoveto
          285 443 rlineto
          -204 hlineto
          -30 -61 -109 -189 rlineto
          -12 hlineto
          -49 196 -9 54 rlineto
          -208 hlineto
          152 -440 -3 -37 -30 -170 rlineto
          199 hlineto
          12 170 rlineto
          -119 -205 rmoveto
          -63 -38 -40 -64 -60 32 -34 61 62 39 39 64 60 -34 35 -59 hvcurveto
          endchar
        </CharString>
        <CharString name="Ygrave">
          40 21 -21 647 -20 hstem
          43 621 vstem
          484 716 rmoveto
          30 79 -83 42 -71 38 -71 42 rlinecurve
          -17 -4 -49 -116 6 -16 86 -27 75 -22 77 -20 rlinecurve
          -88 -508 rmoveto
          285 443 rlineto
          -204 hlineto
          -30 -61 -109 -189 rlineto
          -12 hlineto
          -49 196 -9 54 rlineto
          -208 hlineto
          152 -440 -3 -37 -30 -170 rlineto
          199 hlineto
          12 170 rlineto
          endchar
        </CharString>
        <CharString name="Yhookabove">
          40 21 -21 647 -20 239 81 hstemhm
          341 98 hintmask 00000000
          hintmask 11110000
          311 866 rmoveto
          17 13 -7 -17 -21 -20 -31 -34 -24 hvcurveto
          54 -80 64 39 -27 43 rlineto
          47 42 14 21 29 vvcurveto
          53 -44 34 -56 -46 -47 -23 -37 -34 vhcurveto
          29 -47 rlineto
          16 21 28 10 21 hhcurveto
          68 -662 rmoveto
          285 443 rlineto
          -204 hlineto
          -30 -61 -109 -189 rlineto
          -12 hlineto
          -49 196 -9 54 rlineto
          -208 hlineto
          152 -440 -3 -37 -30 -170 rlineto
          199 hlineto
          12 170 rlineto
          endchar
        </CharString>
        <CharString name="Ytilde">
          40 21 -21 647 -20 hstem
          43 621 vstem
          229 702 rmoveto
          16 hlineto
          29 23 20 29 26 hhcurveto
          26 75 -27 -7 52 hvcurveto
          16 6 81 113 rlineto
          16 vlineto
          -57 54 rlineto
          -16 hlineto
          -29 -23 -20 -29 -26 hhcurveto
          -26 -75 27 7 -52 hvcurveto
          -16 -6 -81 -112 rlineto
          -16 vlineto
          207 -553 rmoveto
          285 443 rlineto
          -204 hlineto
          -30 -61 -109 -189 rlineto
          -12 hlineto
          -49 196 -9 54 rlineto
          -208 hlineto
          152 -440 -3 -37 -30 -170 rlineto
          199 hlineto
          12 170 rlineto
          endchar
        </CharString>
        <CharString name="Z">
          15 0 147 -131 -21 505 147 3 -20 hstemhm
          -2 590 hintmask 10101000
          570 505 rmoveto
          18 143 -75 -1 rlineto
          -274 hlineto
          hintmask 10011000
          -150 3 rlineto
          hintmask 01101000
          -33 -152 6 -8 121 10 rlineto
          158 hlineto
          -325 -364 -18 -142 rlineto
          hintmask 10101000
          102 6 rlineto
          230 hlineto
          hintmask 01101000
          176 -5 rlineto
          hintmask 10101000
          35 152 -5 9 -124 -9 rlineto
          -161 hlineto
          endchar
        </CharString>
        <CharString name="Zacute">
          15 0 147 -131 -21 505 147 3 -20 hstemhm
          -1 590 hintmask 10101000
          409 913 rmoveto
          -17 4 -71 -42 -71 -39 -83 -41 rlinecurve
          30 -79 17 -4 77 20 75 22 86 27 rlinecurve
          6 16 rlineto
          113 -292 rmoveto
          18 143 -75 -1 rlineto
          -274 hlineto
          hintmask 10011000
          -150 3 rlineto
          hintmask 01101000
          -33 -152 6 -8 121 10 rlineto
          158 hlineto
          -325 -364 -18 -142 rlineto
          hintmask 10101000
          102 6 rlineto
          230 hlineto
          hintmask 01101000
          176 -5 rlineto
          hintmask 10101000
          35 152 -5 9 -124 -9 rlineto
          -161 hlineto
          endchar
        </CharString>
        <CharString name="Zcaron">
          15 0 147 -131 -21 505 147 3 -20 hstemhm
          -1 590 hintmask 10101000
          454 906 rmoveto
          -18 hlineto
          -42 -20 -45 -20 -41 -20 -37 20 -35 20 -36 20 rrcurveto
          -18 hlineto
          -43 -75 55 -39 50 -39 43 -41 rlinecurve
          34 hlineto
          47 41 52 39 59 39 rrcurveto
          92 -326 rmoveto
          18 143 -75 -1 rlineto
          -274 hlineto
          hintmask 10011000
          -150 3 rlineto
          hintmask 01101000
          -33 -152 6 -8 121 10 rlineto
          158 hlineto
          -325 -364 -18 -142 rlineto
          hintmask 10101000
          102 6 rlineto
          230 hlineto
          hintmask 01101000
          176 -5 rlineto
          hintmask 10101000
          35 152 -5 9 -124 -9 rlineto
          -161 hlineto
          endchar
        </CharString>
        <CharString name="Zdotaccent">
          15 0 147 -131 -21 505 147 3 -20 77 198 hstemhm
          211 194 hintmask 10101100
          313 905 rmoveto
          -63 -39 -39 -64 -61 33 -34 61 62 38 40 64 60 -33 34 -59 hvcurveto
          258 -400 rmoveto
          18 143 -75 -1 rlineto
          -274 hlineto
          hintmask 10011100
          -150 3 rlineto
          hintmask 01101100
          -33 -152 6 -8 121 10 rlineto
          158 hlineto
          -325 -364 -18 -142 rlineto
          hintmask 10101100
          102 6 rlineto
          230 hlineto
          hintmask 01101100
          176 -5 rlineto
          hintmask 10101100
          35 152 -5 9 -124 -9 rlineto
          -161 hlineto
          endchar
        </CharString>
        <CharString name="a">
          -5 0 205.5 -130.5 130.5 146.5 161 hstemhm
          -22 527 hintmask 10110000
          321 hmoveto
          184 hlineto
          -83 513 rlineto
          -220 hlineto
          -224 -513 rlineto
          177 hlineto
          hintmask 01110000
          20 73 65 3 79 -2 rlineto
          hintmask 10110000
          -53 131 rmoveto
          -41 1 58 146 rlineto
          11 hlineto
          14 -146 rlineto
          endchar
        </CharString>
        <CharString name="a.sups">
          -217 648 -20 hstemhm
          36 102 hintmask 00000000
          hintmask 11000000
          350 646 rmoveto
          -8 5 -66 -14 -67 11 rlineto
          -5 hlineto
          -116 -34 -52 -99 -88 vvcurveto
          -56 18 -39 71 -19 vhcurveto
          15 hlineto
          26 28 21 34 19 37 rrcurveto
          10 hlineto
          -12 -95 110 7 3 75 rlineto
          -162 12 rmoveto
          -9 -8 16 44 60 17 38 33 hvcurveto
          48 -11 -3 -22 rlineto
          -83 -36 -28 -42 -14 hhcurveto
          endchar
        </CharString>
        <CharString name="aacute">
          -5 0 205.5 -130.5 130.5 146.5 161 hstemhm
          -21 527 hintmask 10110000
          228 563 rmoveto
          17 -1 72 33 70 35 81 41 rlinecurve
          3 17 -69 106 -17 1 -63 -54 -63 -51 -75 -55 rlinecurve
          138 -635 rmoveto
          184 hlineto
          -83 513 rlineto
          -220 hlineto
          -224 -513 rlineto
          177 hlineto
          hintmask 01110000
          20 73 63 3 81 -2 rlineto
          hintmask 10110000
          -55 131 rmoveto
          -39 1 58 146 rlineto
          11 hlineto
          14 -146 rlineto
          endchar
        </CharString>
        <CharString name="abreve">
          -5 0 205.5 -130.5 130.5 146.5 161 63 134 hstemhm
          -21 527 hintmask 10111000
          315 576 rmoveto
          99 62 68 68 27 hvcurveto
          -31 61 rlineto
          -27 hlineto
          -40 -24 -45 -23 -49 hhcurveto
          -48 -40 23 40 -16 hvcurveto
          -27 hlineto
          -47 -61 rlineto
          -64 12 45 -72 109 hhcurveto
          7 -576 rmoveto
          184 hlineto
          -83 513 rlineto
          -220 hlineto
          -224 -513 rlineto
          177 hlineto
          hintmask 01111000
          20 73 63 3 81 -2 rlineto
          hintmask 10111000
          -55 131 rmoveto
          -39 1 58 146 rlineto
          11 hlineto
          14 -146 rlineto
          endchar
        </CharString>
        <CharString name="abreveacute">
          -5 0 205.5 -130.5 130.5 146.5 161 49 133 hstemhm
          -21 529 hintmask 10111000
          327 727 rmoveto
          15 4 44 38 43 40 41 41 rlinecurve
          -2 14 -89 57 -13 -4 -31 -50 -33 -48 -33 -48 rlinecurve
          56 -209 rmoveto
          86 60 44 80 37 hvcurveto
          -32 59 rlineto
          -27 hlineto
          -32 -24 -41 -18 -49 hhcurveto
          -46 -42 16 34 -19 hvcurveto
          -27 hlineto
          -48 -59 rlineto
          -80 23 62 -44 87 hhcurveto
          98 -49 rmoveto
          -220 hlineto
          -224 -513 rlineto
          177 hlineto
          hintmask 01111000
          20 73 63 3 81 -2 rlineto
          hintmask 10111000
          2 -74 rlineto
          184 hlineto
          -241 205 rmoveto
          -39 1 58 146 rlineto
          11 hlineto
          14 -146 rlineto
          endchar
        </CharString>
        <CharString name="abrevedotbelow">
          -5 -233 198 35 205.5 -130.5 130.5 146.5 161 63 134 hstemhm
          138 194 hintmask 11011100
          314 576 rmoveto
          99 62 68 68 27 hvcurveto
          -31 61 rlineto
          -27 hlineto
          -40 -24 -45 -23 -49 hhcurveto
          -48 -40 23 40 -16 hvcurveto
          -27 hlineto
          -47 -61 rlineto
          -64 12 45 -72 109 hhcurveto
          -158 -576 rmoveto
          hintmask 10111100
          20 73 63 3 81 -2 rlineto
          hintmask 11011100
          2 -74 rlineto
          184 hlineto
          -83 513 rlineto
          -220 hlineto
          -224 -513 rlineto
          305 352 rmoveto
          11 hlineto
          14 -146 -44 -1 -39 1 rlineto
          13 -241 rmoveto
          -63 -38 -40 -64 -60 32 -34 61 62 39 39 64 60 -34 35 -59 hvcurveto
          endchar
        </CharString>
        <CharString name="abrevegrave">
          -5 0 205.5 -130.5 130.5 146.5 161 49 133 hstemhm
          -21 529 hintmask 10111000
          339 727 rmoveto
          58 44 -33 48 -33 48 -31 50 rlinecurve
          -13 4 -89 -57 -3 -14 42 -41 43 -40 44 -38 rlinecurve
          1 -169 rmoveto
          86 60 44 80 37 hvcurveto
          -32 59 rlineto
          -27 hlineto
          -32 -24 -41 -18 -49 hhcurveto
          -46 -42 16 34 -19 hvcurveto
          -27 hlineto
          -48 -59 rlineto
          -80 23 62 -44 87 hhcurveto
          98 -49 rmoveto
          -220 hlineto
          -224 -513 rlineto
          177 hlineto
          hintmask 01111000
          20 73 63 3 81 -2 rlineto
          hintmask 10111000
          2 -74 rlineto
          184 hlineto
          -241 205 rmoveto
          -39 1 58 146 rlineto
          11 hlineto
          14 -146 rlineto
          endchar
        </CharString>
        <CharString name="abrevehookabove">
          -5 0 205.5 -130.5 130.5 146.5 161 49 133 204 82 hstemhm
          -21 529 -183 98 hintmask 00000000
          hintmask 10111010
          295 899 rmoveto
          17 13 -7 -17 -21 -20 -31 -34 -24 hvcurveto
          54 -79 64 38 -27 43 rlineto
          47 42 14 21 29 vvcurveto
          53 -44 35 -56 -46 -47 -24 -37 -34 vhcurveto
          29 -47 rlineto
          16 21 28 10 21 hhcurveto
          30 -337 rmoveto
          86 60 44 80 37 hvcurveto
          -32 59 rlineto
          -27 hlineto
          -32 -24 -41 -18 -49 hhcurveto
          -46 -42 16 34 -19 hvcurveto
          -27 hlineto
          -48 -59 rlineto
          -80 23 62 -44 87 hhcurveto
          98 -49 rmoveto
          -220 hlineto
          -224 -513 rlineto
          177 hlineto
          hintmask 01111100
          20 73 63 3 81 -2 rlineto
          hintmask 10111100
          2 -74 rlineto
          184 hlineto
          -241 205 rmoveto
          -39 1 58 146 rlineto
          11 hlineto
          14 -146 rlineto
          endchar
        </CharString>
        <CharString name="abrevetilde">
          -5 0 205.5 -130.5 130.5 146.5 161 48 124 hstemhm
          -21 561 hintmask 10111000
          540 901 rmoveto
          -51 50 rlineto
          -15 hlineto
          -27 -21 -18 -26 -24 hhcurveto
          -23 -69 24 7 -47 hvcurveto
          -14 -6 -74 -102 rlineto
          -15 vlineto
          52 -49 rlineto
          14 hlineto
          26 21 18 27 24 hhcurveto
          24 68 -26 -6 47 hvcurveto
          15 5 73 103 rlineto
          -215 -325 rmoveto
          80 56 41 74 35 hvcurveto
          -30 55 rlineto
          -25 hlineto
          -30 -23 -38 -16 -45 hhcurveto
          -43 -39 15 31 -18 hvcurveto
          -25 hlineto
          -45 -55 rlineto
          -74 22 58 -41 80 hhcurveto
          98 -48 rmoveto
          -220 hlineto
          -224 -513 rlineto
          177 hlineto
          hintmask 01111000
          20 73 63 3 81 -2 rlineto
          hintmask 10111000
          2 -74 rlineto
          184 hlineto
          -241 205 rmoveto
          -39 1 58 146 rlineto
          11 hlineto
          14 -146 rlineto
          endchar
        </CharString>
        <CharString name="acaron">
          -5 0 205.5 -130.5 130.5 146.5 161 197 -20 hstemhm
          -21 528 hintmask 10111000
          329 567 rmoveto
          63 55 61 54 54 41 -38 71 rcurveline
          -18 hlineto
          -47 -28 -48 -28 -31 -22 -26 22 -37 28 -40 28 rrcurveto
          -18 hlineto
          -56 -71 51 -49 55 -54 41 -47 rlinecurve
          128 -54 rmoveto
          -220 hlineto
          -224 -513 rlineto
          177 hlineto
          hintmask 01111000
          20 73 63 3 81 -2 rlineto
          hintmask 10111000
          2 -74 rlineto
          184 hlineto
          -241 205 rmoveto
          -39 1 58 146 rlineto
          11 hlineto
          14 -146 rlineto
          endchar
        </CharString>
        <CharString name="acircumflex">
          -5 0 205.5 -130.5 130.5 146.5 161 hstemhm
          -21 528 hintmask 10110000
          186 571 rmoveto
          18 hlineto
          47 28 46 28 31 22 26 -22 39 -28 40 -28 rrcurveto
          18 hlineto
          56 72 -51 48 -55 54 -41 47 rlinecurve
          -34 hlineto
          -63 -55 -61 -53 -54 -41 rrcurveto
          275 -130 rmoveto
          -220 hlineto
          -224 -513 rlineto
          177 hlineto
          hintmask 01110000
          20 73 63 3 81 -2 rlineto
          hintmask 10110000
          2 -74 rlineto
          184 hlineto
          -241 205 rmoveto
          -39 1 58 146 rlineto
          11 hlineto
          14 -146 rlineto
          endchar
        </CharString>
        <CharString name="acircumflexacute">
          -5 0 205.5 -130.5 130.5 146.5 161 hstemhm
          -21 601 hintmask 10110000
          459 715 rmoveto
          11 hlineto
          110 148 -5 13 -97 41 -12 -7 -70 -149 rlineto
          -212 -194 rmoveto
          18 hlineto
          41 20 46 20 41 20 37 -20 34 -20 37 -20 rrcurveto
          18 hlineto
          42 76 -55 39 -49 38 -43 41 rlinecurve
          -34 hlineto
          -47 -41 -53 -38 -58 -39 rrcurveto
          264 -130 rmoveto
          -220 hlineto
          -224 -513 rlineto
          177 hlineto
          hintmask 01110000
          20 73 63 3 81 -2 rlineto
          hintmask 10110000
          2 -74 rlineto
          184 hlineto
          -241 205 rmoveto
          -39 1 58 146 rlineto
          11 hlineto
          14 -146 rlineto
          endchar
        </CharString>
        <CharString name="acircumflexdotbelow">
          -5 -233 198 35 205.5 -130.5 130.5 146.5 161 hstemhm
          138 194 hintmask 11011000
          185 571 rmoveto
          18 hlineto
          47 28 46 28 31 22 26 -22 39 -28 40 -28 rrcurveto
          18 hlineto
          56 72 -51 48 -55 54 -41 47 rlinecurve
          -34 hlineto
          -63 -55 -61 -53 -54 -41 rrcurveto
          276 -130 rmoveto
          -220 hlineto
          -224 -513 rlineto
          177 hlineto
          hintmask 10111000
          20 73 63 3 81 -2 rlineto
          hintmask 11011000
          2 -74 rlineto
          184 hlineto
          -241 205 rmoveto
          -39 1 58 146 rlineto
          11 hlineto
          14 -146 rlineto
          -70 -241 rmoveto
          -63 -38 -40 -64 -60 32 -34 61 62 39 39 64 60 -34 35 -59 hvcurveto
          endchar
        </CharString>
        <CharString name="acircumflexgrave">
          -5 0 205.5 -130.5 130.5 146.5 161 hstemhm
          -21 533 hintmask 10110000
          438 715 rmoveto
          11 hlineto
          63 46 -70 149 -11 7 -98 -41 -5 -13 rlineto
          -151 -297 rmoveto
          18 hlineto
          41 20 46 20 41 20 37 -20 34 -20 37 -20 rrcurveto
          18 hlineto
          43 76 -56 39 -49 38 -43 41 rlinecurve
          -34 hlineto
          -47 -41 -53 -38 -58 -39 rrcurveto
          271 -129 rmoveto
          -220 hlineto
          -224 -513 rlineto
          177 hlineto
          hintmask 01110000
          20 73 63 3 81 -2 rlineto
          hintmask 10110000
          2 -74 rlineto
          184 hlineto
          -241 205 rmoveto
          -39 1 58 146 rlineto
          11 hlineto
          14 -146 rlineto
          endchar
        </CharString>
        <CharString name="acircumflexhookabove">
          -5 0 205.5 -130.5 130.5 146.5 161 375 78 hstemhm
          -21 547 -94 94 hintmask 00000000
          hintmask 10110100
          404 888 rmoveto
          16 12 -7 -16 -20 -19 -30 -32 -22 hvcurveto
          51 -76 61 37 -25 41 rlineto
          44 40 14 20 27 vvcurveto
          51 -42 33 -53 -44 -45 -23 -35 -32 vhcurveto
          27 -45 rlineto
          15 20 27 10 20 hhcurveto
          -226 -321 rmoveto
          18 hlineto
          41 20 46 20 41 20 37 -20 34 -20 37 -20 rrcurveto
          18 hlineto
          43 76 -56 39 -49 38 -43 41 rlinecurve
          -34 hlineto
          -47 -41 -53 -38 -58 -39 rrcurveto
          270 -130 rmoveto
          -220 hlineto
          -224 -513 rlineto
          177 hlineto
          hintmask 01111000
          20 73 63 3 81 -2 rlineto
          hintmask 10111000
          2 -74 rlineto
          184 hlineto
          -241 205 rmoveto
          -39 1 58 146 rlineto
          11 hlineto
          14 -146 rlineto
          endchar
        </CharString>
        <CharString name="acircumflextilde">
          -5 0 205.5 -130.5 130.5 146.5 161 hstemhm
          -21 559 hintmask 10110000
          538 896 rmoveto
          -51 50 rlineto
          -15 hlineto
          -27 -21 -18 -26 -24 hhcurveto
          -23 -69 24 7 -47 hvcurveto
          -14 -6 -74 -102 rlineto
          -15 vlineto
          52 -49 rlineto
          14 hlineto
          26 21 18 27 24 hhcurveto
          24 68 -25 -6 47 hvcurveto
          15 5 73 102 rlineto
          -207 -253 rmoveto
          37 -20 34 -20 37 -20 rrcurveto
          18 hlineto
          42 76 -55 39 -49 38 -43 41 rlinecurve
          -34 hlineto
          -47 -41 -53 -38 -58 -39 25 -76 rcurveline
          18 hlineto
          41 20 46 20 41 20 rrcurveto
          92 -115 rmoveto
          -220 hlineto
          -224 -513 rlineto
          177 hlineto
          hintmask 01110000
          20 73 63 3 81 -2 rlineto
          hintmask 10110000
          2 -74 rlineto
          184 hlineto
          -241 205 rmoveto
          -39 1 58 146 rlineto
          11 hlineto
          14 -146 rlineto
          endchar
        </CharString>
        <CharString name="acute">
          594 -20 73 -20 hstem
          98 287 vstem
          316 753 rmoveto
          -17 1 -63 -54 -63 -51 -75 -55 rlinecurve
          44 -72 17 -1 72 33 70 35 81 41 rlinecurve
          3 17 rlineto
          endchar
        </CharString>
        <CharString name="acute.cap">
          537 205 hstem
          96 291 vstem
          338 738 rmoveto
          -17 4 -71 -42 -71 -39 -83 -41 rlinecurve
          30 -79 17 -4 77 20 75 22 86 27 rlinecurve
          6 16 rlineto
          endchar
        </CharString>
        <CharString name="adieresis">
          -5 0 205.5 -130.5 130.5 146.5 161 71 172 hstemhm
          145 169 24 169 hintmask 10111000
          226 584 rmoveto
          54 34 35 56 52 -30 29 -51 -55 -33 -33 -56 -53 28 -30 53 hvcurveto
          hintmask 10111100
          194 hmoveto
          54 33 35 56 51 -29 30 -51 -55 -34 -33 -56 -53 29 -30 53 hvcurveto
          3 -71 rmoveto
          -220 hlineto
          -224 -513 rlineto
          177 hlineto
          hintmask 01111000
          20 73 63 3 81 -2 rlineto
          hintmask 10111000
          2 -74 rlineto
          184 hlineto
          -241 205 rmoveto
          -39 1 58 146 rlineto
          11 hlineto
          14 -146 rlineto
          endchar
        </CharString>
        <CharString name="adotbelow">
          -5 -233 198 35 205.5 -130.5 130.5 146.5 161 hstemhm
          138 194 hintmask 11011000
          156 hmoveto
          hintmask 10111000
          20 73 63 3 81 -2 rlineto
          hintmask 11011000
          2 -74 rlineto
          184 hlineto
          -83 513 rlineto
          -220 hlineto
          -224 -513 rlineto
          305 352 rmoveto
          11 hlineto
          14 -146 -44 -1 -39 1 rlineto
          13 -241 rmoveto
          -63 -38 -40 -64 -60 32 -34 61 62 39 39 64 60 -34 35 -59 hvcurveto
          endchar
        </CharString>
        <CharString name="ae">
          170 0 128 -7 7 256 128 -13 13 hstemhm
          324.5 159.5 -154.5 162 150.5 11 hintmask 10100110
          705 133 rmoveto
          hintmask 10101010
          -143 -5 rlineto
          -79 hlineto
          2 49 168 44 rlineto
          115 vlineto
          -11 10 rlineto
          hintmask 10100110
          -152 -44 3 82 rlineto
          65 hlineto
          129 -6 rlineto
          hintmask 10010110
          26 121 rlineto
          hintmask 10101010
          -9 13 rlineto
          -440 hlineto
          -303 -512 rlineto
          164 hlineto
          35 86 165 47 -1 -45 -8 -88 rlineto
          371 hlineto
          hintmask 01100110
          25 121 rlineto
          -384 135 rmoveto
          -85 -24 77 131 rlineto
          11 hlineto
          endchar
        </CharString>
        <CharString name="aeacute">
          170 0 128 -7 7 256 128 -13 13 hstemhm
          325.5 159.5 -154.5 162 149.5 11 hintmask 10100110
          387 563 rmoveto
          17 -1 72 33 70 35 81 41 rlinecurve
          3 17 -69 106 -17 1 -63 -54 -63 -51 -75 -55 rlinecurve
          363 -502 rmoveto
          hintmask 10101010
          -143 -5 rlineto
          -79 hlineto
          2 49 167 44 rlineto
          115 vlineto
          -11 10 rlineto
          hintmask 10100110
          -151 -44 3 82 rlineto
          65 hlineto
          129 -6 rlineto
          hintmask 10010110
          26 121 rlineto
          hintmask 10101010
          -9 13 rlineto
          -440 hlineto
          -303 -512 rlineto
          164 hlineto
          35 87 165 46 -1 -45 -8 -88 rlineto
          371 hlineto
          hintmask 01100110
          25 121 rlineto
          -384 135 rmoveto
          -84 -24 76 131 rlineto
          11 hlineto
          endchar
        </CharString>
        <CharString name="agrave">
          -5 0 205.5 -130.5 130.5 146.5 161 hstemhm
          -21 527 hintmask 10110000
          408 563 rmoveto
          44 72 -75 55 -63 51 -63 54 rlinecurve
          -17 -1 -69 -106 3 -17 81 -41 70 -35 72 -33 rlinecurve
          -69 -562 rmoveto
          184 hlineto
          -83 513 rlineto
          -220 hlineto
          -224 -513 rlineto
          177 hlineto
          hintmask 01110000
          20 73 63 3 81 -2 rlineto
          hintmask 10110000
          -55 131 rmoveto
          -39 1 58 146 rlineto
          11 hlineto
          14 -146 rlineto
          endchar
        </CharString>
        <CharString name="ahookabove">
          -5 0 205.5 -130.5 130.5 146.5 161 78 -20 161 81 hstemhm
          -21 527 -206 98 hintmask 00000000
          hintmask 10111010
          270 732 rmoveto
          17 13 -7 -17 -21 -20 -31 -34 -24 hvcurveto
          54 -80 64 39 -27 43 rlineto
          47 42 14 21 29 vvcurveto
          53 -44 34 -56 -46 -47 -23 -37 -34 vhcurveto
          29 -47 rlineto
          16 21 28 10 21 hhcurveto
          52 -732 rmoveto
          184 hlineto
          -83 513 rlineto
          -220 hlineto
          -224 -513 rlineto
          177 hlineto
          hintmask 01111100
          20 73 63 3 81 -2 rlineto
          hintmask 10111100
          -55 131 rmoveto
          -39 1 58 146 rlineto
          11 hlineto
          14 -146 rlineto
          endchar
        </CharString>
        <CharString name="amacron">
          -5 0 205.5 -130.5 130.5 146.5 161 99 119 hstemhm
          -21 527 hintmask 10111000
          190 612 rmoveto
          276 hlineto
          9 107 -12 12 rlineto
          -276 hlineto
          -9 -106 rlineto
          144 -625 rmoveto
          184 hlineto
          -83 513 rlineto
          -220 hlineto
          -224 -513 rlineto
          177 hlineto
          hintmask 01111000
          20 73 63 3 81 -2 rlineto
          hintmask 10111000
          -55 131 rmoveto
          -39 1 58 146 rlineto
          11 hlineto
          14 -146 rlineto
          endchar
        </CharString>
        <CharString name="ampersand">
          127 -13 133 26 133 124 120 189 -20 hstemhm
          16 160 hintmask 00000000
          hintmask 11111000
          688 279 rmoveto
          -231 hlineto
          -13 -10 rlineto
          hintmask 10111000
          -101 -12 -45 -48 -86 hhcurveto
          -46 -32 13 29 -21 hvcurveto
          231 111 251 213 39 107 -12 46 -25 39 -37 34 rrcurveto
          -15 hlineto
          -45 -101 -84 -97 -104 -83 rrcurveto
          54 -4 -43 38 -94 hhcurveto
          -154 -90 -105 -164 -171 98 -96 175 hvcurveto
          hintmask 11111000
          125 84 50 109 44 hvcurveto
          145 hlineto
          12 119 rlineto
          -445 138 rmoveto
          22 9 -9 -17 -17 -8 -13 -15 -10 hvcurveto
          -28 -16 -29 -15 -29 -14 rrcurveto
          71 4 27 40 47 hhcurveto
          endchar
        </CharString>
        <CharString name="aogonek">
          -5 -197 98 -77 -21 197 205.5 -130.5 130.5 146.5 161 hstemhm
          271 207.5 -157.5 51 hintmask 00000000
          hintmask 10101100
          477 -79 rmoveto
          -10 hlineto
          hintmask 10101010
          -13 -23 -22 -7 -19 hhcurveto
          -21 -10 12 16 15 9 21 32 35 hvcurveto
          93 hlineto
          -83 513 rlineto
          -220 hlineto
          -224 -513 rlineto
          177 hlineto
          hintmask 01011010
          20 73 63 3 81 -2 rlineto
          hintmask 01101010
          2 -74 rlineto
          -5 hlineto
          hintmask 01101100
          -35 -44 -11 -29 -36 vvcurveto
          -51 34 -37 59 37 34 14 32 45 vhcurveto
          -215 356 rmoveto
          -39 1 58 146 rlineto
          11 hlineto
          14 -146 rlineto
          endchar
        </CharString>
        <CharString name="approxequal">
          -74 45 416 hstem
          3 503 vstem
          173 318 rmoveto
          33 117 -47 -9 59 hvcurveto
          17 6 105 115 2 16 -42 62 rlineto
          -16 hlineto
          -31 -32 -27 -29 -26 hhcurveto
          -34 -117 46 10 -59 hvcurveto
          -16 -6 -107 -115 -2 -16 44 -63 rlineto
          16 hlineto
          30 30 28 31 27 hhcurveto
          -26 -212 rmoveto
          33 117 -47 -9 59 hvcurveto
          17 6 105 114 2 16 -42 63 rlineto
          -16 hlineto
          -31 -32 -27 -30 -26 hhcurveto
          -34 -117 46 11 -59 hvcurveto
          -16 -7 -106 -115 -2 -16 43 -62 rlineto
          16 hlineto
          30 30 28 31 27 hhcurveto
          endchar
        </CharString>
        <CharString name="aring">
          -5 0 205.5 -130.5 130.5 146.5 161 66 76 64 77 hstemhm
          218 75 70 75 hintmask 10111110
          324 579 rmoveto
          75 39 41 73 68 -35 35 -71 -75 -39 -38 -72 -71 36 -36 70 hvcurveto
          3 140 rmoveto
          26 10 -9 -24 -23 -9 -8 -25 -26 -10 9 25 22 9 8 25 hvcurveto
          -5 -719 rmoveto
          184 hlineto
          -83 513 rlineto
          -220 hlineto
          -224 -513 rlineto
          177 hlineto
          hintmask 01111110
          20 73 63 3 81 -2 rlineto
          hintmask 10111110
          -55 131 rmoveto
          -39 1 58 146 rlineto
          11 hlineto
          14 -146 rlineto
          endchar
        </CharString>
        <CharString name="aringacute">
          -5 0 205.5 -130.5 130.5 146.5 161 45 76 64 77 hstemhm
          218 75 70 75 hintmask 10111110
          228 792 rmoveto
          17 -6 79 10 77 11 89 15 rlinecurve
          8 15 -32 122 -16 6 -77 -32 -75 -29 -88 -30 rlinecurve
          8 -209 rmoveto
          -71 36 -36 70 75 39 41 73 68 -35 35 -71 -75 -39 -38 -72 vhcurveto
          145 hmoveto
          -23 -9 -8 -25 -26 -10 9 25 22 9 8 25 26 10 -9 -24 vhcurveto
          -41 -665 rmoveto
          184 hlineto
          -83 513 rlineto
          -220 hlineto
          -224 -513 rlineto
          177 hlineto
          hintmask 01111110
          20 73 63 3 81 -2 rlineto
          hintmask 10111110
          -55 131 rmoveto
          -39 1 58 146 rlineto
          11 hlineto
          14 -146 rlineto
          endchar
        </CharString>
        <CharString name="arrowdown">
          -4 9 -21 490 -20 26 -20 hstemhm
          212 125 hintmask 10110000
          499 189 rmoveto
          -22 105 rlineto
          -24 hlineto
          -120 -112 rlineto
          hintmask 11010000
          8 296 rlineto
          hintmask 10110000
          -119 6 -14 -12 8 -289 -119 111 rlineto
          -24 hlineto
          -22 -105 210 -201 rlineto
          29 hlineto
          endchar
        </CharString>
        <CharString name="arrowdownleft">
          -4 48 106.5 hstem
          87 106.5 vstem
          442 152 rmoveto
          -164 5 215 203 -80 89 -18 1 -199 -211 -5 165 -17 16 -90 -59 6 -290 21 -20 289 -6 59 90 rlineto
          endchar
        </CharString>
        <CharString name="arrowdownright">
          -4 42 106.5 hstem
          356 107 vstem
          466 355 rmoveto
          -90 59 -17 -17 -6 -164 -203 215 -88 -80 -2 -18 211 -199 -164 -5 -17 -17 59 -90 291 6 20 21 rlineto
          endchar
        </CharString>
        <CharString name="arrowleft">
          -4 179 126 hstem
          25 496 vstem
          515 175 rmoveto
          6 120 -12 14 -289 -8 111 119 rlineto
          24 vlineto
          -105 22 -201 -210 rlineto
          -29 vlineto
          201 -209 105 22 rlineto
          24 vlineto
          -111 119 rlineto
          endchar
        </CharString>
        <CharString name="arrowright">
          -4 179 126 hstem
          29 496 vstem
          525 257 rmoveto
          -201 209 -106 -22 rlineto
          -24 vlineto
          111 -119 -294 8 -6 -120 12 -14 288 8 -111 -119 rlineto
          -24 vlineto
          106 -22 201 210 rlineto
          endchar
        </CharString>
        <CharString name="arrowup">
          -4 21 -21 hstem
          214 125 vstem
          501 295 rmoveto
          -210 201 rlineto
          -29 hlineto
          -209 -201 22 -106 rlineto
          24 hlineto
          119 111 -8 -294 120 -6 13 12 -8 289 120 -112 rlineto
          24 hlineto
          endchar
        </CharString>
        <CharString name="arrowupleft">
          -4 329.5 106.5 hstem
          86 106.5 vstem
          488 128 rmoveto
          -211 199 165 5 16 17 -59 90 -290 -6 -20 -21 -6 -289 90 -59 17 16 5 165 203 -216 89 81 rlineto
          endchar
        </CharString>
        <CharString name="arrowupright">
          -4 334 107 hstem
          356.5 106.5 vstem
          466 127 rmoveto
          -6 291 -21 20 -290 6 -59 -90 17 -17 163 -6 -214 -202 80 -89 19 -1 199 210 5 -164 17 -17 rlineto
          endchar
        </CharString>
        <CharString name="asciicircum">
          -94 371 131 hstem
          2 438 vstem
          440 161 rmoveto
          -93 341 rlineto
          -155 hlineto
          -18 -11 -172 -340 105 -40 14 7 124 253 rlineto
          9 hlineto
          60 -252 111 26 rlineto
          endchar
        </CharString>
        <CharString name="asciitilde">
          -74 152 204 hstem
          3 478 vstem
          148 212 rmoveto
          33 117 -47 -8 59 hvcurveto
          17 5 105 115 2 16 -42 63 rlineto
          -16 hlineto
          -31 -32 -27 -30 -26 hhcurveto
          -34 -117 46 11 -59 hvcurveto
          -16 -7 -107 -115 -2 -16 44 -62 rlineto
          16 hlineto
          30 30 28 30 27 hhcurveto
          endchar
        </CharString>
        <CharString name="asterisk">
          -160 551 97 0 -20 hstemhm
          59 377 hintmask 01100000
          301 741 rmoveto
          -5 10 -34 -1 -35 -6 -28 -10 rlinecurve
          6 -118 9 -8 51 6 rlineto
          -72 -9 rmoveto
          -109 74 -12 -3 -9 -33 -5 -34 1 -30 rlinecurve
          114 -30 11 5 rlineto
          hintmask 10100000
          95 52 rmoveto
          -5 -11 23 -46 132 4 7 8 -12 33 -16 30 -17 24 rlinecurve
          -98 -115 rmoveto
          -12 1 -37 -35 45 -125 10 -4 27 22 24 23 18 25 rlinecurve
          -143 69 rmoveto
          -46 24 -104 -81 -1 -12 29 -18 31 -16 29 -8 rlinecurve
          64 100 rlineto
          endchar
        </CharString>
        <CharString name="at">
          312 -225 106 121 147 -133 -21 545 119 hstemhm
          19 126 68 155 363 124 hintmask 00000000
          hintmask 11011110
          855 327 rmoveto
          209 -145 123 -219 -286 -186 -209 -267 -265 184 -143 278 vhcurveto
          49 89 -6 17 rlineto
          -227 -152 117 206 188 127 140 195 8 hvcurveto
          161 7 103 -87 -139 vvcurveto
          -95 -47 -76 -76 -18 vhcurveto
          43 322 -11 8 -103 -21 -91 15 rlineto
          -6 hlineto
          -158 -53 -69 -135 -114 vvcurveto
          hintmask 10111110
          -77 26 -56 104 -26 vhcurveto
          21 hlineto
          hintmask 11011010
          29 34 22 38 20 39 rrcurveto
          15 hlineto
          -14 -104 rlineto
          hintmask 11011110
          268 151 115 210 hvcurveto
          -467 -178 rmoveto
          -13 -7 21 53 73 15 38 31 hvcurveto
          64 -16 -3 -22 rlineto
          -100 -41 -27 -47 -19 hhcurveto
          endchar
        </CharString>
        <CharString name="atilde">
          -5 0 205.5 -130.5 130.5 146.5 161 hstemhm
          -21 544 hintmask 10110000
          523 727 rmoveto
          -57 54 rlineto
          -16 hlineto
          -29 -23 -20 -29 -26 hhcurveto
          -26 -75 27 7 -52 hvcurveto
          -16 -6 -81 -112 rlineto
          -16 vlineto
          57 -55 rlineto
          16 hlineto
          29 23 20 29 26 hhcurveto
          26 75 -27 -7 52 hvcurveto
          16 6 81 113 rlineto
          -100 -198 rmoveto
          -220 hlineto
          -224 -513 rlineto
          177 hlineto
          hintmask 01110000
          20 73 63 3 81 -2 rlineto
          hintmask 10110000
          2 -74 rlineto
          184 hlineto
          -241 205 rmoveto
          -39 1 58 146 rlineto
          11 hlineto
          14 -146 rlineto
          endchar
        </CharString>
        <CharString name="b">
          4 -6 122 -95 -21 191 117.5 80.5 124 hstemhm
          329 190 -181 195 hintmask 00000000
          hintmask 10111000
          436 263 rmoveto
          hintmask 01110100
          63 28 34 46 55 vvcurveto
          79 -73 42 -114 vhcurveto
          -259 hlineto
          -35 -364 -28 -149 rlineto
          hintmask 10111000
          -3 71 107 -3 41 hhcurveto
          180 96 51 95 67 -32 31 -51 25 hvcurveto
          hintmask 10110100
          -197 47 rmoveto
          11 79 rlineto
          33 hlineto
          41 14 -4 -28 -25 -11 -15 -23 -10 hvcurveto
          hintmask 10111000
          -39 -191 rmoveto
          -11 -19 1 2 -20 hvcurveto
          4 49 3 22 88 2 rlineto
          15 -11 4 -9 -11 vvcurveto
          -29 -26 -16 -38 vhcurveto
          endchar
        </CharString>
        <CharString name="b.sups">
          -216 647 -20 hstem
          255 102 vstem
          253 647 rmoveto
          -26 -28 -23 -35 -20 -37 rrcurveto
          -10 hlineto
          35 266 -110 -7 -3 -76 -52 -393 53 -8 89 -16 rlineto
          5 hlineto
          111 32 55 97 93 vvcurveto
          58 -22 36 -67 18 vhcurveto
          -113 -243 rmoveto
          4 26 rlineto
          80 37 29 42 14 hhcurveto
          8 8 -16 -45 -58 -16 -42 -32 hvcurveto
          endchar
        </CharString>
        <CharString name="backslash">
          -99 667 16 hstem
          58 353 vstem
          203 683 rmoveto
          -130 hlineto
          -15 -16 208 -785 rlineto
          134 hlineto
          11 15 rlineto
          endchar
        </CharString>
        <CharString name="bar">
          -254 -256 1066 hstem
          17 278 vstem
          295 797 rmoveto
          -12 13 -137 -11 -64 -520 -65 -519 13 -16 133 11 65 539 rlineto
          endchar
        </CharString>
        <CharString name="braceleft">
          -251 -104 115 533 115 hstemhm
          32 233.5 -192.5 156 -135 149 hintmask 11001000
          271 659 rmoveto
          -113 -64 -53 -96 hvcurveto
          -39 7 -38 -29 vvcurveto
          hintmask 11010000
          -40 -22 -26 -42 -17 vhcurveto
          -11 -87 rlineto
          31 -14 16 -22 -27 vvcurveto
          hintmask 11100000
          -45 -41 -53 -68 vvcurveto
          -68 50 -41 95 28 26 4 8 27 vhcurveto
          9 13 -3 95 rlineto
          -3 -12 -11 -2 -11 hhcurveto
          -28 -14 15 26 hvcurveto
          hintmask 11010000
          41 41 41 49 vvcurveto
          36 -19 35 -39 20 vhcurveto
          1 7 rlineto
          hintmask 11001000
          54 24 29 43 45 31 -12 35 28 vvcurveto
          34 18 23 34 11 11 -2 -3 11 vhcurveto
          26 95 -5 13 rlineto
          8 -25 -25 4 -28 hhcurveto
          endchar
        </CharString>
        <CharString name="braceright">
          -252 -104 115 533 115 0 -20 hstemhm
          47.5 233.5 -211 148 -135 157 hintmask 10101000
          42 -104 rmoveto
          113 63 53 96 hvcurveto
          39 -6 38 29 vvcurveto
          hintmask 10100100
          40 22 26 42 17 vhcurveto
          11 87 rlineto
          -31 14 -16 22 27 vvcurveto
          hintmask 10110000
          45 41 53 68 vvcurveto
          68 -50 41 -95 -28 -26 -4 -8 -27 vhcurveto
          hintmask 11010000
          -9 -13 3 -95 rlineto
          3 12 11 2 11 hhcurveto
          27 14 -15 -27 hvcurveto
          hintmask 10100100
          -41 -41 -40 -49 vvcurveto
          -36 19 -35 39 -20 vhcurveto
          -1 -7 rlineto
          hintmask 10101000
          -54 -24 -29 -43 -45 -31 13 -35 -28 vvcurveto
          -35 -18 -22 -34 -11 -11 2 3 -11 vhcurveto
          -26 -95 5 -13 rlineto
          -8 25 25 -4 28 hhcurveto
          endchar
        </CharString>
        <CharString name="bracketleft">
          -252 649 -20 hstem
          16 345 vstem
          361 640 rmoveto
          -6 9 -246 -10 -36 -376 -57 -376 244 -10 8 9 11 85 -93 15 67 554 97 14 rlineto
          endchar
        </CharString>
        <CharString name="bracketright">
          -252 540 109 0 -20 hstemhm
          -52 345 hintmask 01100000
          -52 -114 rmoveto
          6 -9 246 10 36 376 57 376 -244 10 -8 -9 rlineto
          hintmask 10100000
          -11 -86 93 -14 -68 -554 -96 -15 rlineto
          endchar
        </CharString>
        <CharString name="breve">
          535 134 hstem
          70 354 vstem
          393 732 rmoveto
          -27 hlineto
          -40 -24 -45 -23 -49 hhcurveto
          -48 -40 23 40 -16 hvcurveto
          -27 hlineto
          -47 -61 rlineto
          -64 12 45 -72 109 hhcurveto
          99 62 68 68 27 hvcurveto
          endchar
        </CharString>
        <CharString name="breve.cap">
          541 133 hstem
          69 355 vstem
          392 724 rmoveto
          -27 hlineto
          -32 -24 -41 -18 -49 hhcurveto
          -46 -42 16 34 -19 hvcurveto
          -27 hlineto
          -48 -59 rlineto
          -80 23 62 -44 87 hhcurveto
          86 60 44 80 37 hvcurveto
          endchar
        </CharString>
        <CharString name="breveacute">
          521 133 50 -20 hstem
          67 355 vstem
          382 823 rmoveto
          -89 57 -13 -4 -31 -50 -33 -48 -33 -48 rlinecurve
          58 -44 15 4 44 38 43 40 41 41 rlinecurve
          6 -105 rmoveto
          -27 hlineto
          -32 -24 -41 -18 -49 hhcurveto
          -46 -42 16 34 -19 hvcurveto
          -27 hlineto
          -48 -59 rlineto
          -80 23 62 -44 87 hhcurveto
          86 60 44 80 37 hvcurveto
          endchar
        </CharString>
        <CharString name="brevegrave">
          521 133 50 -20 hstem
          67 355 vstem
          253 686 rmoveto
          58 44 -33 48 -33 48 -31 50 rlinecurve
          -13 4 -89 -57 -3 -14 42 -41 43 -40 44 -38 rlinecurve
          152 14 rmoveto
          -27 hlineto
          -32 -24 -41 -18 -49 hhcurveto
          -46 -42 16 34 -19 hvcurveto
          -27 hlineto
          -48 -59 rlineto
          -80 23 62 -44 87 hhcurveto
          86 60 44 80 37 hvcurveto
          endchar
        </CharString>
        <CharString name="brevehookabove">
          521 133 50 -20 174 82 hstemhm
          239 98 hintmask 00000000
          hintmask 11110000
          237 940 rmoveto
          -46 -47 -24 -37 -34 hvcurveto
          29 -47 rlineto
          16 21 28 10 21 hhcurveto
          17 13 -7 -17 -21 -20 -31 -34 -24 hvcurveto
          54 -79 64 38 -27 43 rlineto
          47 42 14 21 29 vvcurveto
          53 -44 35 -56 vhcurveto
          153 -236 rmoveto
          -27 hlineto
          -32 -24 -41 -18 -49 hhcurveto
          -46 -42 16 34 -19 hvcurveto
          -27 hlineto
          -48 -59 rlineto
          -80 23 62 -44 87 hhcurveto
          86 60 44 80 37 hvcurveto
          endchar
        </CharString>
        <CharString name="brevetilde">
          520 124 hstem
          79 375 vstem
          454 860 rmoveto
          -51 50 rlineto
          -15 hlineto
          -27 -21 -18 -26 -24 hhcurveto
          -23 -69 24 7 -47 hvcurveto
          -14 -6 -74 -102 rlineto
          -15 vlineto
          52 -49 rlineto
          14 hlineto
          26 21 18 27 24 hhcurveto
          24 68 -26 -6 47 hvcurveto
          15 5 73 103 rlineto
          -74 -155 rmoveto
          -25 hlineto
          -30 -23 -38 -16 -45 hhcurveto
          -43 -39 15 31 -18 hvcurveto
          -25 hlineto
          -45 -55 rlineto
          -74 22 58 -41 80 hhcurveto
          80 56 41 74 35 hvcurveto
          endchar
        </CharString>
        <CharString name="brokenbar">
          -254 -256 1066 hstem
          17 278 vstem
          295 797 rmoveto
          -12 13 -137 -11 -52 -423 11 -11 135 17 rlineto
          -30 -237 rmoveto
          -13 16 -132 -15 -48 -386 13 -16 133 11 rlineto
          endchar
        </CharString>
        <CharString name="bullet">
          -233 121 273 hstem
          29 267 vstem
          169 394 rmoveto
          -86 -54 -55 -88 -83 45 -47 84 85 53 55 88 82 -46 48 -81 hvcurveto
          endchar
        </CharString>
        <CharString name="bulletoperator">
          -255 122 272 hstem
          6 267 vstem
          146 394 rmoveto
          -86 -54 -55 -87 -84 45 -46 84 85 53 54 88 82 -46 48 -81 hvcurveto
          endchar
        </CharString>
        <CharString name="c">
          -106 -10 152 231 149 hstem
          18 198 vstem
          335 522 rmoveto
          -207 -110 -119 -179 -153 80 -81 189 21 34 1 7 39 hvcurveto
          33 151 -14 8 rlineto
          -9 -29 -42 -6 -28 hhcurveto
          -66 -19 36 72 87 29 36 67 36 39 -10 -16 26 hvcurveto
          13 8 49 151 rlineto
          10 -38 -56 6 -46 hhcurveto
          endchar
        </CharString>
        <CharString name="c.sups">
          -295 314 90 164 81 hstem
          39 106 vstem
          294 632 rmoveto
          -61 17 rlineto
          -135 -59 -95 -108 -80 31 -41 81 -11 hvcurveto
          15 hlineto
          51 16 32 25 30 52 -36 42 rcurveline
          -14 hlineto
          -35 -21 -15 -10 -16 hhcurveto
          -23 -9 18 44 68 18 34 39 17 10 -8 -17 15 hvcurveto
          24 1 30 77 rlineto
          endchar
        </CharString>
        <CharString name="cacute">
          -106 -10 152 231 149 hstem
          18 198 vstem
          397 794 rmoveto
          -17 1 -63 -54 -63 -51 -75 -55 rlinecurve
          44 -72 17 -1 72 33 70 35 81 41 rlinecurve
          3 17 rlineto
          -132 -166 rmoveto
          -206 -110 -119 -179 -153 80 -81 188 22 34 1 7 39 hvcurveto
          33 151 -14 8 rlineto
          -9 -30 -42 -6 -27 hhcurveto
          -66 -19 36 72 87 29 36 67 36 39 -10 -16 26 hvcurveto
          13 8 48 151 rlineto
          10 -38 -55 6 -47 hhcurveto
          endchar
        </CharString>
        <CharString name="caron">
          526 221 hstem
          69 359 vstem
          390 747 rmoveto
          -18 hlineto
          -47 -28 -48 -28 -31 -22 -26 22 -37 28 -40 28 rrcurveto
          -18 hlineto
          -56 -71 51 -49 55 -54 41 -47 rlinecurve
          34 hlineto
          63 55 61 54 54 41 rrcurveto
          endchar
        </CharString>
        <CharString name="caron.alt">
          501 255 hstem
          164 167 vstem
          331 745 rmoveto
          -8 11 -140 -8 -19 -237 11 -10 84 13 rlineto
          endchar
        </CharString>
        <CharString name="caron.cap">
          656 -20 hstem
          77 340 vstem
          392 731 rmoveto
          -18 hlineto
          -42 -20 -45 -20 -41 -20 -37 20 -35 20 -36 20 rrcurveto
          -18 hlineto
          -43 -75 55 -39 50 -39 43 -41 rlinecurve
          34 hlineto
          47 41 52 39 59 39 rrcurveto
          endchar
        </CharString>
        <CharString name="ccaron">
          -106 -10 152 231 149 188 -20 hstem
          18 198 vstem
          464 788 rmoveto
          -18 hlineto
          -47 -28 -48 -28 -31 -22 -26 22 -37 28 -40 28 rrcurveto
          -18 hlineto
          -56 -71 51 -49 55 -54 41 -47 rlinecurve
          34 hlineto
          63 55 61 54 54 41 rrcurveto
          -168 -195 rmoveto
          -206 -110 -119 -179 -153 80 -81 188 22 34 1 7 39 hvcurveto
          33 151 -14 8 rlineto
          -9 -30 -42 -6 -27 hhcurveto
          -66 -19 36 72 87 29 36 67 36 39 -10 -16 26 hvcurveto
          13 8 48 151 rlineto
          10 -38 -55 6 -47 hhcurveto
          endchar
        </CharString>
        <CharString name="ccedilla">
          -106 -208 74 -29 -21 174 152 -127 -21 379 149 hstemhm
          18 198 48 107 hintmask 01011100
          312 373 rmoveto
          36 39 -10 -16 26 hvcurveto
          13 8 48 151 rlineto
          10 -38 -55 6 -47 hhcurveto
          -206 -110 -119 -179 -133 60 -78 138 -19 hvcurveto
          hintmask 10011110
          -14 -72 50 -27 rlineto
          8 -4 4 -4 -7 vvcurveto
          -9 -5 -5 -11 -14 -25 10 18 -21 vhcurveto
          -8 -3 rlineto
          hintmask 01011100
          -11 -75 rlineto
          hintmask 10101110
          -15 27 30 -9 35 hhcurveto
          69 41 36 48 24 -10 21 -34 18 hvcurveto
          -34 19 6 32 21 1 29 1 32 6 rlinecurve
          33 151 -14 8 rlineto
          -9 -30 -42 -6 -27 hhcurveto
          -66 -19 36 72 hvcurveto
          hintmask 01011100
          87 29 36 67 vhcurveto
          endchar
        </CharString>
        <CharString name="ccircumflex">
          -106 -10 152 231 149 hstem
          18 198 vstem
          181 571 rmoveto
          18 hlineto
          47 28 46 28 31 22 26 -22 39 -28 40 -28 rrcurveto
          18 hlineto
          56 72 -51 48 -55 54 -41 47 rlinecurve
          -34 hlineto
          -63 -55 -61 -53 -54 -41 rrcurveto
          191 -121 rmoveto
          -206 -110 -119 -179 -153 80 -81 188 22 34 1 7 39 hvcurveto
          33 151 -14 8 rlineto
          -9 -30 -42 -6 -27 hhcurveto
          -66 -19 36 72 87 29 36 67 36 39 -10 -16 26 hvcurveto
          13 8 48 151 rlineto
          10 -38 -55 6 -47 hhcurveto
          endchar
        </CharString>
        <CharString name="cdotaccent">
          -106 -10 152 231 149 51 198 hstemhm
          18 198 8 194 hintmask 00000000
          hintmask 11111000
          326 771 rmoveto
          -63 -39 -39 -64 -61 33 -34 61 62 38 40 64 60 -33 34 -59 hvcurveto
          8 -249 rmoveto
          hintmask 11110000
          -206 -110 -119 -179 -153 80 -81 188 22 34 1 7 39 hvcurveto
          33 151 -14 8 rlineto
          -9 -30 -42 -6 -27 hhcurveto
          -66 -19 36 72 87 29 36 67 36 39 -10 -16 26 hvcurveto
          13 8 48 151 rlineto
          hintmask 11111000
          10 -38 -55 6 -47 hhcurveto
          endchar
        </CharString>
        <CharString name="cedilla">
          -209 74 -29 -21 hstemhm
          46 202 -107 107 hintmask 00000000
          hintmask 10010000
          170 -43 rmoveto
          14 76 rlineto
          -83 hlineto
          -22 -112 50 -27 rlineto
          8 -4 4 -4 -7 vvcurveto
          -9 -5 -5 -11 -14 -25 10 18 -21 vhcurveto
          -8 -3 rlineto
          hintmask 01100000
          -11 -75 rlineto
          hintmask 10010000
          -15 27 30 -9 35 hhcurveto
          69 41 36 48 24 -10 21 -34 18 hvcurveto
          endchar
        </CharString>
        <CharString name="cent">
          -170 -127 14 759 14 hstem
          13 157 vstem
          311 231 rmoveto
          -21 1 rlineto
          -50 -30 -20 -14 -23 hhcurveto
          -33 -14 26 62 92 26 45 55 24 14 -12 -25 22 hvcurveto
          36 1 45 118 -6 17 -73 20 19 134 -15 14 rlineto
          -94 hlineto
          -22 -156 rlineto
          -130 -37 -58 -116 -127 vvcurveto
          -99 34 -60 85 -26 vhcurveto
          -21 -152 11 -14 rlineto
          97 hlineto
          25 174 51 25 35 35 35 59 rlinecurve
          endchar
        </CharString>
        <CharString name="circle1">
          -82 9 -21 hstem
          -2 476 vstem
          236 464 rmoveto
          -131 -107 -107 -131 -131 107 -107 131 131 107 107 131 131 -107 107 -131 hvcurveto
          endchar
        </CharString>
        <CharString name="circle2">
          93 649 -20 hstem
          -8 663 vstem
          323 649 rmoveto
          -183 -148 -149 -183 -183 148 -148 183 183 149 148 183 183 -149 149 -183 hvcurveto
          endchar
        </CharString>
        <CharString name="circumflex">
          530 221 hstem
          60 359 vstem
          98 530 rmoveto
          18 hlineto
          47 28 46 28 31 22 26 -22 39 -28 40 -28 rrcurveto
          18 hlineto
          56 72 -51 48 -55 54 -41 47 rlinecurve
          -34 hlineto
          -63 -55 -61 -53 -54 -41 rrcurveto
          endchar
        </CharString>
        <CharString name="circumflex.cap">
          545 194 hstem
          72 340 vstem
          97 545 rmoveto
          18 hlineto
          41 20 46 20 41 20 37 -20 34 -20 37 -20 rrcurveto
          18 hlineto
          43 76 -56 39 -49 38 -43 41 rlinecurve
          -34 hlineto
          -47 -41 -53 -38 -58 -39 rrcurveto
          endchar
        </CharString>
        <CharString name="circumflexacute">
          526 350 hstem
          73 421 vstem
          489 835 rmoveto
          -97 41 -12 -7 -70 -149 63 -46 rlineto
          11 hlineto
          110 148 rlineto
          -263 -102 rmoveto
          -47 -41 -53 -38 -58 -39 25 -76 rcurveline
          18 hlineto
          41 20 46 20 41 20 37 -20 34 -20 37 -20 rrcurveto
          18 hlineto
          42 76 -55 39 -49 38 -43 41 rlinecurve
          endchar
        </CharString>
        <CharString name="circumflexgrave">
          525 351 hstem
          66 360 vstem
          356 869 rmoveto
          -11 7 -98 -41 -5 -13 110 -148 rlineto
          11 hlineto
          63 46 rlineto
          -202 -1 rmoveto
          -47 -41 -53 -38 -58 -39 25 -76 rcurveline
          18 hlineto
          41 20 46 20 41 20 37 -20 34 -20 37 -20 rrcurveto
          18 hlineto
          43 76 -56 39 -49 38 -43 41 rlinecurve
          endchar
        </CharString>
        <CharString name="circumflexhookabove">
          713 -20 154 78 hstemhm
          346 94 hintmask 00000000
          hintmask 11100000
          345 925 rmoveto
          -44 -45 -23 -35 -32 hvcurveto
          27 -45 rlineto
          15 20 27 10 20 hhcurveto
          16 12 -7 -16 -20 -19 -30 -32 -22 hvcurveto
          51 -76 61 37 -25 41 rlineto
          44 40 14 20 27 vvcurveto
          51 -42 33 -53 vhcurveto
          -120 -205 rmoveto
          -47 -41 -53 -38 -58 -39 25 -76 rcurveline
          18 hlineto
          41 20 46 20 41 20 37 -20 34 -20 37 -20 rrcurveto
          18 hlineto
          43 76 -56 39 -49 38 -43 41 rlinecurve
          endchar
        </CharString>
        <CharString name="circumflextilde">
          527 378 hstem
          72 378 vstem
          450 855 rmoveto
          -51 50 rlineto
          -15 hlineto
          -27 -21 -18 -26 -24 hhcurveto
          -23 -69 24 7 -47 hvcurveto
          -14 -6 -74 -102 rlineto
          -15 vlineto
          52 -49 rlineto
          14 hlineto
          26 21 18 27 24 hhcurveto
          24 68 -25 -6 47 hvcurveto
          15 5 73 102 rlineto
          -220 -119 rmoveto
          -47 -41 -53 -38 -58 -39 25 -76 rcurveline
          18 hlineto
          41 20 46 20 41 20 37 -20 34 -20 37 -20 rrcurveto
          18 hlineto
          42 76 -55 39 -49 38 -43 41 rlinecurve
          endchar
        </CharString>
        <CharString name="colon">
          -324 -9 198 -177 -21 255 198 hstemhm
          0 194 -162 194 hintmask 00000000
          hintmask 01101000
          134 444 rmoveto
          -63 -39 -40 -63 -61 33 -34 61 62 38 40 64 59 -33 35 -59 hvcurveto
          hintmask 10110000
          -32 -255 rmoveto
          -63 -39 -40 -63 -61 33 -34 61 62 38 40 64 59 -33 35 -59 hvcurveto
          endchar
        </CharString>
        <CharString name="comma">
          -325 -142 324 hstemhm
          36 158 hintmask 00000000
          hintmask 11000000
          147 182 rmoveto
          -51 -13 -47 -20 -45 -25 -1 -16 rcurveline
          23 -22 10 -23 -29 vvcurveto
          -42 -18 -34 -38 -33 vhcurveto
          2 -14 61 -53 rlineto
          104 72 47 69 77 vvcurveto
          42 -15 33 -32 31 vhcurveto
          endchar
        </CharString>
        <CharString name="commaaccent">
          -554 -75 -21 hstemhm
          94 137 hintmask 00000000
          hintmask 11000000
          190 -33 rmoveto
          -44 -11 -41 -17 -38 -22 -1 -13 rcurveline
          20 -20 8 -20 -25 vvcurveto
          -36 -15 -29 -33 -28 vhcurveto
          2 -12 52 -45 rlineto
          90 61 41 59 67 vvcurveto
          36 -13 28 -28 27 vhcurveto
          endchar
        </CharString>
        <CharString name="copyright">
          141 -12 61 80 102 131 102 73 61 hstem
          50 62 87 133 265 62 vstem
          354 598 rmoveto
          -182 -122 -122 -183 -183 122 -122 182 183 122 122 183 183 -122 122 -183 hvcurveto
          -61 vmoveto
          145 98 -98 -146 -146 -98 -98 -145 -144 -98 98 146 146 98 98 144 hvcurveto
          30 -73 rmoveto
          -118 -67 -64 -108 -106 58 -57 121 21 23 -2 4 24 hvcurveto
          10 99 -10 6 rlineto
          -3 -17 -25 -2 -16 hhcurveto
          -40 -16 23 53 43 13 12 34 17 26 -4 -8 17 hvcurveto
          7 5 22 100 rlineto
          5 -26 -27 4 -31 hhcurveto
          endchar
        </CharString>
        <CharString name="currency">
          -120 166 101 144 101 -33 -20 53 -20 hstemhm
          54 101 146 101 hintmask 00000000
          hintmask 10011100
          474 490 rmoveto
          hintmask 11001100
          -78 84 -18 -3 -66 -72 rlineto
          8 -19 -21 5 -23 hhcurveto
          -26 -25 -6 -10 -23 hvcurveto
          hintmask 10111100
          -51 71 -16 1 -94 -89 rlineto
          -17 vlineto
          63 -55 rlineto
          -15 -27 -8 -27 -31 vvcurveto
          -19 3 -21 6 -16 vhcurveto
          -77 -59 -3 -16 78 -83 18 3 62 70 rlineto
          -9 20 23 -6 23 hhcurveto
          27 26 6 13 25 hvcurveto
          50 -71 rlineto
          16 hlineto
          95 88 -1 17 -65 55 rlineto
          13 25 9 26 31 vvcurveto
          19 -3 21 -6 17 vhcurveto
          79 61 rlineto
          hintmask 11001100
          -235 -63 rmoveto
          40 24 -23 -39 -50 -32 -32 -50 -41 -23 23 39 50 32 32 50 hvcurveto
          endchar
        </CharString>
        <CharString name="d">
          22 -8 136 -107 -21 373 143 hstemhm
          368 195 hintmask 10110000
          87 513 rmoveto
          -36 -364 rlineto
          hintmask 01110000
          -27 -149 rlineto
          hintmask 10110000
          -4 68 93 -4 58 hhcurveto
          211 109 121 200 130 -87 73 -145 hvcurveto
          -47 -388 rmoveto
          -16 -27 4 4 -22 hvcurveto
          2 32 32 202 rlineto
          2 21 17 1 16 hhcurveto
          42 19 -22 -66 -125 -35 -32 -49 hvcurveto
          endchar
        </CharString>
        <CharString name="d.sups">
          -219 647 -20 hstem
          35 101 vstem
          371 813 rmoveto
          -111 -7 -2 -76 -12 -88 -35 5 rlineto
          -5 hlineto
          -117 -33 -54 -100 -89 vvcurveto
          -55 18 -38 71 -19 vhcurveto
          15 hlineto
          26 28 22 35 20 36 rrcurveto
          9 hlineto
          -13 -95 110 7 3 75 rlineto
          -163 11 rmoveto
          -8 -9 16 42 62 19 40 35 hvcurveto
          45 -10 -4 -30 rlineto
          -80 -36 -28 -40 -14 hhcurveto
          endchar
        </CharString>
        <CharString name="dagger">
          -30 -73 -21 389 127 171 -20 hstem
          45 464 vstem
          486 295 rmoveto
          23 114 -10 13 rlineto
          -153 hlineto
          22 160 -8 11 -124 -9 -20 -162 rlineto
          -147 hlineto
          -24 -115 11 -12 rlineto
          144 hlineto
          -2 -16 -44 -360 10 -13 119 9 45 376 1 4 rlineto
          endchar
        </CharString>
        <CharString name="daggerdbl">
          -30 -73 -21 145 128 132 128 154 -20 hstem
          16 495 vstem
          329 291 rmoveto
          3 20 rlineto
          156 hlineto
          23 115 -10 13 rlineto
          -152 hlineto
          19 143 -8 11 -123 -9 -19 -145 rlineto
          -147 hlineto
          -23 -115 10 -13 rlineto
          144 hlineto
          -4 -32 -12 -100 rlineto
          -147 hlineto
          -23 -115 10 -13 rlineto
          144 hlineto
          -16 -132 10 -13 119 9 17 136 rlineto
          156 hlineto
          23 115 -10 13 rlineto
          -154 hlineto
          endchar
        </CharString>
        <CharString name="dcaron">
          22 -8 136 -107 -21 373 143 194 -20 hstemhm
          367 196 hintmask 10111000
          332 567 rmoveto
          63 55 61 54 54 41 -38 71 rcurveline
          -18 hlineto
          -47 -28 -48 -28 -31 -22 -26 22 -37 28 -40 28 rrcurveto
          -18 hlineto
          -56 -71 51 -49 55 -54 41 -47 rlinecurve
          -211 -54 rmoveto
          -36 -364 rlineto
          hintmask 01111000
          -27 -149 rlineto
          hintmask 10111000
          -4 68 93 -4 58 hhcurveto
          210 110 121 200 130 -88 73 -145 hvcurveto
          -47 -388 rmoveto
          -16 -26 4 4 -22 hvcurveto
          2 32 32 202 rlineto
          2 21 17 1 16 hhcurveto
          42 18 -22 -66 -125 -34 -32 -50 hvcurveto
          endchar
        </CharString>
        <CharString name="dcroat">
          22 -8 136 -107 -21 373 143 96 119 hstemhm
          367 196 hintmask 10111000
          193 612 rmoveto
          276 hlineto
          9 107 -12 12 rlineto
          -276 hlineto
          -9 -106 rlineto
          -94 -112 rmoveto
          -36 -364 rlineto
          hintmask 01111000
          -27 -149 rlineto
          hintmask 10111000
          -4 68 93 -4 58 hhcurveto
          210 110 121 200 130 -88 73 -145 hvcurveto
          -47 -388 rmoveto
          -16 -26 4 4 -22 hvcurveto
          2 32 32 202 rlineto
          2 21 17 1 16 hhcurveto
          42 18 -22 -66 -125 -34 -32 -50 hvcurveto
          endchar
        </CharString>
        <CharString name="degree">
          -261 389 79 112 79 hstem
          46 79 113 80 vstem
          198 659 rmoveto
          -80 -72 -67 -82 -68 50 -53 69 81 72 67 82 68 -50 53 -70 hvcurveto
          -9 -79 rmoveto
          30 19 -20 -29 -38 -27 -25 -36 -31 -19 19 30 37 26 26 38 hvcurveto
          endchar
        </CharString>
        <CharString name="dieresis">
          543 172 hstemhm
          62 169 24 169 hintmask 11000000
          150 715 rmoveto
          -55 -33 -33 -56 -53 28 -30 53 54 34 35 56 52 -30 29 -51 hvcurveto
          hintmask 11100000
          194 hmoveto
          -55 -34 -33 -56 -53 29 -30 53 54 33 35 56 51 -29 30 -51 hvcurveto
          endchar
        </CharString>
        <CharString name="dieresis.i">
          543 172 hstemhm
          67 169 14 169 hintmask 11000000
          155 715 rmoveto
          -55 -33 -34 -56 -53 29 -29 52 54 34 35 55 52 -30 30 -51 hvcurveto
          hintmask 11100000
          184 hmoveto
          -55 -34 -34 -56 -53 29 -29 53 53 34 35 55 52 -30 30 -50 hvcurveto
          endchar
        </CharString>
        <CharString name="dieresisacute">
          524 172 hstemhm
          61 168 24 168 hintmask 11000000
          364 900 rmoveto
          -16 7 -77 -29 -77 -26 -89 -27 rlinecurve
          16 -83 16 -7 79 7 78 9 89 11 rlinecurve
          9 15 rlineto
          -243 -81 rmoveto
          -55 -33 -34 -55 -53 28 -30 53 54 33 35 56 51 -29 30 -51 hvcurveto
          hintmask 11100000
          193 hmoveto
          -55 -34 -34 -55 -53 29 -30 53 54 32 35 56 51 -28 30 -51 hvcurveto
          endchar
        </CharString>
        <CharString name="dieresiscaron">
          524 172 hstemhm
          67 168 24 168 hintmask 11000000
          396 894 rmoveto
          -18 hlineto
          -42 -20 -45 -20 -41 -20 -37 20 -35 20 -36 20 rrcurveto
          -18 hlineto
          -43 -76 55 -39 50 -39 43 -40 rlinecurve
          34 hlineto
          47 40 52 39 59 39 rrcurveto
          -266 -122 rmoveto
          -55 -33 -34 -55 -53 28 -30 53 54 33 35 56 51 -29 30 -51 hvcurveto
          hintmask 11100000
          193 hmoveto
          -55 -34 -34 -55 -53 29 -30 53 54 32 35 56 51 -29 30 -50 hvcurveto
          endchar
        </CharString>
        <CharString name="dieresisgrave">
          524 172 hstemhm
          60 168 24 168 hintmask 11000000
          159 900 rmoveto
          -44 -123 8 -15 87 -11 77 -9 78 -7 rlinecurve
          17 7 26 83 -85 27 -74 26 -74 29 rlinecurve
          -27 -211 rmoveto
          -55 -33 -35 -54 -53 28 -30 53 54 33 35 56 52 -29 29 -51 hvcurveto
          hintmask 11100000
          193 hmoveto
          -55 -34 -35 -54 -53 29 -30 53 54 32 35 56 52 -28 29 -51 hvcurveto
          endchar
        </CharString>
        <CharString name="dieresismacron">
          524 172 48 119 hstemhm
          61 168 24 169 hintmask 11100000
          415 850 rmoveto
          -13 13 rlineto
          -303 hlineto
          -10 -107 13 -12 rlineto
          303 hlineto
          -256 -48 rmoveto
          -54 -34 -34 -55 -53 29 -30 52 54 33 35 56 51 -29 30 -51 hvcurveto
          hintmask 11110000
          193 hmoveto
          -55 -34 -34 -55 -53 29 -30 53 54 33 35 56 51 -29 30 -51 hvcurveto
          endchar
        </CharString>
        <CharString name="divide">
          -76 10 162 18 130 15 162 hstemhm
          141 159 -118 158 hintmask 00000000
          hintmask 01101000
          265 497 rmoveto
          -52 -31 -32 -52 -50 26 -28 50 51 31 33 52 49 -27 28 -48 hvcurveto
          hintmask 01001000
          203 -190 rmoveto
          -12 13 rlineto
          -430 hlineto
          -9 -117 12 -13 rlineto
          430 hlineto
          hintmask 11010000
          -234 -18 rmoveto
          -52 -32 -32 -53 -49 27 -28 50 51 31 33 52 49 -27 28 -48 hvcurveto
          endchar
        </CharString>
        <CharString name="divisionslash">
          -274 -118 15 770 16 hstem
          -54 407 vstem
          353 667 rmoveto
          -14 16 rlineto
          -130 hlineto
          -263 -786 10 -15 rlineto
          134 hlineto
          endchar
        </CharString>
        <CharString name="dollar">
          -85 -140 14 135 -21 534 -20 129 14 hstemhm
          48 187 7 186 hintmask 11111000
          235 371 rmoveto
          10 7 6 15 26 54 -18 -33 46 vhcurveto
          26 7 43 153 -33 12 -43 10 -45 4 rlinecurve
          12 109 -14 14 rlineto
          -94 hlineto
          -14 -130 rlineto
          -110 -24 -63 -76 -90 vvcurveto
          hintmask 11110100
          -150 194 8 -46 vvcurveto
          -12 -9 -7 -17 -40 -65 29 42 -49 vhcurveto
          -18 -13 -44 -160 58 -19 58 -7 46 -2 rlinecurve
          -12 -114 11 -14 rlineto
          96 hlineto
          15 139 rlineto
          111 29 45 82 74 vvcurveto
          hintmask 11111000
          148 -193 -8 47 vvcurveto
          endchar
        </CharString>
        <CharString name="dotaccent">
          532 198 hstem
          145 194 vstem
          247 730 rmoveto
          -63 -39 -39 -64 -61 33 -34 61 62 38 40 64 60 -33 34 -59 hvcurveto
          endchar
        </CharString>
</ttFont>
